<svg width="50" height="51" viewBox="0 0 50 51" fill="none" xmlns="http://www.w3.org/2000/svg">
<path d="M47.5824 1.78252C45.2057 -0.594172 41.269 -0.594172 38.8092 1.78252L31.2659 9.32586L8.63221 3.42252C8.22221 3.33924 7.7289 3.42252 7.48553 3.74924L3.71221 7.44243C3.46557 7.68907 3.30221 8.01579 3.38549 8.42578C3.38549 8.7525 3.54885 9.08242 3.87877 9.32909L19.2923 21.2994L15.519 25.0728L3.54536 21.9561C3.13536 21.8728 2.64205 21.9561 2.39867 22.2828L0.348672 24.3328C0.102032 24.5795 -0.061329 24.9062 0.0219502 25.3162C0.0219502 25.6429 0.185311 25.9728 0.51523 26.2195L8.46857 32.4528C6.91189 34.8295 7.23857 38.1095 9.28857 40.1595L9.6153 40.4862C10.8453 41.7162 12.402 42.2895 13.962 42.2895C15.1086 42.2895 16.3386 41.9628 17.3253 41.3062L23.802 49.753C24.0486 49.9997 24.3753 50.2463 24.7053 50.2463H24.7885C25.1153 50.2463 25.4452 50.0829 25.6919 49.9196L27.7419 47.8696C28.0686 47.5429 28.1519 47.1329 28.0686 46.7229L24.7886 34.1761L28.3152 30.6494L40.6152 46.5558C40.8619 46.8024 41.1886 47.049 41.5185 47.049H41.6018C41.9285 47.049 42.2585 46.8857 42.5051 46.7223L46.2785 42.949C46.6052 42.6223 46.6884 42.2123 46.6052 41.8023L40.6121 18.1822L47.9088 10.8855C50.2855 8.50886 50.2855 4.5722 47.9088 2.11237L47.5824 1.78252ZM6.4192 8.17917L8.63254 5.96583L29.2162 11.2958L21.0162 19.4958L6.4192 8.17917ZM3.62931 24.4988L13.553 27.0389L10.1096 30.4823L3.05629 25.069L3.62931 24.4988ZM25.6061 46.392L25.0328 46.9654L19.2928 39.502L22.8995 35.8954L25.6061 46.392ZM44.0561 41.3887L41.8428 43.602L30.1996 28.5985L38.5628 20.2353L44.0561 41.3887ZM46.1061 9.16186L16.6698 38.6015C15.1931 40.0782 12.8164 40.0782 11.4231 38.6015L11.0932 38.2716C9.61651 36.7949 9.61651 34.4182 11.0932 33.0249L40.5295 3.50489C41.2662 2.76817 42.2528 2.43824 43.1529 2.43824C44.0562 2.43824 45.0395 2.76496 45.7762 3.50489L46.1029 3.83161C47.5828 5.30827 47.5828 7.68816 46.1061 9.16161L46.1061 9.16186Z" fill="black"/>
<path d="M20.2755 27.6125L13.0589 34.8292C12.5656 35.3225 12.5656 36.0592 13.0589 36.5525C13.3055 36.7991 13.6323 36.8792 13.9622 36.8792C14.2889 36.8792 14.6188 36.7959 14.8655 36.5525L22.0822 29.3358C22.5754 28.8426 22.5754 28.1058 22.0822 27.6125C21.5889 27.1224 20.7689 27.1224 20.2756 27.6125H20.2755Z" fill="black"/>
<path d="M41.2692 4.16299C40.6125 4.16299 40.0392 4.73635 40.0392 5.39299C40.0392 6.04963 40.6125 6.62299 41.2692 6.62299C42.2525 6.62299 43.0725 7.44299 43.0725 8.42634C43.0725 9.08298 43.6459 9.65634 44.3025 9.65634C44.9592 9.65634 45.5325 9.08298 45.5325 8.42634C45.5325 6.04965 43.5658 4.16299 41.2692 4.16299Z" fill="black"/>
</svg>
