<svg width="49" height="49" viewBox="0 0 49 49" fill="none" xmlns="http://www.w3.org/2000/svg">
<path d="M24.5 0.649997C24.2371 0.66449 24.0466 0.722459 23.9037 0.815622L1.64375 15.6556C1.2566 15.902 1.06197 16.4258 1.19656 16.8647C1.33115 17.3036 1.78041 17.6224 2.24003 17.6099H5.42002V37.7499H2.24003C1.68517 37.7499 1.18003 38.2551 1.18003 38.8099V41.9899C0.625169 41.9899 0.120026 42.4951 0.120026 43.0499V47.2899C0.120026 47.8448 0.625179 48.3499 1.18003 48.3499H47.82C48.3749 48.3499 48.88 47.8448 48.88 47.2899V43.0499C48.88 42.4951 48.3749 41.9899 47.82 41.9899V38.8099C47.82 38.2551 47.3149 37.7499 46.76 37.7499H43.58V17.6099H46.76C47.2196 17.6224 47.6689 17.3035 47.8035 16.8647C47.9381 16.4258 47.7434 15.902 47.3563 15.6556L25.0963 0.815622C24.8893 0.678983 24.7278 0.647925 24.5 0.649997H24.5ZM24.5 2.98528L43.2487 15.4901H5.75125L24.5 2.98528ZM24.5 7.01C22.7568 7.01 21.32 8.44677 21.32 10.19C21.32 11.9332 22.7568 13.37 24.5 13.37C26.2432 13.37 27.68 11.9332 27.68 10.19C27.68 8.44677 26.2432 7.01 24.5 7.01ZM24.5 9.13C25.0983 9.13 25.56 9.59167 25.56 10.19C25.56 10.7883 25.0983 11.25 24.5 11.25C23.9017 11.25 23.44 10.7883 23.44 10.19C23.44 9.59167 23.9017 9.13 24.5 9.13ZM7.54 17.61H9.66V37.75H7.54V17.61ZM11.78 17.61H16.02V37.75H11.78V17.61ZM18.14 17.61H20.26V37.75H18.14V17.61ZM22.38 17.61H26.62V37.75H22.38V17.61ZM28.74 17.61H30.86V37.75H28.74V17.61ZM32.98 17.61H37.22V37.75H32.98V17.61ZM39.34 17.61H41.46V37.75H39.34V17.61ZM3.3 39.87H45.7V41.99H3.3V39.87ZM2.24 44.11H46.76V46.23H2.24V44.11Z" fill="black"/>
</svg>
