<svg width="50" height="50" viewBox="0 0 50 50" fill="none" xmlns="http://www.w3.org/2000/svg">
<path d="M49.5975 48.085L47.5388 1.81779C47.5135 1.23983 47.0368 0.786285 46.4588 0.786285H36.9499C36.372 0.786285 35.8974 1.2398 35.8699 1.81779L34.8553 24.6053L19.1402 18.6653C18.8091 18.5387 18.4357 18.5851 18.1446 18.7855C17.8514 18.988 17.6784 19.3213 17.6784 19.6756V24.6495L1.86667 18.6609C1.5355 18.5343 1.16213 18.5786 0.868912 18.7811C0.577819 18.9815 0.40274 19.3148 0.40274 19.6692V48.1331C0.40274 48.42 0.516648 48.6942 0.719148 48.8967C0.921648 49.0992 1.19587 49.2131 1.48276 49.2131H48.5178C48.8132 49.2131 49.0958 49.0929 49.2983 48.8799C49.5029 48.6668 49.6105 48.3799 49.5978 48.0846L49.5975 48.085ZM2.56245 21.22L17.6825 26.9386V47.0536H13.8476L13.8497 42.491C13.8497 40.2129 12.0019 38.3651 9.72377 38.3651C7.44567 38.3651 5.59785 40.2129 5.59785 42.491V47.0536H2.56245L2.56245 21.22ZM11.6874 47.0368H7.75763V42.4911C7.75763 41.4048 8.63723 40.5252 9.72355 40.5252C10.8078 40.5252 11.6895 41.4048 11.6895 42.4911L11.6874 47.0368ZM45.4266 2.94693L45.8105 11.5869H37.5965L37.9804 2.94693H45.4266ZM19.8419 21.2205L34.7573 26.8797L33.8607 47.0536H31.1291V42.491C31.1291 40.2129 29.2813 38.3651 27.0032 38.3651C24.7251 38.3651 22.8773 40.2129 22.8773 42.491V47.0536H19.8419L19.8419 21.2205ZM28.9668 47.0374H25.0371V42.4917C25.0371 41.4054 25.9167 40.5257 27.003 40.5257C28.0872 40.5257 28.9689 41.4054 28.9689 42.4917L28.9668 47.0374ZM36.2844 47.0374H36.0207L37.4994 13.7135L45.9072 13.7156L47.3859 47.0395L36.2844 47.0374Z" fill="black"/>
</svg>
