<svg width="43" height="51" viewBox="0 0 43 51" fill="none" xmlns="http://www.w3.org/2000/svg">
<path fill-rule="evenodd" clip-rule="evenodd" d="M0.374726 28.7859L0 9.63752C10.0122 8.26074 13.7657 7.1966 21.0882 0C28.4085 7.19634 32.2267 8.26058 42.1763 9.63752L41.8637 28.7859C41.6753 40.7999 30.7252 46.5573 21.0904 50.8742C11.5175 46.5576 0.565065 40.7999 0.379035 28.7859H0.374726ZM21.0861 4.19495C15.8916 9.26307 10.1363 11.2651 3.06395 12.2048L3.25235 25.4071H21.0858L21.0861 4.19495ZM21.0861 47.6221C29.158 43.9928 38.7314 38.7361 38.8575 28.7244L38.9196 25.4078H21.0862L21.0861 47.6221ZM40.5471 11.0171C32.1 9.89086 27.2807 8.32572 21.0861 2.2578C14.8914 8.32789 10.0743 9.89086 1.625 11.0171L1.93761 28.7244C2.12601 39.6742 12.3246 45.1814 21.086 49.1231C29.8453 45.1812 40.0457 39.6742 40.2344 28.7244L40.5471 11.0171Z" fill="black"/>
</svg>
