<svg width="32" height="51" viewBox="0 0 32 51" fill="none" xmlns="http://www.w3.org/2000/svg">
<path d="M28.0596 48.5274L22.954 32.3837L22.8512 32.0687L22.7133 31.6355L22.4027 30.6534L20.7577 25.4559L20.1474 23.5222L20.014 23.1043L20.0031 23.0737L19.5306 21.5709L18.9137 19.6306L18.3011 17.6925L17.6908 15.7522C17.1615 15.9207 16.5906 16.0125 15.9999 16.0125C15.4093 16.0125 14.8384 15.9207 14.309 15.7522L13.6987 17.6925L12.4672 21.571L11.9947 23.0738L11.9837 23.1044L11.8503 23.5222L11.24 25.4559L9.595 30.6534L9.28437 31.6356L9.14656 32.0687L9.04375 32.3837L3.93812 48.5274L3.27312 50.6296H28.7268L28.0596 48.5274ZM21.3306 34.0088L24.94 45.4076L17.4349 37.9025L21.3306 34.0088ZM18.3928 24.7274L18.78 25.9436L19.2831 27.5317L17.4347 25.6855L18.3928 24.7274ZM14.4619 22.0148L15.0875 20.0395L15.7197 18.0445L15.9997 17.163L16.2797 18.0445L16.9119 20.0395L17.5375 22.0148L17.706 22.5442L16.0981 24.152L15.9997 24.2483L14.2934 22.542L14.4619 22.0148ZM13.2194 25.9436L13.6066 24.7273L14.5647 25.6854L12.7162 27.5339L13.2194 25.9436ZM11.3863 31.734L15.9997 27.1205L20.6722 31.793L15.9997 36.4678L11.3578 31.8259L11.3272 31.793L11.3863 31.734ZM10.6688 34.009L14.5647 37.9027L7.05959 45.4078L10.6688 34.009ZM6.74442 48.593L15.9995 39.3379L25.2547 48.593H6.74442Z" fill="black"/>
<path d="M22.0682 5.77919L20.6113 7.23609C21.2325 8.13735 21.6 9.23109 21.6 10.4124C21.6 11.5936 21.2325 12.6874 20.6134 13.5886L22.0703 15.0455C23.0503 13.7571 23.6366 12.1536 23.6366 10.4124C23.6366 8.6712 23.0503 7.06769 22.0682 5.7793V5.77919ZM11.3867 7.23609L9.92982 5.77919C8.94982 7.06764 8.36356 8.67109 8.36356 10.4123C8.36356 12.1535 8.94982 13.757 9.932 15.0454L11.3889 13.5885C10.7676 12.6872 10.4002 11.5935 10.4002 10.4122C10.4002 9.23097 10.7677 8.13724 11.3867 7.23597V7.23609Z" fill="black"/>
<path d="M8.48144 4.3288L7.03989 2.88725C5.32489 4.9238 4.29018 7.55098 4.29018 10.4125C4.29018 13.2741 5.32271 15.901 7.03989 17.9378L8.48144 16.4963C7.13615 14.836 6.32673 12.7184 6.32673 10.413C6.32673 8.10734 7.1361 5.98987 8.48144 4.3297V4.3288ZM24.96 2.88725L23.5184 4.3288C24.8637 5.98909 25.6732 8.10662 25.6732 10.4121C25.6732 12.7177 24.8638 14.8352 23.5206 16.4954L24.9622 17.9369C26.6772 15.9004 27.7119 13.2732 27.7119 10.4116C27.7097 7.55037 26.675 4.92318 24.96 2.88635V2.88725Z" fill="black"/>
<path d="M5.59408 1.44155L4.15253 0C1.70471 2.78029 0.217239 6.43104 0.217239 10.4126C0.217239 14.3942 1.70471 18.0449 4.15253 20.823L5.59408 19.3815C3.50718 16.9752 2.25379 13.8428 2.25379 10.4125C2.25379 6.98034 3.50724 3.84989 5.59408 1.44133V1.44155ZM27.8474 0.00218376L26.4058 1.44155C28.4927 3.85 29.7461 6.98029 29.7461 10.4128C29.7461 13.8449 28.4927 16.9754 26.4058 19.384L27.8452 20.8255C30.2952 18.043 31.7826 14.3945 31.7826 10.4129C31.7826 6.43126 30.2952 2.78062 27.8474 0.00246387V0.00218376Z" fill="black"/>
<path d="M19.5633 10.4126C19.5633 10.5001 19.5589 10.5898 19.548 10.6773C19.548 10.697 19.548 10.7189 19.5436 10.7386V10.7648V10.7758C19.5436 10.8064 19.5392 10.837 19.5326 10.8676C19.5217 10.9595 19.5064 11.0448 19.4911 11.1323C19.4714 11.2286 19.4451 11.3248 19.4189 11.4167C19.408 11.4517 19.3992 11.4823 19.3883 11.5195C19.3576 11.6158 19.3226 11.712 19.2811 11.8039C19.2351 11.9111 19.1848 12.0117 19.1345 12.1145C19.082 12.202 19.0317 12.2917 18.977 12.3748C18.9726 12.3792 18.9661 12.3901 18.9617 12.3945C18.9551 12.4055 18.9508 12.4142 18.942 12.4251C18.8851 12.5126 18.8195 12.598 18.7495 12.6789C18.6773 12.7664 18.603 12.8517 18.5198 12.9326C18.4389 13.0136 18.3514 13.0901 18.2661 13.1623C18.1851 13.2345 18.0976 13.3001 18.0123 13.3548C18.0014 13.3658 17.9926 13.3701 17.9817 13.3745C17.9773 13.3789 17.9664 13.3855 17.962 13.3898C17.8811 13.4467 17.7892 13.497 17.7017 13.5473C17.5026 13.6545 17.2948 13.7398 17.0761 13.812C17.0608 13.8164 17.0455 13.823 17.0301 13.8273C16.9426 13.8536 16.853 13.8733 16.7611 13.893C16.7501 13.893 16.7458 13.8973 16.7348 13.8973C16.7195 13.9017 16.7086 13.9083 16.6933 13.9083C16.5861 13.928 16.4789 13.9433 16.3673 13.9542C16.2492 13.9717 16.1223 13.9761 15.9998 13.9761C15.8773 13.9761 15.7505 13.9717 15.6323 13.9564C15.5208 13.9455 15.4136 13.9301 15.3064 13.9105C15.2911 13.9105 15.2801 13.9061 15.2648 13.8995C15.2539 13.8995 15.2495 13.8951 15.2386 13.8951C15.1467 13.8755 15.0548 13.8536 14.9695 13.8295C14.9542 13.8251 14.9389 13.8186 14.9236 13.8142C14.7048 13.742 14.497 13.6567 14.2979 13.5495C14.2104 13.4992 14.1208 13.4467 14.0376 13.392C14.0333 13.3876 14.0223 13.3811 14.018 13.3767C14.007 13.3723 13.9983 13.3658 13.9873 13.357C13.8998 13.3001 13.8145 13.2345 13.7336 13.1645C13.6461 13.0923 13.5608 13.018 13.4798 12.9348C13.3989 12.8539 13.3223 12.7664 13.2501 12.6811C13.178 12.6001 13.1123 12.5126 13.0576 12.4273C13.0467 12.4164 13.0423 12.4076 13.038 12.3967C13.0336 12.3923 13.027 12.3814 13.0226 12.377C12.9658 12.2961 12.9155 12.2042 12.8651 12.1167C12.8148 12.0139 12.7623 11.9133 12.7186 11.8061C12.677 11.7142 12.642 11.618 12.6114 11.5217C12.6005 11.4867 12.5917 11.4561 12.5808 11.4189C12.5545 11.327 12.5305 11.2308 12.5086 11.1345C12.4933 11.047 12.4779 10.9617 12.467 10.8698C12.4626 10.8392 12.4561 10.8086 12.4561 10.778V10.767V10.7408C12.4517 10.7211 12.4517 10.6992 12.4517 10.6795C12.4408 10.5898 12.4364 10.498 12.4364 10.4127C12.4364 10.3252 12.4408 10.2355 12.4517 10.148C12.4517 10.1283 12.4517 10.1064 12.4561 10.0867V10.0605V10.0495C12.4561 10.0189 12.4604 9.98827 12.467 9.95765C12.4779 9.86578 12.4933 9.78046 12.5086 9.69296C12.5239 9.61203 12.5436 9.53546 12.5698 9.45453C12.5698 9.44359 12.5742 9.42828 12.5808 9.41953C12.5851 9.38453 12.5961 9.34296 12.6114 9.30796C12.642 9.21171 12.677 9.11546 12.7186 9.02359C12.7645 8.9164 12.8148 8.81578 12.8651 8.71296C12.9155 8.62546 12.968 8.53577 13.0226 8.45265C13.027 8.44828 13.0336 8.43734 13.038 8.43296C13.0423 8.42203 13.0489 8.41328 13.0576 8.40234C13.1145 8.31484 13.1801 8.22953 13.2501 8.14859C13.3223 8.06109 13.3967 7.97578 13.4798 7.89484C13.5608 7.81391 13.6483 7.73734 13.7336 7.66516C13.8145 7.59297 13.902 7.52734 13.9873 7.47266C13.9983 7.46172 14.007 7.45734 14.018 7.45297C14.0223 7.44859 14.0333 7.44203 14.0376 7.43766C14.1186 7.38078 14.2104 7.33047 14.2979 7.28016C14.4008 7.22984 14.5014 7.17735 14.6086 7.13359C14.7004 7.09203 14.7967 7.05703 14.8929 7.0264C14.9279 7.01109 14.9695 7.00015 15.0045 6.99578C15.0155 6.9914 15.0308 6.98484 15.0395 6.98484C15.1204 6.95859 15.197 6.9389 15.2779 6.92359C15.3654 6.90827 15.4508 6.89296 15.5426 6.88203C15.5733 6.87765 15.6039 6.87109 15.6345 6.87109H15.6455H15.6717C15.6914 6.86671 15.7133 6.86671 15.733 6.86671C15.8226 6.85359 15.9123 6.84921 15.9998 6.84921C16.0873 6.84921 16.177 6.85359 16.2645 6.86453C16.2842 6.86453 16.3061 6.86452 16.3258 6.8689H16.352H16.363C16.3936 6.8689 16.4242 6.87328 16.4548 6.87984C16.5467 6.89077 16.632 6.90609 16.7195 6.9214C16.8005 6.93671 16.877 6.9564 16.958 6.98265C16.9689 6.98265 16.9842 6.98703 16.993 6.99359C17.028 6.99797 17.0695 7.0089 17.1045 7.02422C17.2008 7.05484 17.297 7.08984 17.3911 7.13141C17.4983 7.17734 17.5989 7.22766 17.7017 7.27797C17.7892 7.32828 17.8811 7.38078 17.962 7.43547C17.9686 7.43984 17.9773 7.44641 17.9817 7.45078C17.9926 7.45516 18.0014 7.46172 18.0123 7.47047C18.0998 7.52734 18.1851 7.59297 18.2661 7.66297C18.3536 7.73516 18.4389 7.80953 18.5198 7.89266C18.6008 7.97359 18.6773 8.06109 18.7495 8.14641C18.8217 8.22734 18.8873 8.31484 18.942 8.40015C18.953 8.41109 18.9573 8.41984 18.9617 8.43078C18.9661 8.43515 18.9726 8.44609 18.977 8.45046C19.0339 8.5314 19.0842 8.62327 19.1345 8.71077C19.1848 8.81359 19.2373 8.91421 19.2811 9.0214C19.3226 9.11327 19.3576 9.20953 19.3883 9.30577C19.4036 9.34077 19.4145 9.38234 19.4189 9.41734C19.4255 9.42828 19.4298 9.44359 19.4298 9.45234C19.4561 9.53327 19.4758 9.60984 19.4911 9.69077C19.5064 9.77827 19.5217 9.86358 19.5326 9.95546C19.537 9.98609 19.5436 10.0167 19.5436 10.0473V10.0583V10.0845C19.548 10.1042 19.548 10.1261 19.548 10.1458C19.5589 10.2333 19.5633 10.3252 19.5633 10.4127L19.5633 10.4126Z" fill="black"/>
</svg>
