<?xml version="1.0" encoding="UTF-8" standalone="no"?>
<svg
   viewBox="0 0 180 178.99431"
   version="1.1"
   id="svg8"
   width="180"
   height="178.99431"
   xmlns="http://www.w3.org/2000/svg"
   xmlns:svg="http://www.w3.org/2000/svg"
   xmlns:rdf="http://www.w3.org/1999/02/22-rdf-syntax-ns#"
   xmlns:cc="http://creativecommons.org/ns#">
  <defs
     id="defs1">
    <style
       id="style1">
            .cls-1 {
                fill: #2d3537;
            }

            .cls-2 {
                fill: #f9b122;
            }
        </style>
  </defs>
  <g
     id="Layer_2"
     data-name="Layer 2"
     style="display:inline"
     transform="scale(0.19604213)">
    <g
       id="g8">
      <g
         id="g10"
         style="fill:#f9b122;fill-opacity:1">
        <circle
           class="cls-2"
           cx="896.42999"
           cy="21.74"
           r="21.74"
           id="circle8"
           style="fill:#f9b122;fill-opacity:1" />
        <circle
           class="cls-2"
           cx="896.42999"
           cy="462.19"
           r="21.74"
           id="circle7"
           style="fill:#f9b122;fill-opacity:1" />
        <circle
           class="cls-2"
           cx="548.59998"
           cy="891.29999"
           r="21.74"
           id="circle6"
           style="fill:#f9b122;fill-opacity:1" />
        <circle
           class="cls-2"
           cx="722.51001"
           cy="238.92"
           r="21.74"
           id="circle5"
           style="fill:#f9b122;fill-opacity:1" />
      </g>
      <g
         id="g9"
         style="fill:#2d3537;fill-opacity:1">
        <path
           class="cls-1"
           d="m 896.42,85.52 a 17.51,17.51 0 0 0 -17.5,17.5 v 277.89 a 17.5,17.5 0 0 0 35,0 V 103 a 17.5,17.5 0 0 0 -17.5,-17.48 z"
           id="path8"
           style="fill:#2d3537;fill-opacity:1" />
        <path
           class="cls-1"
           d="m 896.42,526 a 17.51,17.51 0 0 0 -17.5,17.5 330.45,330.45 0 0 1 -253.11,321.23 17.5,17.5 0 0 0 4.06,34.52 18,18 0 0 0 4.09,-0.48 365,365 0 0 0 280,-355.3 A 17.5,17.5 0 0 0 896.42,526 Z"
           id="path7"
           style="display:inline;fill:#2d3537;fill-opacity:1" />
        <path
           class="cls-1"
           d="M 471.39,864.73 A 329.46,329.46 0 0 1 327.94,789.29 l 36.8,-36.8 A 278.37,278.37 0 0 0 827,543.47 V 21.74 A 17.5,17.5 0 0 0 809.5,4.24 h -87 A 17.5,17.5 0 0 0 705,21.74 v 135.9 a 17.5,17.5 0 0 0 35,0 V 39.24 h 52 v 504.23 a 243.37,243.37 0 0 1 -415.29,172.28 17.51,17.51 0 0 0 -24.74,0 l -61.49,61.49 a 17.52,17.52 0 0 0 0,24.76 364.83,364.83 0 0 0 172.75,96.76 18,18 0 0 0 4.09,0.48 17.5,17.5 0 0 0 4.06,-34.52 z"
           id="path6"
           style="fill:#2d3537;fill-opacity:1" />
        <path
           class="cls-1"
           d="m 531.1,717.38 a 17.5,17.5 0 0 0 17.5,17.5 191.4,191.4 0 0 0 191.4,-191 V 320.61 a 17.5,17.5 0 1 0 -35,0 v 223.23 a 156.41,156.41 0 0 1 -156.41,156 17.51,17.51 0 0 0 -17.49,17.54 z"
           id="path5"
           style="fill:#2d3537;fill-opacity:1" />
      </g>
    </g>
    <g
       id="Camada_1"
       data-name="Camada 1"
       style="fill:#2d3537;fill-opacity:1">
      <path
         class="cls-1"
         d="m 495.14,257.08 h 55.44 v 151.38 a 17.5,17.5 0 0 0 35,0 V 257.08 H 641 a 17.5,17.5 0 1 0 0,-35 H 495.14 a 17.5,17.5 0 0 0 0,35 z"
         id="path4"
         style="fill:#2d3537;fill-opacity:1" />
      <path
         class="cls-1"
         d="m 416.52,426 a 17.49,17.49 0 0 0 17.5,-17.5 V 239.54 a 17.5,17.5 0 1 0 -35,0 v 168.92 a 17.5,17.5 0 0 0 17.5,17.54 z"
         id="path3"
         style="fill:#2d3537;fill-opacity:1" />
      <path
         class="cls-1"
         d="m 333.77,342.64 v -103.1 a 17.5,17.5 0 1 0 -35,0 v 103.1 a 48.65,48.65 0 1 1 -97.29,0 v -103.1 a 17.5,17.5 0 0 0 -35,0 v 103.1 a 83.65,83.65 0 1 0 167.29,0 z"
         id="path2"
         style="fill:#2d3537;fill-opacity:1" />
      <path
         class="cls-1"
         d="m 83.64,222 a 17.5,17.5 0 0 0 -17.5,17.5 v 103.1 a 48.7,48.7 0 0 1 -48.64,48.69 17.5,17.5 0 0 0 0,35 83.74,83.74 0 0 0 83.64,-83.65 V 239.54 A 17.49,17.49 0 0 0 83.64,222 Z"
         id="path1"
         style="fill:#2d3537;fill-opacity:1" />
    </g>
  </g>
  <metadata
     id="metadata10">
    <rdf:RDF>
      <cc:Work
         rdf:about="" />
    </rdf:RDF>
  </metadata>
</svg>
