<svg enable-background="new 0 0 595.3 147.9" viewBox="0 0 595.3 147.9" xmlns="http://www.w3.org/2000/svg" xmlns:xlink="http://www.w3.org/1999/xlink"><linearGradient id="a"><stop offset="0" stop-color="#fd743e"/><stop offset="1" stop-color="#fd3254"/></linearGradient><linearGradient id="b" gradientTransform="matrix(1 0 0 -1 0 145.8995)" gradientUnits="userSpaceOnUse" x1="23.8119" x2="154.9124" xlink:href="#a" y1="61.0473" y2="61.0473"/><linearGradient id="c" gradientTransform="matrix(1 0 0 -1 0 145.8995)" gradientUnits="userSpaceOnUse" x1="42.8181" x2="141.8445" xlink:href="#a" y1="93.9434" y2="111.7681"/><linearGradient id="d" gradientTransform="matrix(1 0 0 -1 0 145.8995)" gradientUnits="userSpaceOnUse" x1="49.0979" x2="148.1243" xlink:href="#a" y1="59.0554" y2="76.8803"/><linearGradient id="e" gradientTransform="matrix(1 0 0 -1 0 145.8995)" gradientUnits="userSpaceOnUse" x1="46.7387" x2="145.7647" xlink:href="#a" y1="72.1631" y2="89.9878"/><linearGradient id="f" gradientTransform="matrix(1 0 0 -1 0 145.8995)" gradientUnits="userSpaceOnUse" x1="53.5994" x2="152.6257" xlink:href="#a" y1="34.0453" y2="51.8702"/><linearGradient id="g" gradientTransform="matrix(1 0 0 -1 0 145.8995)" gradientUnits="userSpaceOnUse" x1="38.1844" x2="137.2103" xlink:href="#a" y1="119.686" y2="137.5107"/><linearGradient id="h" gradientTransform="matrix(1 0 0 -1 0 145.8995)" gradientUnits="userSpaceOnUse" x1="39.7474" x2="138.7738" xlink:href="#a" y1="111.0017" y2="128.8265"/><linearGradient id="i" gradientTransform="matrix(1 0 0 -1 0 145.8995)" gradientUnits="userSpaceOnUse" x1="55.6757" x2="154.7017" xlink:href="#a" y1="22.5116" y2="40.3363"/><linearGradient id="j" gradientTransform="matrix(1 0 0 -1 0 145.8995)" gradientUnits="userSpaceOnUse" x1="58.8095" x2="157.8354" xlink:href="#a" y1="5.1033" y2="22.9281"/><g fill="#303030"><path d="m260 41.4c6.4 0 11.8.8 16.1 2.4 4.4 1.6 7.9 3.8 10.5 6.7s4.5 6.4 5.6 10.5c1.1 4 1.7 8.5 1.7 13.5v50.5c-2.9.7-7.4 1.5-13.5 2.4-6 .9-12.8 1.3-20.4 1.3-4.9 0-9.6-.4-13.7-1.5-4.2-.9-7.6-2.5-10.6-4.6-2.9-2.1-5.2-4.9-6.9-8.3s-2.5-7.6-2.5-12.6c0-4.8.9-8.8 2.8-12.1s4.4-6 7.5-8.1c3.1-2 6.9-3.6 11.1-4.5s8.5-1.3 13.2-1.3c2.1 0 4.4.1 6.7.4 2.4.2 4.8.7 7.5 1.3v-3.1c0-2.2-.2-4.4-.8-6.4s-1.5-3.8-2.8-5.4-3-2.7-5.3-3.6c-2.1-.9-4.9-1.2-8.2-1.2-4.5 0-8.5.3-12.3 1-3.7.7-6.7 1.3-9.1 2.2l-2.4-15.6c2.5-.9 6-1.7 10.7-2.6 4.8-.9 9.7-1.3 15.1-1.3zm1.6 72c6 0 10.5-.3 13.6-.9v-21.4c-1-.3-2.6-.7-4.6-.9-2-.3-4.3-.4-6.7-.4-2.1 0-4.3.1-6.4.4s-4.2.9-5.8 1.8c-1.8.9-3.1 2-4.3 3.6-1 1.6-1.6 3.5-1.6 5.8 0 4.6 1.5 7.8 4.3 9.4 2.7 1.7 6.6 2.6 11.5 2.6z"/><path d="m335.8 19.1c0 3.6-1.1 6.5-3.5 8.7s-5.1 3.1-8.3 3.1c-3.3 0-6.1-1-8.4-3.1-2.4-2.1-3.5-4.9-3.5-8.7s1.1-6.6 3.5-8.8c2.4-2.1 5.2-3.1 8.4-3.1 3.1 0 6 1 8.3 3.1 2.3 2.2 3.5 5.1 3.5 8.8zm-2.1 107.9h-19.3v-83.5h19.3z"/><path d="m379.8 127c-5.3-10.9-10.8-23.5-16.4-37.8-5.6-14.2-10.7-29.5-15.3-45.6h20.6c1.1 4.7 2.6 9.7 4 15.1 1.6 5.4 3.1 10.8 4.9 16.1 1.8 5.4 3.6 10.6 5.4 15.6 1.9 5.1 3.6 9.6 5.2 13.6 1.6-4 3.3-8.5 5.2-13.6 1.8-5.1 3.6-10.2 5.4-15.6s3.5-10.8 5.1-16.1c1.6-5.4 3-10.3 4.2-15.1h19.9c-4.6 16.3-9.7 31.5-15.3 45.6-5.6 14.2-11.1 26.8-16.4 37.8z"/><path d="m432.4 85.6c0-7.3 1.1-13.7 3.3-19.3 2.1-5.5 5.1-10.1 8.7-13.8s7.8-6.4 12.5-8.3 9.4-2.8 14.4-2.8c11.5 0 20.5 3.6 26.9 10.7s9.7 17.8 9.7 31.9c0 1 0 2.2-.1 3.6 0 1.3-.1 2.5-.2 3.6h-55c.6 6.7 2.9 11.9 7.1 15.5 4.2 3.7 10.3 5.5 18.2 5.5 4.7 0 9-.4 12.8-1.2 3.9-.9 7-1.8 9.2-2.7l2.6 15.7c-1 .6-2.5 1.1-4.4 1.7s-3.9 1.1-6.4 1.6c-2.4.4-4.9.9-7.8 1.2-2.8.3-5.6.4-8.4.4-7.3 0-13.7-1.1-19.1-3.3-5.4-2.1-9.9-5.2-13.4-9.1s-6.1-8.4-7.9-13.7c-1.8-5.2-2.7-10.9-2.7-17.2zm56-8.6c0-2.7-.3-5.2-1.1-7.5-.8-2.4-1.8-4.5-3.3-6.2-1.5-1.8-3.1-3.1-5.3-4.2-2-1-4.5-1.5-7.4-1.5s-5.6.6-7.9 1.7c-2.2 1.1-4.2 2.6-5.6 4.4-1.6 1.8-2.7 3.9-3.6 6.2-.9 2.4-1.5 4.7-1.8 7.2h36z"/><path d="m524.9 46.2c3.7-1 8.5-2 14.5-3s12.6-1.5 19.8-1.5c6.9 0 12.5.9 17.1 2.8s8.2 4.5 10.9 7.9 4.6 7.4 5.7 12.1 1.7 9.9 1.7 15.5v47h-19.3v-43.9c0-4.5-.3-8.3-.9-11.4s-1.6-5.7-2.9-7.6-3.1-3.4-5.4-4.3c-2.2-.9-5.1-1.3-8.3-1.3-2.5 0-4.9.1-7.6.4s-4.6.6-5.8.8v67.3h-19.3v-80.8z"/></g><path d="m139.1 99.9c3.1 0 6.2.6 9 1.6 4.5-5.2 6.9-10.8 6.9-16.6 0-9.6-6.5-18.8-18.2-26-12.6-7.6-29.5-11.9-47.3-11.9-18 0-34.9 4.3-47.3 11.9-11.8 7.2-18.2 16.4-18.2 26 0 5.8 2.4 11.5 6.9 16.6 2.8-1 5.8-1.6 9-1.6 7.1 0 13.7 2.7 18.7 7.8 3.5 3.5 5.8 7.8 7 12.5 7.5 1.8 15.6 2.7 24.1 2.7s16.4-.9 24.1-2.7c1.1-4.6 3.5-9 7-12.5 4.5-5 11.2-7.8 18.3-7.8zm-49.7-22.1c-8.1 0-14.7-6.6-14.7-14.7h29.5c-.1 8.1-6.7 14.7-14.8 14.7z" fill="url(#b)"/><path d="m38.3 52c1.5-.9 2.9-1.7 4.4-2.5h-.1c-3.7-2.8-8.1-4.2-12.5-4.2-6.3 0-12.5 2.8-16.5 8.2l-1.7 2.4 11.7 8.8c3.7-4.8 8.6-9 14.7-12.7z" fill="url(#c)"/><path d="m23.8 105.1c-3.9-5.1-6.4-10.6-7.1-16.3-.2-1.3-.3-2.7-.3-4 0-6.7 2.2-13.2 6.4-19h-1.5c-11.5 0-20.7 9.3-20.7 20.7v2.9h15.4c-4 3.4-6.6 8-7.3 13.2-.8 5.5.7 10.9 4 15.3l1.2 1.7c1.1-4.5 3.5-8.5 6.9-11.9 1-1 2-1.8 3-2.6z" fill="url(#d)"/><path d="m155 64.7 11.7-8.8-1.7-2.4c-4-5.4-10.2-8.2-16.5-8.2-4.4 0-8.7 1.3-12.5 4.2h-.1c1.5.8 3 1.6 4.4 2.5 6.2 3.7 11.1 7.9 14.7 12.7z" fill="url(#e)"/><path d="m178.1 86.5c0-11.5-9.3-20.7-20.7-20.7h-1.6c4.3 5.8 6.4 12.4 6.4 19 0 1.3-.1 2.7-.3 4-.8 5.7-3.3 11.2-7.1 16.3 1 .8 2 1.6 2.9 2.5 3.4 3.4 5.7 7.4 6.9 11.9l1.2-1.7c3.4-4.4 4.8-9.9 4-15.3-.7-5.2-3.3-9.9-7.3-13.2h15.5v-2.9h.1z" fill="url(#f)"/><path d="m64.4 42.2c11.5 0 20.7-9.3 20.7-20.7 0-11.5-9.3-20.7-20.7-20.7-11.5 0-20.7 9.3-20.7 20.7s9.3 20.7 20.7 20.7zm0-32.1s.1 0 0 0c-1.3 1.5-2.2 3.5-2.2 5.7 0 4.4 3.6 8 8 8 2.2 0 4.3-.9 5.7-2.4v.1c0 6.3-5.1 11.4-11.4 11.4s-11.4-5.1-11.4-11.4c-.1-6.3 5-11.4 11.3-11.4z" fill="url(#g)"/><path d="m114.2 42.2c11.5 0 20.7-9.3 20.7-20.7 0-11.5-9.3-20.7-20.7-20.7-11.5 0-20.7 9.3-20.7 20.7s9.4 20.7 20.7 20.7zm0-32.1c.1 0 .1 0 0 0-1.3 1.5-2.2 3.5-2.2 5.7 0 4.4 3.6 8 8 8 2.2 0 4.3-.9 5.7-2.4v.1c0 6.3-5.1 11.4-11.4 11.4-6.3.1-11.3-5-11.3-11.3-.1-6.4 5-11.5 11.2-11.5z" fill="url(#h)"/><path d="m39.7 105.6c-11.5 0-20.7 9.2-20.7 20.7s9.2 20.7 20.7 20.7c2.4 0 4.7-.4 6.9-1.2-.2-.2-.4-.3-.6-.6-6-6-8.1-13.7-4.5-17.2 3.5-3.5 11.2-1.5 17.2 4.5.2.2.3.4.6.6.8-2.1 1.2-4.4 1.2-6.9-.1-11.3-9.5-20.6-20.8-20.6z" fill="url(#i)"/><path d="m139.1 105.6c-11.5 0-20.7 9.2-20.7 20.7 0 2.4.4 4.7 1.2 6.9.2-.2.3-.4.6-.6 6-6 13.7-8.1 17.2-4.5 3.5 3.5 1.5 11.2-4.5 17.2-.2.2-.3.3-.6.6 2.1.8 4.4 1.2 6.9 1.2 11.5 0 20.7-9.2 20.7-20.7-.2-11.5-9.4-20.8-20.8-20.8z" fill="url(#j)"/></svg>