<svg height="64" viewBox="0 0 311.968 64" width="311.968" xmlns="http://www.w3.org/2000/svg"><g transform="translate(-.002)"><path d="m71.386 47.08a108.787 108.787 0 0 1 -25.633-44.77 3.086 3.086 0 0 0 -2.992-2.31h-13.256a3.138 3.138 0 0 0 -2.991 2.31 108.787 108.787 0 0 1 -25.633 44.77 3.241 3.241 0 0 0 -.469 3.79l6.628 11.548a3.142 3.142 0 0 0 3.46 1.482 107.405 107.405 0 0 1 25.633-3.139 104.471 104.471 0 0 1 25.633 3.139 3.063 3.063 0 0 0 3.461-1.48l6.628-11.55a3.264 3.264 0 0 0 -.469-3.79zm-14.664 9.712-46.632-10.008a.413.413 0 0 1 -.235-.651l31.909-35.77a.386.386 0 0 1 .645.118l14.782 45.778a.43.43 0 0 1 -.469.533z" fill="#fa4616"/><g fill="#005776"><path d="m172.777 18-18.477 42.233h8.622l4.223-9.854h18.535l4.165 9.854h8.8l-18.478-42.233zm-2.577 24.87 6.159-14.312 6.218 14.312z" transform="translate(-60.825 -7.138)"/><path d="m248.929 18.5h-8.329v41.939h29.8v-7.684h-21.471z" transform="translate(-96.505 -7.345)"/><path d="m361.877 18-18.477 42.233h8.564l4.223-9.854h18.535l4.165 9.854h8.8l-18.478-42.233zm-2.577 24.87 6.159-14.312 6.218 14.312z" transform="translate(-139.006 -7.138)"/><path d="m255.66 11.155h8.271v41.939h-8.271z"/><path d="m490 44.719c5.983-1.936 9.385-6.511 9.385-12.728 0-8.329-6.042-13.491-15.72-13.491h-18.765v41.939h8.271v-14.253h8.095l10.089 14.253h9.854zm-16.829-18.535h9.854c5.1 0 7.919 2.229 7.919 6.276 0 3.871-2.991 6.335-7.86 6.335h-9.913z" transform="translate(-189.239 -7.345)"/><path d="m287.1 18.5v7.977h12.9v33.962h8.505v-33.962h12.9v-7.977z" transform="translate(-115.729 -7.345)"/></g></g></svg>