<svg height="141" viewBox="0 0 1149 141" width="1149" xmlns="http://www.w3.org/2000/svg"><g fill="none" fill-rule="evenodd"><g transform="translate(264)"><g fill="#4d4e5a"><path d="m.8 105.4v-104.9h40c19.1 0 32 7.2 32 27.3 0 9.5-3.1 17.1-11.9 21.4v.3c15.4 1.9 22 12.1 22 26.7 0 22-19.3 29.2-39 29.2zm28-63.7h3.1c7.4 0 15.1-1.3 15.1-10.2 0-9.6-8.7-10.2-16.3-10.2h-2zm0 42.8h3.6c8.3 0 22.3.4 22.3-11.1 0-12.7-13.9-11.4-23-11.4h-2.9z"/><path d="m172.8 70.2c0 22.5-19.1 35.2-40.9 35.2-21.7 0-40.9-12.6-40.9-35.2s19.1-35.4 40.9-35.4 40.9 12.8 40.9 35.4zm-56.4 0c0 8.4 5.7 14.8 15.5 14.8s15.5-6.5 15.5-14.8c0-8.1-5.7-15-15.5-15s-15.5 6.8-15.5 15z"/><path d="m260.5 70.2c0 22.5-19.1 35.2-40.9 35.2-21.7 0-40.9-12.6-40.9-35.2s19.1-35.4 40.9-35.4 40.9 12.8 40.9 35.4zm-56.4 0c0 8.4 5.7 14.8 15.5 14.8s15.5-6.5 15.5-14.8c0-8.1-5.7-15-15.5-15s-15.5 6.8-15.5 15z"/><path d="m295.5 63.1 26.1-28.2h33l-35.1 35 36.2 35.6h-33.8l-26.4-27v27h-24.1v-105h24.1z"/><path d="m388.1 13.8c0 7.2-6.1 13.2-13.5 13.2s-13.5-5.9-13.5-13.2 6.1-13.2 13.5-13.2 13.5 6 13.5 13.2zm-1.4 91.6h-24.1v-70.7h24.1z"/><path d="m426.7 45.5h.3c5.6-8 12.3-10.7 21.7-10.7 18.3 0 25.6 11.2 25.6 27.5v43.1h-24.1v-34.4c0-6.3 1.1-17.4-10.9-17.4-9.8 0-12.6 7.1-12.6 15.4v36.5h-24.1v-70.7h24.1z"/><path d="m564.7 99c0 29.3-14.3 41.1-39.4 41.1-15.6 0-36.6-8.2-38.7-26.4h27c.7 2.4 2.4 4.2 4.5 5.2 2.1 1.1 4.6 1.6 6.9 1.6 13 0 15.5-8.6 15.5-19.8v-3.2c-6.2 6.3-12.6 8.3-21.6 8.3-19.9 0-33.5-14.2-33.5-34.1 0-20.2 14-37.4 34.8-37.4 8 0 15.2 2.7 20 9.5h.3v-9h24.1v64.2zm-54.3-28.3c0 8.7 5.7 15.5 15.5 15.5s15.5-6.7 15.5-15.5c0-8.5-5.7-15.6-15.5-15.6s-15.5 7.2-15.5 15.6z"/></g><g fill="#139bd7"><path d="m635.5 28.9c-4.9-4-11.1-6.6-17.6-6.6-4.9 0-11.4 2.8-11.4 8.3 0 5.8 7.2 8 11.8 9.5l6.8 2c14.2 4.1 25.2 11.1 25.2 27.2 0 9.9-2.4 20-10.6 26.8-8 6.6-18.7 9.4-29 9.4-12.9 0-25.5-4.2-35.9-11.3l11.4-20.8c6.6 5.7 14.5 10.3 23.6 10.3 6.2 0 12.9-3 12.9-10 0-7.2-10.4-9.8-16.1-11.3-16.7-4.6-27.6-8.8-27.6-28.1 0-20.2 14.8-33.3 35.2-33.3 10.3 0 22.9 3.2 31.9 8.2z"/><path d="m651.5 35h27.8l18.2 37.1 17.8-37.1h27.4l-54.5 105.1h-27l23.2-43.8z"/><path d="m772.2 45.5h.3c5.6-8 12.3-10.7 21.7-10.7 18.3 0 25.6 11.2 25.6 27.5v43.1h-24.1v-34.4c0-6.3 1.1-17.4-10.9-17.4-9.8 0-12.6 7.1-12.6 15.4v36.5h-24.1v-70.7h24.1z"/><path d="m884.7 58.6c-3.6-2.6-7.8-4.6-12.5-4.6-9.3 0-16.6 7-16.6 16.1 0 9.5 7 16.3 17 16.3 4.2 0 8.9-1.7 12.1-4.5v19.9c-5.3 2.6-11.1 3.7-17 3.7-20.1 0-37-14.6-37-34.6 0-21.3 16.7-36 38-36 5.6 0 11.1 1.3 15.9 3.9v19.8z"/></g></g><g fill="#139bd7" transform="translate(0 1)"><path d="m117.4 140c-14.6 0-29.1-4.2-40.7-11.7-12.9-8.3-22-20.4-26.6-34.9-.5-1.5.2-3 1.6-3.7.4-.2.9-.3 1.4-.3 1 0 1.9.5 2.5 1.3 14.6 20.4 36.8 32.2 61.1 32.2s46.5-11.7 61-32.2c.6-.9 1.6-1.3 2.6-1.3.5 0 .9.1 1.4.3 1.4.7 2.1 2.2 1.6 3.7-4.4 14.7-13.4 26.9-25.9 35.1-11.6 7.5-25.3 11.5-40 11.5z"/><path d="m94 51c-.5 0-.9-.1-1.4-.3l-44-21.6-44 21.6c-.4.2-.9.3-1.4.3-1 0-1.9-.5-2.5-1.3-.9-1.3-.7-3 .4-4l45.3-44.7c.6-.6 1.4-.9 2.2-.9s1.6.3 2.2.9l45.4 44.6c1.1 1.1 1.2 2.8.4 4-.7.9-1.7 1.4-2.6 1.4z"/><path d="m139.4 51c-1 0-1.9-.5-2.5-1.3-.9-1.3-.7-3 .4-4l45.3-44.7c.6-.6 1.4-.9 2.2-.9s1.6.3 2.2.9l45.4 44.6c1.1 1.1 1.2 2.8.4 4-.6.8-1.6 1.3-2.5 1.3-.5 0-.9-.1-1.4-.3l-44-21.6-44 21.6c-.6.3-1.1.4-1.5.4z"/></g></g></svg>