<svg height="295" preserveAspectRatio="xMidYMid meet" viewBox="0 0 11510 2950" width="1151" xmlns="http://www.w3.org/2000/svg"><g fill="#325ab4"><path d="m6068 2388-3-553-192-3-193-2v-80-80h748c728 0 748 1 780 20 18 11 41 34 52 52 19 32 20 52 20 561v527h-220-220v-80-80h140 140v-403c0-379-1-405-18-420s-62-17-445-17h-427v555 555h-80-80z"/><path d="m4150 2840v-80h205 205v-255-255h-465-465v-80-80h456 456l174-162c108-100 174-167 172-177-3-14-56-16-506-19l-502-2v-80-80h570c629 0 622-1 660 62 24 39 26 88 5 127-7 15-83 92-167 171-84 78-154 146-156 151s125 9 292 9h296v80 80h-330-330v335 335h-285-285z"/><path d="m7570 2814v-84l45-11 45-11v-379-379h80 80v356 356l36-7c20-3 47-10 60-15l24-10v-400-400h-155-155v-380-380h283c256 0 286 2 324 20 25 11 51 33 63 52 19 31 20 50 20 361v327h-110-110v110 110h110 110v80 80h-110-110v190c0 105 3 190 8 190 7 0 176-44 215-56 15-5 17 3 17 79v84l-217 56c-120 31-293 77-385 101l-168 44zm590-1348c0-200 0-205-22-220-18-13-54-16-185-16h-163v213c0 118 3 217 7 220 3 4 87 7 185 7h178z"/><path d="m8450 2810v-80h64c78 0 113-12 126-42 7-18 61-1433 60-1590v-38h80 80v54c0 84-49 1554-54 1618-9 118-69 157-243 158h-113z"/><path d="m8980 1975v-915h80 80l2 833 3 832 133 3 132 3v79 80h-215-215z"/><path d="m11060 2800v-80h140 140v-658c0-626-1-660-18-675-16-15-45-17-195-17-97 0-177 3-177 6 0 9-188 1402-196 1447l-6 37h-84-85l6-32c3-18 48-341 100-718s97-697 100-712l5-28h-95-95v-80-80h105 104l6-32c3-18 9-53 13-78l8-45 83-3c67-2 82 0 78 11-3 7-8 44-12 80l-7 67h206c227 0 242 3 290 60l26 32v789 789h-220-220z"/><path d="m9660 2843c0-19 147-1017 155-1050 5-23 4-23-105-23h-110v-80-80h460 460v80 80h-269-269l-6 33c-10 53-126 868-126 883 0 12 37 14 209 14 196 0 210-1 235-21l26-20v-175-174h80 80v226c0 210-2 229-20 259-39 64-49 65-444 65-324 0-356-1-356-17z"/><path d="m10 1649c0-588 3-1069 8-1069 4 0 109 26 234 57l228 58v953c0 523-2 952-4 952-3 0-109 27-235 59l-231 59z"/><path d="m8400 2448c0-18 11-152 25-298s25-275 25-287c0-22 4-23 80-23 57 0 80 4 80 13 0 6-12 150-27 320l-28 307h-77-78z"/><path d="m9260 2474c0-11-50-541-55-586l-6-48h80 80l5 33c5 31 56 574 56 596 0 7-28 11-80 11-44 0-80-3-80-6z"/><path d="m8466 1628c-8-45-46-381-46-402 0-13 13-16 80-16 57 0 80 4 80 13 0 14 36 329 45 395l6 42h-80-80z"/><path d="m9205 1623c10-69 45-378 45-395 0-16 11-18 80-18 67 0 80 3 80 16 0 21-38 357-46 402l-5 32h-80-79z"/><path d="m5918 1448-3-113-157-3-158-3v-79-80h160 160v-55-55h80 80v55 55h400 400v-55-55h80 80v55 55h185 185v80 80h-185-185v115 115h-80-79l-3-112-3-113-397-3-398-2v115 115h-80-79z"/><path d="m3630 1340v-170h400 400v-55-55h80 80v55 54l358 3c336 3 359 4 391 23 57 34 71 73 71 202v113h-80-80v-74c0-66-3-77-22-90-20-14-106-16-730-16h-708v90 90h-80-80z"/><path d="m9690 1180v-80h370 370v80 80h-370-370z"/><path d="m4349 813c11-27 29-70 40-96l21-49-91-216c-50-120-93-223-96-229-4-10 10-13 49-13h54l70 176c64 162 70 174 79 148 6-15 37-93 70-173l60-146 93-3 92-3v-54-55h50 50v55 55h35c34 0 35 1 35 40s-1 40-35 40h-35v149c0 158 1 161 51 161 16 0 19 7 19 46v47l-56-7c-31-3-64-11-75-16-29-16-39-74-39-232v-148h-58-58l-125 285-124 285h-47-48z"/><path d="m5215 683c-89-21-142-59-178-127-30-57-29-174 1-233 53-102 171-147 297-112 82 22 155 128 155 223v36h-190c-209 0-209 0-173 60 49 83 178 92 260 18 23-21 46-16 73 17 11 13 9 20-15 45-51 53-164 89-230 73zm170-305c-19-62-95-105-166-93-46 8-109 63-109 95 0 19 7 20 141 20h140z"/><path d="m7370 681c-74-15-136-66-164-133-10-22-16-67-16-111 0-65 4-79 33-127 71-119 233-147 356-62 12 9 9 16-15 44l-30 34-44-24c-80-42-156-16-192 65-23 51-20 111 7 164 36 68 131 90 198 45l35-24 26 27c14 15 26 31 26 37 0 25-137 81-179 73-3-1-22-4-41-8z"/><path d="m7830 681c-115-23-190-118-190-242 0-136 99-238 229-239 141 0 234 81 248 216l6 54h-192-191v26c0 17 12 38 35 60 60 57 146 58 223 4l43-30 30 20c16 12 29 25 29 29s-12 19-27 34c-55 52-166 83-243 68zm179-311c-23-66-106-103-179-81-42 12-90 61-90 92 0 18 9 19 139 19h140z"/><path d="m6314 657c-95-46-142-133-131-247 7-77 43-141 100-174 78-46 184-46 252 0 44 30 45 30 45-1 0-22 4-25 40-25h40v230 230h-45c-38 0-45-3-45-20 0-25-5-25-47 1-54 34-145 36-209 6zm195-84c90-68 86-212-9-267-41-24-119-25-155-2-66 44-88 159-42 227 45 68 143 88 206 42z"/><path d="m3730 334v-337l142 6c122 5 148 9 187 30 98 50 123 179 50 256-14 15-19 26-12 28 51 17 102 99 103 163 0 53-38 120-88 155l-44 30-169 3-169 3zm341 208c18-20 29-43 29-62s-11-42-29-62c-29-33-30-33-135-36l-106-4v102 102l106-4c105-3 106-3 135-36zm-78-265c45-19 60-41 60-88 0-31-7-47-26-67-23-22-36-26-111-30l-86-5v102 101h65c36 0 80-6 98-13z"/><path d="m5610 335v-335h68c325 0 462 110 450 361-10 214-133 309-399 309h-119zm306 217c80-41 114-105 114-212 0-84-17-130-64-175-47-46-88-61-193-71l-73-7v248 247l88-4c63-3 98-10 128-26z"/><path d="m6750 440v-230h45c34 0 45 4 45 16 0 9 3 14 8 12 112-58 194-47 255 33 29 39 37 92 37 252v147h-45-45v-132c-1-208-19-253-106-253-39 0-50 5-75 33l-29 32v160 160h-45-45z"/></g><path d="m1753 2413-213-56v-511-511l228-58c125-32 230-58 235-57 4 0 7 281 7 625v625l-22-1c-13 0-119-26-235-56z" fill="#00c8d2"/><path d="m760 2156c0-344 3-626 8-626 4-1 109 25 235 57l227 58-2 509-3 509-204 53c-112 29-217 56-232 59l-29 7z" fill="#3c8cff"/><path d="m2290 1645c0-1135 1-1196 18-1191 9 3 98 26 197 51 99 26 197 51 218 56l37 10-2 1076-3 1077-203 52c-111 29-216 55-232 59l-30 7z" fill="#78e6dc"/></svg>