<svg xmlns="http://www.w3.org/2000/svg" viewBox="0 0 640 150"><defs><style>.a{fill:#fff;}.b{fill:#fad45b;}.c{fill:#9ecd6f;}.d{fill:#ee5e82;}.e{fill:#65c4d8;}</style></defs><path class="a" d="M196,48.54a23.36,23.36,0,0,1,9.88,9.35,28.07,28.07,0,0,1,3.49,14.22,27.4,27.4,0,0,1-3.49,14.09A23,23,0,0,1,196,95.36a33.09,33.09,0,0,1-14.9,3.18h-17.4V45.29h17.4A32.45,32.45,0,0,1,196,48.54Zm-.57,37.82q5-5.06,5-14.25t-5-14.49q-5-5.2-14.33-5.21h-8.66v39h8.66Q190.48,91.41,195.46,86.36Z"/><path class="a" d="M256.9,80.69H224.64a11.67,11.67,0,0,0,3.75,8.12,11.88,11.88,0,0,0,8.28,3.06q7.05,0,10-5.9h9.42a18.94,18.94,0,0,1-6.93,9.54,20.35,20.35,0,0,1-12.45,3.72,21.63,21.63,0,0,1-10.85-2.72,19.33,19.33,0,0,1-7.5-7.66,23.34,23.34,0,0,1-2.72-11.46,23.92,23.92,0,0,1,2.64-11.45,18.58,18.58,0,0,1,7.43-7.63,22.21,22.21,0,0,1,11-2.68,21.49,21.49,0,0,1,10.65,2.61,18.42,18.42,0,0,1,7.28,7.31,22.15,22.15,0,0,1,2.6,10.85A27.94,27.94,0,0,1,256.9,80.69Zm-8.82-7a10,10,0,0,0-3.44-7.74A12.36,12.36,0,0,0,236.28,63a11.22,11.22,0,0,0-7.73,2.87,12,12,0,0,0-3.84,7.78Z"/><path class="a" d="M304.85,80.69H272.59a11.67,11.67,0,0,0,3.75,8.12,11.88,11.88,0,0,0,8.28,3.06q7,0,10-5.9H304a19,19,0,0,1-6.93,9.54,20.35,20.35,0,0,1-12.45,3.72,21.63,21.63,0,0,1-10.85-2.72,19.33,19.33,0,0,1-7.5-7.66,23.34,23.34,0,0,1-2.73-11.46,23.92,23.92,0,0,1,2.65-11.45,18.58,18.58,0,0,1,7.43-7.63,22.21,22.21,0,0,1,11-2.68,21.49,21.49,0,0,1,10.65,2.61,18.42,18.42,0,0,1,7.28,7.31,22.15,22.15,0,0,1,2.6,10.85A27.94,27.94,0,0,1,304.85,80.69Zm-8.82-7a10,10,0,0,0-3.44-7.74A12.36,12.36,0,0,0,284.23,63a11.26,11.26,0,0,0-7.74,2.87,12.05,12.05,0,0,0-3.83,7.78Z"/><path class="a" d="M327.85,57.62a18.57,18.57,0,0,1,8.66-2A19.15,19.15,0,0,1,353.75,66a23.71,23.71,0,0,1,2.6,11.26,24.43,24.43,0,0,1-2.6,11.38,19.49,19.49,0,0,1-7.17,7.81,18.85,18.85,0,0,1-10.07,2.8,18.4,18.4,0,0,1-8.59-2,19.47,19.47,0,0,1-6.13-4.87v26.21h-8.73V56.32h8.73v6.21A17.85,17.85,0,0,1,327.85,57.62Zm17.81,12.07a12.33,12.33,0,0,0-4.75-4.83,12.84,12.84,0,0,0-6.32-1.64,12.38,12.38,0,0,0-6.24,1.68,12.55,12.55,0,0,0-4.75,4.91,15.16,15.16,0,0,0-1.81,7.58A15.43,15.43,0,0,0,323.6,85a12.44,12.44,0,0,0,11,6.62,12.31,12.31,0,0,0,6.32-1.72,12.66,12.66,0,0,0,4.75-5,15.71,15.71,0,0,0,1.8-7.66A15.09,15.09,0,0,0,345.66,69.69Z"/><path class="a" d="M394.79,57.7a14.68,14.68,0,0,1,6,6.13A20.43,20.43,0,0,1,403,73.64v24.9H394.3V74.94q0-5.67-2.84-8.7a11.47,11.47,0,0,0-15.51,0q-2.88,3-2.88,8.7v23.6h-8.73V41.84h8.73V61.22a14.71,14.71,0,0,1,5.63-4.13,18.89,18.89,0,0,1,7.47-1.46A17.67,17.67,0,0,1,394.79,57.7Z"/><path class="a" d="M412.9,66a19.24,19.24,0,0,1,17.28-10.35,18.3,18.3,0,0,1,8.69,2,17.59,17.59,0,0,1,5.94,4.86V56.32h8.81V98.54h-8.81V92.26a17.4,17.4,0,0,1-6.05,5,19.6,19.6,0,0,1-18.7-.81,19.83,19.83,0,0,1-7.16-7.81,24.09,24.09,0,0,1-2.65-11.38A23.38,23.38,0,0,1,412.9,66ZM443,69.81a12.67,12.67,0,0,0-4.71-4.91A12.37,12.37,0,0,0,432,63.22a12.64,12.64,0,0,0-6.29,1.64A12.44,12.44,0,0,0,421,69.69a15.09,15.09,0,0,0-1.8,7.55A15.71,15.71,0,0,0,421,84.9a12.66,12.66,0,0,0,4.75,5A12.19,12.19,0,0,0,432,91.64,12.37,12.37,0,0,0,438.3,90,12.55,12.55,0,0,0,443,85a15.54,15.54,0,0,0,1.8-7.63A15.26,15.26,0,0,0,443,69.81Z"/><path class="a" d="M482.11,90.73l11.95-34.41h9.28l-16.1,42.22H476.82l-16-42.22h9.35Z"/><path class="a" d="M548.09,80.69H515.83a11.71,11.71,0,0,0,3.75,8.12,11.88,11.88,0,0,0,8.28,3.06q7,0,10-5.9h9.42a18.88,18.88,0,0,1-6.93,9.54,20.35,20.35,0,0,1-12.45,3.72A21.57,21.57,0,0,1,517,96.51a19.29,19.29,0,0,1-7.51-7.66,23.34,23.34,0,0,1-2.72-11.46,23.92,23.92,0,0,1,2.64-11.45,18.58,18.58,0,0,1,7.43-7.63,22.23,22.23,0,0,1,11-2.68,21.49,21.49,0,0,1,10.65,2.61,18.35,18.35,0,0,1,7.28,7.31,22,22,0,0,1,2.6,10.85A27.94,27.94,0,0,1,548.09,80.69Zm-8.81-7a10,10,0,0,0-3.45-7.74A12.33,12.33,0,0,0,527.48,63a11.22,11.22,0,0,0-7.74,2.87,12,12,0,0,0-3.83,7.78Z"/><path class="a" d="M587,57.7a14.76,14.76,0,0,1,6.17,6.13,20.2,20.2,0,0,1,2.22,9.81v24.9h-8.66V74.94c0-3.78-1-6.68-2.83-8.7a10.13,10.13,0,0,0-7.74-3,10.24,10.24,0,0,0-7.78,3c-1.92,2-2.87,4.92-2.87,8.7v23.6h-8.74V56.32h8.74v4.83A14.4,14.4,0,0,1,571,57.09a17.58,17.58,0,0,1,7.09-1.46A18.94,18.94,0,0,1,587,57.7Z"/><rect class="b" x="35.37" y="87.71" width="29.93" height="29.93"/><rect class="a" x="65.3" y="27.85" width="29.93" height="29.93"/><rect class="c" x="65.3" y="87.71" width="29.93" height="29.93"/><rect class="d" x="95.23" y="57.78" width="29.93" height="29.93"/><rect class="e" x="35.37" y="27.85" width="29.93" height="59.86"/></svg>