<svg xmlns="http://www.w3.org/2000/svg" viewBox="0 0 800 267.84"><defs><style>.cls-1{fill:#081123;}</style></defs><title>logo-big</title><g id="Layer_2" data-name="Layer 2"><g id="Layer_1-2" data-name="Layer 1"><path class="cls-1" d="M111.44,62.42v17H23.23v39.77h4c28.15,0,56.3,0,84.44-.07,3.28,0,4.38.86,4.19,4.16-.27,4.64-.07,9.3-.07,14.28H1.56v-3.82Q1.56,70,1.49,6.19c0-3.2.77-4.25,4.14-4.25q53,.19,106,0c3.25,0,4.41.81,4.22,4.15-.27,4.74-.07,9.5-.07,14.59H23.29V62.42Z"/><path class="cls-1" d="M707.59,55.6c3-3.4,5.73-6.91,8.89-10C736.83,26,785.67,29.06,797.29,70.23c5.17,18.31,3.27,36.1-8.56,51.55-12.47,16.31-29.84,21.14-49.63,18.22a40.85,40.85,0,0,1-28.57-17.5,8.85,8.85,0,0,1-.7-1.53l-1.3.55c0,4.39-.15,8.79.05,13.17.11,2.62-.85,3.31-3.35,3.24-5.55-.16-11.11-.05-17.1-.05v-4.07q0-64.82-.08-129.63c0-3.27.86-4.36,4.17-4.16,4.55.27,9.12.15,13.68,0,2.14,0,3,.56,3,2.87-.08,15.57,0,31.15-.1,46.73,0,2-.79,3.92-1.23,6m36.42,67c21.3,0,35.52-14.08,35.53-35.19S765.24,52.2,744,52.19,708.49,66.45,708.5,87.44s14.28,35.2,35.51,35.2"/><path class="cls-1" d="M220.83,55c-.22-3.72-.63-7.62-.66-11.54-.08-13.07,0-26.14,0-39.22V.33h20.51V137.65h-20.2V121a21.74,21.74,0,0,0-1.75,1.6c-12,16-28.51,20.28-47.33,17.38C143,135.6,127.28,110.5,129.53,82.66c1.57-19.45,10.13-34.8,28.24-43.59,19.7-9.56,44.24-5.44,57.74,9.36,2,2.17,3.7,4.57,5.32,6.57M185,122.64c21.21,0,35.59-14.12,35.66-35.11s-14.42-35.32-35.5-35.34c-21.31,0-35.44,14-35.47,35.18s14,35.24,35.31,35.27"/><path class="cls-1" d="M641.33,79.47c0-5.82.58-11.22-.13-16.43-1-7.54-6.86-10.72-13.65-11.87a72.8,72.8,0,0,0-29.18.52c-6.39,1.52-10.92,5-11.89,12.2H568.59c-1.59-9.75,3.89-19.44,13.55-24.23,8.48-4.2,17.67-5.12,26.9-5.47,11.54-.45,23,.06,34.1,3.8,12.77,4.32,19.45,13.4,19.52,26.91.11,23.41,0,46.83.05,70.24,0,.77-.11,1.54-.19,2.72-5.47,0-10.79.09-16.1-.12-.7,0-1.75-1.52-1.92-2.47-.71-4-1.16-8.06-1.71-12.07-.46,0-.78,0-.88.06-11.17,13.07-26.22,16.86-42.51,17.55a47.73,47.73,0,0,1-20.73-3.41c-11.33-4.77-17.24-14.79-17-28.51.28-16.52,9.13-26.92,25.64-28.49,11.3-1.08,22.74-.72,34.12-.91,6.59-.11,13.17,0,19.92,0m.14,14.25a15.34,15.34,0,0,0-2.08-.28c-13.21,0-26.42,0-39.63,0a26.56,26.56,0,0,0-6.07.82c-6.84,1.67-10.6,5.89-11,12.15-.53,8.18,2.28,14,9.16,16a53.43,53.43,0,0,0,16.42,2c10.79-.35,20.46-4,28.14-12,5.09-5.29,6.11-11.63,5.07-18.7"/><path class="cls-1" d="M370.28,95H282.44c.83,7.1,3.1,13.09,7.39,18.26,6.14,7.43,14.48,10.39,23.72,11.18,6.74.56,13.44.18,19.85-2.34a25.38,25.38,0,0,0,12-9.72,4.35,4.35,0,0,1,2.82-1.89c5.79-.17,11.59-.08,18-.08-.57,1.61-.9,2.87-1.45,4-6.14,13.08-16.8,20.71-30.46,24.2s-27.37,3.24-40.65-1.81c-19.11-7.26-29.17-21.7-31.75-41.57a57.72,57.72,0,0,1,3.78-30.43C272.84,48,286,38.48,303.79,35.19a65.23,65.23,0,0,1,32.75,1.91c19.31,6.39,29.49,20.46,32.58,40,.91,5.76.79,11.68,1.16,18M349.64,80.17c-1.4-15-9.14-25.35-21.89-28.82a42.7,42.7,0,0,0-25.86.88c-11.53,4.09-20.17,16.68-19.26,27.94Z"/><path class="cls-1" d="M391,37.17h20V53.56l.8.56a9.56,9.56,0,0,1,.62-1.34c9.33-14,23.18-18.74,39.17-18.7,7.68,0,15.22,1.24,22.19,4.76,11.76,5.93,17.63,16.06,19.85,28.53a81,81,0,0,1,1.08,13.57c.12,17.84.05,35.69,0,53.54,0,1-.13,2-.22,3.17H473.94v-3.86c0-16.15.11-32.29-.06-48.42a59.82,59.82,0,0,0-1.51-13.83C469.74,61,462.71,54.92,452,52.92a42.56,42.56,0,0,0-20.94,1.14c-11.79,3.75-19.14,13.39-19.37,26.09-.32,17.73-.17,35.47-.21,53.2,0,4.53,0,4.53-4.7,4.53H391Z"/><rect class="cls-1" x="520.6" y="0.32" width="20.28" height="137.32"/><rect class="cls-1" x="1.49" y="170.06" width="794.57" height="19.25"/><path class="cls-1" d="M465.19,251.66c-.19.21-.27.26-.28.32-.65,6.28-.66,6.29-7.51,5.31,0-.8-.16-1.67-.16-2.54,0-15.23,0-30.46-.06-45.69,0-2.12.46-3.06,2.75-2.79a42.65,42.65,0,0,0,4.82,0v20c4.29-5.38,9.36-7.66,15.52-7.35s11.25,2.79,14.7,8c5.85,8.85,4,21.77-4,27.88s-18.64,4.73-25.77-3.18m12.71.08c7.89,0,13-5.21,12.9-13.19,0-7.74-5.24-12.86-13-12.86s-13,5.19-13,13.11,5.18,13,13.15,12.94"/><path class="cls-1" d="M413.1,230.17c-.47-4.74,1.74-8.33,6.32-9.77a34.29,34.29,0,0,1,21.34.09,9.16,9.16,0,0,1,6.83,9.09c.14,8.77.08,17.54.14,26.31,0,1.3-.57,1.79-1.82,1.68a6.23,6.23,0,0,0-.75,0c-3.82,0-3.82,0-4.57-3.71-.09-.47-.23-.92-.45-1.74-4.63,4.86-10.33,6.44-16.59,6.43a19.44,19.44,0,0,1-4.68-.55c-5.81-1.48-8.69-5.57-8.45-11.77.22-5.74,3.27-9.21,9.35-10a93.07,93.07,0,0,1,10.44-.42c3.14-.05,6.28,0,9.53,0,0-2.21.16-4.18,0-6.1a4.45,4.45,0,0,0-3.4-3.9,21.91,21.91,0,0,0-13.24.09,4.77,4.77,0,0,0-2.74,2.29c-.71,1.91-1.9,2.2-3.62,2.05-1.14-.1-2.31,0-3.61,0m18,10.82v.16c-2.65,0-5.31-.17-7.95,0-3.11.25-4.68,1.89-4.9,4.6-.28,3.34,1.13,5.65,4.27,6.31,5.09,1.07,9.92.34,14.15-2.91a7.81,7.81,0,0,0,3.29-6.36c0-1.4-.49-1.92-1.89-1.87-2.32.07-4.64,0-7,0"/><path class="cls-1" d="M621,235.76c0-2.07.13-3.8,0-5.5a4.91,4.91,0,0,0-4.62-4.78,51.57,51.57,0,0,0-11.11.1c-1.54.21-2.83,2.16-4.25,3.3-.57.46-1.15,1.16-1.79,1.22a41.71,41.71,0,0,1-4.87.06c-.6-3.93.81-7.37,4.34-8.87a30.83,30.83,0,0,1,25.15.13,7.78,7.78,0,0,1,4.76,7.11c.18,9.42.09,18.85.1,28.28,0,.14-.14.29-.29.59h-6.09c-.3-1.73-.58-3.33-.95-5.43-3.17,3.36-6.72,5.56-10.9,5.94a39.51,39.51,0,0,1-11.55-.36c-5.25-1.12-7.77-5.85-7.29-12,.4-5.2,3.38-8.61,8.7-9.27a111.56,111.56,0,0,1,11.43-.5c3-.08,6,0,9.26,0m-.08,5.38c-5.63,0-11.1-.16-16.56.06a4.86,4.86,0,0,0-5.1,5,5.44,5.44,0,0,0,4.57,5.93,16.71,16.71,0,0,0,13.74-2.78,7.76,7.76,0,0,0,3.35-8.24"/><path class="cls-1" d="M524.7,218.91c12,0,20.32,8.09,20.37,19.78s-8.3,19.83-20.28,19.88-20.54-8.17-20.49-19.92,8.37-19.74,20.4-19.74m.09,32.79c7.74,0,12.65-5,12.69-12.87s-4.92-13.05-12.77-13.06-12.89,5.1-12.87,13,5.11,12.95,12.95,12.93"/><path class="cls-1" d="M666.52,238.84c0-11.81,8.13-19.87,20.14-19.93,12.19,0,20.47,8,20.47,19.85s-8.23,19.79-20.26,19.81-20.32-8-20.35-19.73m20.3,12.85c7.85,0,12.83-5,12.83-12.95s-5-13-12.82-13-12.8,5-12.81,13,5,13,12.8,13"/><path class="cls-1" d="M796.07,220c-5,11.05-9.72,21.52-14.46,32-2.11,4.68-4.29,9.33-6.32,14a2.53,2.53,0,0,1-2.78,1.85c-1.81-.11-3.63,0-6,0,1.43-3.08,2.59-5.77,3.92-8.38a4.33,4.33,0,0,0,0-4.19c-5.13-11-10.16-22.09-15.22-33.15-.24-.51-.42-1.06-.81-2.05,2.59,0,5-.12,7.28.08.53,0,1.11,1.1,1.42,1.8,3.64,8.07,7.22,16.16,10.82,24.24.34.74.69,1.47,1.27,2.71.57-1.17,1-1.91,1.3-2.68,3.52-7.94,7.07-15.87,10.49-23.85.75-1.77,1.68-2.64,3.69-2.4a53.45,53.45,0,0,0,5.43,0"/><path class="cls-1" d="M661.32,257.6c-3.86,0-7.37.28-10.82-.06-5.23-.52-8.24-4.09-8.38-9.72-.15-6-.07-12.09-.09-18.14v-3.16c-2.13,0-4.09-.08-6,0-1.59.09-2.24-.41-2.21-2.08.11-5.46-.36-4.37,4.26-4.48,1.22,0,2.45,0,3.92,0V208.63h7.66v11.29h11.46v6.6c-3.08,0-6.13.08-9.18,0-1.73-.06-2.32.49-2.29,2.25.11,5.46,0,10.93.06,16.4.06,4.33,1.29,5.57,5.67,5.8,1.88.1,3.77,0,5.76,0a16.69,16.69,0,0,1,.22,1.74c0,1.56,0,3.12,0,4.89"/><path class="cls-1" d="M587.17,235.69h-6.8c-.28-1.5-.47-3-.88-4.52A7,7,0,0,0,574,226c-7.33-1.75-12.81,1.76-13.4,9.19-.51,6.33-.21,12.72-.25,19.09,0,3.27,0,3.27-3.19,3.27H553V220.17h7.1c.12,1.56.24,3.14.39,5.18,5.89-6.95,12.89-8.35,20.49-4.55,5.9,2.94,6.44,8.73,6.24,14.89"/><path class="cls-1" d="M749.07,235.73H742.3c-.11-1.12-.2-2.16-.34-3.21a7.38,7.38,0,0,0-6.41-6.63c-7.85-1.33-12.9,2.76-13,10.65-.09,6.87,0,13.73,0,21-2.27,0-4.4.09-6.52-.07-.4,0-1-1-1-1.54q-.11-17.14,0-34.27c0-.56,1-1.12,1.5-1.66,0-.05.15,0,.24,0,5-.33,5-.33,6.06,5,7.29-6.28,13.94-7.71,20.16-4.34,4.73,2.55,7.12,8.3,6.12,15.14"/><path class="cls-1" d="M395.3,206.45h7.42v51.09a46.07,46.07,0,0,1-6.11-.1c-.53-.08-1.24-1.5-1.26-2.31-.09-8.27-.05-16.53-.05-24.8Z"/><path class="cls-1" d="M367.21,241.53h-31a11.86,11.86,0,0,0,2.61,6.46c2.17,2.62,5.12,3.67,8.39,3.95a15.35,15.35,0,0,0,7-.83,9,9,0,0,0,4.25-3.43,1.5,1.5,0,0,1,1-.67c2-.06,4.1,0,6.36,0-.2.57-.32,1-.51,1.42A15.45,15.45,0,0,1,354.49,257a23.46,23.46,0,0,1-14.37-.64c-6.75-2.57-10.31-7.67-11.22-14.69a20.41,20.41,0,0,1,1.33-10.76c2.54-6,7.19-9.32,13.48-10.49a23.06,23.06,0,0,1,11.57.68c6.83,2.26,10.43,7.23,11.52,14.13.32,2,.28,4.13.41,6.34m-7.3-5.25c-.49-5.3-3.23-9-7.73-10.19a15.1,15.1,0,0,0-9.14.32c-4.08,1.44-7.13,5.89-6.81,9.87Z"/><path class="cls-1" d="M226.65,252.24c-6.64,6.07-14.07,7.6-22.26,5.44-5.17-1.36-7.82-5.8-7.48-11.72.32-5.44,3.35-9.11,8.88-9.65s11.11-.39,16.67-.52c1.22,0,2.45,0,4.08,0-.14-2.32.17-4.5-.51-6.33a6.75,6.75,0,0,0-3.53-3.65,19.93,19.93,0,0,0-12.5-.1,5.31,5.31,0,0,0-3.17,2.48c-.78,1.91-2,2.15-3.66,2-1.15-.09-2.3,0-3.4,0-.9-3.91,1-7.5,5-9.3,5.26-2.38,10.85-2.16,16.42-1.73a25.09,25.09,0,0,1,5.13,1c4.9,1.44,7.57,4.37,7.72,9.44.26,8.75.1,17.53.16,26.3,0,1.33-.61,1.76-1.83,1.65a6.51,6.51,0,0,0-1.25,0c-2.54.37-4.2-.25-4-3.26a7.48,7.48,0,0,0-.5-2.09m-.44-11.09c-5.49,0-11-.14-16.4.06-3.24.12-4.85,1.9-5.05,4.73-.23,3.31,1.23,5.57,4.39,6.22a16.71,16.71,0,0,0,13.73-2.7c2.74-2,4.13-4.65,3.33-8.31"/><path class="cls-1" d="M131.48,218.93c12,0,20.32,8.19,20.29,19.86s-8.36,19.79-20.35,19.8-20.49-8.23-20.42-20,8.43-19.68,20.48-19.66m-.11,32.79c7.87,0,12.84-5,12.82-13s-4.92-12.87-12.65-12.93-12.95,5-13,12.87,5,13.05,12.83,13.06"/><path class="cls-1" d="M72.57,220c.15,2,.29,3.7.45,5.85,5.61-6.94,12.57-8.13,20.27-6.06,6.07,1.64,9.78,6.36,10.08,13.3.34,8,.08,16,.08,24.48a62.32,62.32,0,0,1-6.43-.11c-.42,0-1-1.31-1-2-.09-5.38,0-10.76,0-16.14,0-.66,0-1.33,0-2-.2-9.82-8.65-14.78-17.48-10.25-3.8,2-5.42,5.28-5.48,9.36-.09,6.13-.12,12.26,0,18.38,0,2.08-.38,2.93-2.71,2.86-5.1-.15-5.11,0-5.11-5.18,0-9.94,0-19.87,0-29.81,0-2,.5-2.9,2.64-2.69a48,48,0,0,0,4.82,0"/><path class="cls-1" d="M17.77,220.4c.23-.18.29-.27.36-.28,2,0,4.38-.73,5.85.13,1.15.68,1.17,3.28,1.72,5.12a2.39,2.39,0,0,0,.57-.45c5-6.78,15.05-7,20.69-4.77,6.57,2.62,8.72,8.13,9,14.49.26,7,0,14.07.11,21.11,0,1.41-.54,1.88-1.92,1.84-7.23-.15-5.72,1-5.85-5.61-.09-5.13.07-10.26-.07-15.39-.19-7-3.63-10.59-10.26-10.88-7.27-.3-11.91,3.09-12.45,9.9a188.05,188.05,0,0,0-.21,18.85c.05,2.48-.57,3.53-3.17,3.16a31,31,0,0,0-4.33,0Z"/><path class="cls-1" d="M266.53,251a16.37,16.37,0,0,1,.22,1.74c0,1.55,0,3.1,0,5.25-4.35-.27-8.49-.21-12.52-.87a7.46,7.46,0,0,1-6.39-7c-.43-4.34-.4-8.75-.49-13.12-.07-3.37,0-6.75,0-10.35h-7.9V220h7.85V208.66H255c0,3,.11,5.92,0,8.85-.11,2,.59,2.61,2.55,2.52,3-.14,5.94,0,9.09,0v6.55c-2.91,0-5.79.12-8.65,0-2.2-.12-3.11.42-3,2.84.19,5.13,0,10.26.08,15.4.07,4.88,1.35,6.11,6.27,6.26,1.72.06,3.45,0,5.25,0"/><path class="cls-1" d="M195.7,220c-2.46,5.55-4.69,10.6-6.94,15.64-2.93,6.57-5.92,13.13-8.79,19.73a3.47,3.47,0,0,1-3.28,2.32c-4.33.57-6.38-1.1-8-5.13-4-10-8.71-19.67-13.12-29.48-.37-.83-.69-1.67-1.23-3,2.61,0,5-.12,7.29.09.52,0,1.06,1.15,1.38,1.86,3.54,7.94,7,15.91,10.53,23.86.39.89.85,1.74,1.52,3.12l5.75-13c2-4.62,4.12-9.21,6-13.9a2.89,2.89,0,0,1,3.35-2.14c1.64.12,3.31,0,5.54,0"/><path class="cls-1" d="M328.7,220c-2.46,5.55-4.69,10.6-6.94,15.64-2.93,6.57-5.92,13.13-8.8,19.73a3.47,3.47,0,0,1-3.28,2.32c-4.33.57-6.37-1.1-8-5.13-4.06-10-8.72-19.67-13.13-29.48-.37-.83-.68-1.67-1.22-3,2.61,0,5-.12,7.29.09.51,0,1.06,1.15,1.38,1.86,3.53,7.94,7,15.91,10.52,23.86.4.89.86,1.74,1.53,3.12,2-4.63,3.9-8.81,5.74-13,2-4.62,4.13-9.21,6-13.9a2.91,2.91,0,0,1,3.36-2.14c1.63.12,3.31,0,5.54,0"/><path class="cls-1" d="M282.08,257.34c-7.65.93-7.65.93-7.65-6,0-9.53.05-19-.05-28.56,0-2.06.37-3,2.71-2.88,5,.15,5,0,5,5v32.38Z"/><path class="cls-1" d="M8.12,238.89c0,5.45,0,10.9,0,16.36,0,1.6-.28,2.42-2.16,2.36-6.71-.2-5.5.91-5.56-5.41-.07-9.84,0-19.67-.07-29.5,0-2.23.69-2.81,2.84-2.75,4.92.11,4.92,0,4.92,4.81v14.13"/><path class="cls-1" d="M282.68,208a4.39,4.39,0,0,1-8.77,0,4.39,4.39,0,0,1,8.77,0"/><path class="cls-1" d="M4.26,212.11A4,4,0,0,1,0,208a4,4,0,0,1,4.32-4.1A4.11,4.11,0,0,1,8.62,208a4,4,0,0,1-4.36,4.07"/></g></g></svg>
