<svg width="703" height="163" viewBox="0 0 703 163" fill="none" xmlns="http://www.w3.org/2000/svg">
<path d="M249.306 59.6329C256.711 59.6329 262.547 62.075 266.813 66.9592C271.079 71.8435 273.212 78.4092 273.212 86.6564V126.051H255.585V89.5389C255.585 84.6546 254.659 81.0114 252.808 78.6094C251.037 76.2073 248.18 75.0062 244.236 75.0062C239.809 75.0062 236.267 76.5275 233.611 79.5702C230.955 82.6128 229.627 86.7364 229.627 91.9409V126.051H212V37.7738H229.627V67.1994C234.939 62.155 241.499 59.6329 249.306 59.6329Z" fill="#21325a"/>
<path d="M343.985 93.3822C343.985 95.0637 343.864 96.7852 343.623 98.5467H294.364C295.088 102.951 296.818 106.353 299.555 108.756C302.372 111.078 305.954 112.239 310.3 112.239C313.278 112.239 315.975 111.598 318.389 110.317C320.804 108.956 322.696 107.114 324.064 104.792H342.657C340.242 111.838 336.137 117.443 330.342 121.607C324.547 125.77 317.866 127.852 310.3 127.852C300.642 127.852 292.593 124.569 286.154 118.004C279.715 111.438 276.495 103.311 276.495 93.6224C276.495 89.7791 277.018 86.0959 278.065 82.5728C279.191 79.0497 280.761 75.887 282.773 73.0846C284.866 70.2821 287.281 67.88 290.017 65.8783C292.754 63.7965 295.853 62.1951 299.314 61.0741C302.775 59.9531 306.437 59.3926 310.3 59.3926C316.82 59.3926 322.655 60.914 327.807 63.9566C333.038 66.9993 337.022 71.1228 339.759 76.3274C342.576 81.5319 343.985 87.2168 343.985 93.3822ZM310.3 74.2856C306.356 74.2856 303.016 75.3665 300.279 77.5284C297.623 79.6903 295.812 82.6929 294.846 86.5362H326.358C325.553 83.8939 324.386 81.692 322.857 79.9305C321.327 78.0889 319.476 76.6877 317.303 75.7268C315.21 74.766 312.876 74.2856 310.3 74.2856Z" fill="#21325a"/>
<path d="M347.909 126.051V37.7738H365.536V126.051H347.909Z" fill="#21325a"/>
<path d="M373.831 126.051V37.7738H391.458V126.051H373.831Z" fill="#21325a"/>
<path d="M430.781 127.852C424.1 127.852 418.064 126.371 412.671 123.408C407.278 120.446 403.052 116.362 399.994 111.158C397.016 105.873 395.527 100.028 395.527 93.6224C395.527 83.7738 398.867 75.6067 405.548 69.1211C412.228 62.6355 420.639 59.3926 430.781 59.3926C440.842 59.3926 449.213 62.6355 455.893 69.1211C462.574 75.6067 465.914 83.7738 465.914 93.6224C465.914 103.391 462.534 111.558 455.773 118.124C449.092 124.609 440.761 127.852 430.781 127.852ZM430.781 111.398C435.852 111.398 439.997 109.756 443.216 106.474C446.436 103.111 448.046 98.8269 448.046 93.6224C448.046 88.4179 446.436 84.1742 443.216 80.8913C439.997 77.5284 435.811 75.847 430.66 75.847C425.589 75.847 421.444 77.5284 418.225 80.8913C415.005 84.1742 413.395 88.4179 413.395 93.6224C413.395 96.1846 413.798 98.5867 414.603 100.829C415.488 103.071 416.695 104.952 418.225 106.474C419.754 107.995 421.565 109.196 423.658 110.077C425.831 110.957 428.205 111.398 430.781 111.398Z" fill="#21325a"/>
<path d="M493.187 127.852C487.794 127.852 483.005 126.891 478.819 124.97C474.714 123.048 471.495 120.326 469.161 116.803C466.907 113.279 465.78 109.236 465.78 104.672H482.924C483.005 106.594 483.488 108.235 484.373 109.596C485.339 110.877 486.627 111.838 488.237 112.479C489.846 113.039 491.698 113.32 493.79 113.32C495.481 113.32 497.01 113.079 498.378 112.599C499.746 112.118 500.873 111.398 501.759 110.437C502.644 109.396 503.087 108.195 503.087 106.834C503.087 104.832 502.04 103.351 499.948 102.39C497.855 101.429 494.716 100.588 490.53 99.8678C487.874 99.4675 485.661 99.0671 483.89 98.6668C482.2 98.2664 480.147 97.5859 477.733 96.625C475.399 95.5841 473.507 94.4231 472.058 93.142C470.69 91.8609 469.483 90.0993 468.436 87.8574C467.39 85.6154 466.867 83.0132 466.867 80.0506C466.867 73.9653 469.281 69.001 474.111 65.1577C478.94 61.3143 485.258 59.3926 493.066 59.3926C500.954 59.3926 507.272 61.3944 512.021 65.3979C516.85 69.3213 519.265 74.5258 519.265 81.0114H502.483C502.483 75.887 499.223 73.3248 492.704 73.3248C489.967 73.3248 487.834 73.8853 486.305 75.0062C484.776 76.1272 484.011 77.6485 484.011 79.5702C484.011 80.3709 484.212 81.1315 484.615 81.8522C485.098 82.4927 485.621 83.0132 486.184 83.4135C486.828 83.8139 487.794 84.2142 489.082 84.6146C490.37 84.9348 491.456 85.1751 492.341 85.3352C493.227 85.4953 494.555 85.7355 496.326 86.0558C497.855 86.3761 498.942 86.6163 499.585 86.7765C500.229 86.8565 501.316 87.0567 502.845 87.377C504.375 87.6973 505.501 88.0175 506.226 88.3378C507.031 88.578 508.077 88.9383 509.365 89.4188C510.733 89.8992 511.739 90.4196 512.383 90.9801C513.108 91.4605 513.953 92.0611 514.919 92.7817C515.965 93.5023 516.77 94.303 517.333 95.1838C517.897 96.0645 518.46 97.0254 519.023 98.0663C519.587 99.1072 519.949 100.308 520.11 101.669C520.352 103.031 520.472 104.472 520.472 105.993C520.472 112.639 517.977 117.964 512.987 121.967C507.996 125.89 501.396 127.852 493.187 127.852Z" fill="#21325a"/>
<path d="M578.057 61.0741H591.217V125.931H577.333L575.884 120.165C569.928 125.29 562.885 127.852 554.756 127.852C544.936 127.852 536.767 124.609 530.247 118.124C523.808 111.558 520.588 103.351 520.588 93.5023C520.588 83.7338 523.808 75.6067 530.247 69.1211C536.767 62.6355 544.936 59.3926 554.756 59.3926C563.046 59.3926 570.169 62.0349 576.126 67.3195L578.057 61.0741ZM543.407 106.233C546.787 109.596 551.013 111.278 556.084 111.278C561.235 111.278 565.501 109.596 568.882 106.233C572.262 102.87 573.952 98.6268 573.952 93.5023C573.952 88.3778 572.262 84.1342 568.882 80.7712C565.501 77.4083 561.275 75.7268 556.205 75.7268C552.824 75.7268 549.766 76.5275 547.029 78.1289C544.373 79.6503 542.28 81.7721 540.751 84.4945C539.221 87.1368 538.457 90.1394 538.457 93.5023C538.457 98.6268 540.107 102.87 543.407 106.233Z" fill="#21325a"/>
<path d="M639.51 62.0349V76.5676H623.091V126.051H605.464V76.5676H594.115V62.0349H605.584V56.1498C605.584 49.8243 607.355 44.86 610.897 41.2569C614.438 37.6537 619.549 35.8522 626.23 35.8522H639.39V49.6642H629.731C624.982 49.6642 622.608 51.9862 622.608 56.6302V62.0349H639.51Z" fill="#21325a"/>
<path d="M703 93.3822C703 95.0637 702.879 96.7852 702.638 98.5467H653.379C654.103 102.951 655.834 106.353 658.57 108.756C661.387 111.078 664.969 112.239 669.316 112.239C672.294 112.239 674.99 111.598 677.405 110.317C679.819 108.956 681.711 107.114 683.079 104.792H701.672C699.257 111.838 695.152 117.443 689.357 121.607C683.562 125.77 676.881 127.852 669.316 127.852C659.657 127.852 651.608 124.569 645.169 118.004C638.73 111.438 635.51 103.311 635.51 93.6224C635.51 89.7791 636.034 86.0959 637.08 82.5728C638.207 79.0497 639.776 75.887 641.788 73.0846C643.881 70.2821 646.296 67.88 649.032 65.8783C651.769 63.7965 654.868 62.1951 658.329 61.0741C661.79 59.9531 665.452 59.3926 669.316 59.3926C675.835 59.3926 681.671 60.914 686.822 63.9566C692.054 66.9993 696.038 71.1228 698.774 76.3274C701.591 81.5319 703 87.2168 703 93.3822ZM669.316 74.2856C665.372 74.2856 662.031 75.3665 659.295 77.5284C656.639 79.6903 654.828 82.6929 653.862 86.5362H685.373C684.568 83.8939 683.401 81.692 681.872 79.9305C680.342 78.0889 678.491 76.6877 676.318 75.7268C674.225 74.766 671.891 74.2856 669.316 74.2856Z" fill="#21325a"/>
<path fill-rule="evenodd" clip-rule="evenodd" d="M0.758911 39.1758C0.758911 34.312 4.22471 30.2946 8.7716 29.3815C8.98828 29.3102 9.91381 29.1225 10.5558 28.9922L10.5558 28.9922C10.8431 28.9339 11.0737 28.8872 11.1584 28.8675L131.636 0.944803C137.765 -0.47577 143.545 4.57791 143.545 11.3577V36.4352L159.489 37.3072C166.234 37.6761 171.514 43.2528 171.514 50.0077V150.28C171.514 157.578 165.387 163.379 158.1 162.981L10.2022 154.892C4.90543 154.602 0.758911 150.223 0.758911 144.918V39.1758ZM136.161 36.0313L38.5316 30.6917L133.183 8.75451C134.716 8.39937 136.161 9.66277 136.161 11.3577V36.0313ZM131.27 86.7855L41.0027 81.8522C41.0037 104.916 60.4531 119.584 85.0618 120.984C107.907 122.283 131.271 109.127 131.27 86.7855Z" fill="#21325a"/>
</svg>
