<svg viewBox="0 0 600 600" xmlns="http://www.w3.org/2000/svg"><g fill="#2f3538"><path d="m297.89 278.66q-8.64 0-13.93 5.68l-1.9-4.64h-12.06v42.58h15.14v-22.8c0-5.07 3.19-8.43 7.92-8.43a6.57 6.57 0 0 1 6.7 6.8v24.43h15.15v-26.93a15.87 15.87 0 0 0 -4.74-12c-3.18-3.18-7.22-4.73-12.3-4.73"/><path d="m246.71 260.02h15.14v15.14h-15.14z"/><path d="m246.71 279.7h15.14v42.58h-15.14z"/><path d="m520.36 284.93a18 18 0 0 0 -14.2-6.26 16.9 16.9 0 0 0 -12.66 5l-1.9-4h-12v60.49h15.1v-20.89a17.93 17.93 0 0 0 11.46 4.05 18.26 18.26 0 0 0 14.2-6.2c3.68-4.23 5.58-9.56 5.58-16.09s-1.9-12-5.58-16.1m-18.24 26.5c-4.57 0-7.67-3.44-7.67-8.16v-4.48c0-4.81 3.1-8.25 7.67-8.25 4.9 0 8.43 4.3 8.43 10.49s-3.53 10.4-8.43 10.4"/><path d="m463.83 259.82a8.65 8.65 0 1 0 8.69 8.69 8.39 8.39 0 0 0 -8.69-8.69"/><path d="m456.26 279.7h15.14v42.58h-15.14z"/><path d="m393.12 284.94c-4.47-4.21-10.33-6.27-17.45-6.27s-12.9 2.06-17.47 6.27a22.44 22.44 0 0 0 0 32.18c4.57 4.12 10.33 6.2 17.47 6.2s13-2.08 17.45-6.2a20.89 20.89 0 0 0 6.81-16.12c0-6.62-2.24-12-6.81-16.09m-17.45 26.67c-5.17 0-8.79-4.39-8.79-10.58s3.62-10.67 8.79-10.67 8.87 4.38 8.87 10.67-3.71 10.58-8.87 10.58"/><path d="m345.2 272.73a29.93 29.93 0 0 1 5 .51l1.9-11.18a40.51 40.51 0 0 0 -10.58-1.38 16.57 16.57 0 0 0 -11.62 4.13 14.29 14.29 0 0 0 -4.38 10.93v4h-7.14v11.43h7.14v31.15h15.14v-31.19h8.77v-11.43h-8.77v-2.41a4.24 4.24 0 0 1 4.55-4.56"/><path d="m445.16 284.93a18 18 0 0 0 -14.2-6.26 17.54 17.54 0 0 0 -11.44 4v-21h-15.14v60.56h12.05l1.9-4a16.87 16.87 0 0 0 12.63 5 18.24 18.24 0 0 0 14.2-6.2c3.7-4.23 5.6-9.56 5.6-16.09s-1.9-12-5.6-16.1m-18.22 26.5c-4.57 0-7.67-3.44-7.67-8.16v-4.48c0-4.81 3.1-8.25 7.67-8.25 4.88 0 8.41 4.3 8.41 10.49s-3.53 10.4-8.41 10.4"/></g><path d="m157.59 290.43v19.14a4 4 0 0 1 -4 4h-19.13a4 4 0 0 1 -4-4v-19.14a4 4 0 0 1 4-4h19.16a4 4 0 0 1 4 4" fill="#f15f22"/><path d="m176.86 267.16c-5.42-5.42-18.32-8.93-32.83-8.93s-27.39 3.51-32.81 8.93-8.93 18.32-8.93 32.84 3.48 27.41 8.93 32.83 18.3 8.93 32.81 8.93 27.41-3.51 32.83-8.93c2.71-2.71 4.95-7.29 6.5-13a76.38 76.38 0 0 0 2.43-19.83c0-14.52-3.51-27.41-8.93-32.84m-12.69 52.84c-1.14 1.14-4.58 4.58-20.23 4.58s-19.12-3.44-20.24-4.58-4.57-4.58-4.57-20.23 3.44-19.09 4.57-20.23 4.56-4.56 20.24-4.56 19.09 3.42 20.23 4.56 4.56 4.58 4.56 20.23-3.44 19.09-4.56 20.23" fill="#f15f22"/><path d="m157.59 290.43v19.14a4 4 0 0 1 -4 4h-19.13a4 4 0 0 1 -4-4v-19.14a4 4 0 0 1 4-4h19.16a4 4 0 0 1 4 4" fill="#f15f22"/><path d="m157.59 290.43v19.14a4 4 0 0 1 -4 4h-19.13a4 4 0 0 1 -4-4v-19.14a4 4 0 0 1 4-4h19.16a4 4 0 0 1 4 4" fill="#f15f22"/><path d="m157.59 290.43v19.14a4 4 0 0 1 -4 4h-19.13a4 4 0 0 1 -4-4v-19.14a4 4 0 0 1 4-4h19.16a4 4 0 0 1 4 4" fill="#f15f22"/><path d="m176.86 267.16c-5.42-5.42-18.32-8.93-32.83-8.93s-27.39 3.51-32.81 8.93-8.93 18.32-8.93 32.84 3.48 27.41 8.93 32.83 18.3 8.93 32.81 8.93 27.41-3.51 32.83-8.93c2.71-2.71 4.95-7.29 6.5-13a76.38 76.38 0 0 0 2.43-19.83c0-14.52-3.51-27.41-8.93-32.84m-12.69 52.84c-1.14 1.14-4.58 4.58-20.23 4.58s-19.12-3.44-20.24-4.58-4.57-4.58-4.57-20.23 3.44-19.09 4.57-20.23 4.56-4.56 20.24-4.56 19.09 3.42 20.23 4.56 4.56 4.58 4.56 20.23-3.44 19.09-4.56 20.23" fill="#f15f22"/><path d="m144 230a70 70 0 0 0 -1 140c39.15.52 71.46-31.81 70.93-71a70 70 0 0 0 -70-69m40.12 110.26c-7.65 7.66-22.62 12.21-40.05 12.21s-32.42-4.55-40.06-12.21-12.23-22.63-12.23-40 4.58-32.41 12.23-40.06 22.63-12.24 40.06-12.24 32.4 4.58 40.05 12.24 12.22 22.62 12.22 40.06-4.58 32.39-12.22 40" fill="#f15f22"/></svg>