<?xml version="1.0" encoding="UTF-8"?>
<!-- Generator: Adobe Illustrator 15.0.0, SVG Export Plug-In . SVG Version: 6.00 Build 0)  -->
<!DOCTYPE svg PUBLIC "-//W3C//DTD SVG 1.0//EN" "http://www.w3.org/TR/2001/REC-SVG-20010904/DTD/svg10.dtd">
<svg version="1.0" id="Calque_2" xmlns="http://www.w3.org/2000/svg" xmlns:xlink="http://www.w3.org/1999/xlink" x="0px" y="0px" width="116px" height="19px" viewBox="0 0 116 19" enable-background="new 0 0 116 19" xml:space="preserve">
<g>
	<g>
		<g>
			<path d="M115.975,12.768l-9.479,0.006c-0.008,0.399,0.031,2.101,1.199,3.149c0.877,0.831,1.846,1.229,3.059,1.231     c0,0,2.063-0.003,3.297-1.524l1.658,0.817c-1.029,1.62-3.316,2.514-5.059,2.513l0,0c-0.002,0-0.002,0-0.005,0.001l0,0     c-0.005,0-0.01,0-0.014,0l0,0c-1.771,0-3.277-0.632-4.441-1.872l0,0l0,0c-1.169-1.237-1.604-2.831-1.604-4.714l0.001-0.021     c0-1.786,0.54-3.306,1.623-4.497l0,0c1.075-1.193,2.468-1.807,4.098-1.807C110.309,6.051,116.191,5.603,115.975,12.768z      M110.419,7.88L110.419,7.88c-0.905,0.002-1.729,0.282-2.394,0.837c0,0-1.072,0.845-1.301,2.409h7.215     C113.683,7.683,110.419,7.88,110.419,7.88z"/>
		</g>
	</g>
	<g>
		<g>
			<path d="M53.98,12.771l-9.479,0.005c-0.008,0.4,0.031,2.102,1.199,3.15c0.877,0.829,1.845,1.228,3.059,1.23     c0,0,2.062-0.003,3.296-1.524l1.658,0.817c-1.029,1.62-3.316,2.513-5.058,2.513l0,0c-0.002,0-0.002,0-0.006,0l0,0     c-0.004,0-0.008,0-0.014,0l0,0c-1.77,0-3.277-0.63-4.441-1.871l0,0l0,0c-1.168-1.237-1.604-2.83-1.604-4.713l0.002-0.021     c-0.001-1.787,0.54-3.305,1.622-4.497l0,0c1.076-1.193,2.468-1.806,4.098-1.806C48.313,6.054,54.197,5.605,53.98,12.771z      M48.425,7.883L48.425,7.883c-0.907,0.002-1.731,0.282-2.394,0.835c0,0-1.073,0.845-1.301,2.41h7.215     C51.687,7.685,48.425,7.883,48.425,7.883z"/>
		</g>
	</g>
	<g>
		<g>
			<path d="M103.657,18.694c-1.294,0.338-2.308,0.303-2.308,0.303c-0.834,0-1.565-0.247-2.144-0.742     c-0.956-0.75-0.894-2.084-0.894-2.084V7.962h-2.539V6.32h2.539V2.396l1.873-0.001v3.927h2.891v1.641h-2.891v6.729     c0,0,0.016,1.032,0.061,1.364c0.044,0.33,0.287,1.177,1.409,1.107c0.364-0.023,1.157-0.127,1.634-0.215L103.657,18.694z"/>
		</g>
	</g>
	<g>
		<g>
			<path d="M12.01,18.095c-1.116-1.039-1.021-2.396-1.021-2.396c0-0.699,0.163-1.322,0.489-1.877     c0.442-0.819,1.442-1.421,1.442-1.421c1.205-0.748,3.47-1.174,5.573-1.309V9.877c-0.002-0.756-0.202-1.258-0.56-1.59     c-0.627-0.574-1.762-0.523-1.762-0.523c-1.019,0-1.945,0.295-3.414,1.095l-0.734-1.403c1.375-0.921,3.075-1.362,4.355-1.362     c1.883,0,2.838,0.858,2.838,0.858c0.77,0.579,1.163,1.449,1.163,2.511l-0.001,9.303h-1.89l0.001-0.931     C14.143,20.273,12.01,18.095,12.01,18.095z M12.859,15.696c0,0,0.056,1.648,2.036,1.648c0.95,0,2.498-0.385,3.597-1.291l0,0     l0.001-3.429C12.297,12.889,12.859,15.696,12.859,15.696z"/>
		</g>
	</g>
	<g>
		<g>
			<path d="M37.543,9.974c0.243,0.186,0.558,0.315,1.205,1.79l3.065,7.004h-2.182l-2.895-6.602     c-0.267-0.573-0.551-1.138-1.045-1.338c0,0-0.324-0.181-1.229-0.181h-4.721v8.117h-2.002V0.305l6.487,0     c1.971,0,3.522,0.426,4.619,1.322l0,0c1.086,0.886,1.574,2.313,1.573,3.801C40.418,5.428,40.644,8.831,37.543,9.974z      M38.371,5.471c-0.005-1.033-0.361-1.965-1.1-2.532l0,0c-0.738-0.561-1.724-0.865-3.321-0.865l0,0l-0.001,0H29.74v6.805h4.259     c1.587,0,2.565-0.302,3.289-0.858l0,0C38.014,7.462,38.366,6.524,38.371,5.471L38.371,5.471z"/>
		</g>
	</g>
	<g>
		<g>
			<path d="M65.312,6.86V0.325h1.886v18.441h-1.886v-0.665c-1.609,0.982-3.204,0.896-3.204,0.896     c-2.906-0.006-4.458-1.874-4.458-1.874s-1.817-1.561-1.817-4.593c-0.003-1.841,0.601-3.381,1.792-4.599l0,0     c1.186-1.222,2.704-1.843,4.484-1.843C63.798,6.089,65.312,6.86,65.312,6.86z M62.171,7.937c-1.297,0.004-2.32,0.42-3.149,1.265     l0,0l0,0c-0.825,0.847-1.235,1.909-1.238,3.252l0,0c0.004,1.365,0.44,2.461,1.326,3.359l0,0c0.891,0.895,1.973,1.333,3.32,1.336     c0,0,1.408,0.082,2.883-0.934v-7.31C65.312,8.906,63.925,7.937,62.171,7.937z"/>
		</g>
	</g>
	<g>
		<g>
			<polygon points="2.001,0.325 2.001,16.996 9.478,16.996 9.478,18.766 0,18.766 0,18.766 0,0.325    "/>
		</g>
	</g>
	<g>
		<g>
			<path d="M69.401,12.544c-0.001-1.819,0.61-3.375,1.817-4.601l0,0c1.202-1.229,2.729-1.856,4.509-1.855     c0,0,2.611-0.16,4.521,1.856l0,0c1.197,1.226,1.803,2.78,1.803,4.599l0.001,0.024c0,1.811-0.606,3.36-1.804,4.581l0,0     c-1.195,1.227-2.717,1.849-4.495,1.849l0,0h-0.001l0,0c-0.004,0-0.009,0-0.012,0l0,0c-0.005,0-0.01,0-0.013,0l0,0     c-1.78,0-3.307-0.622-4.509-1.848l0,0c-1.207-1.221-1.818-2.771-1.818-4.581L69.401,12.544z M72.609,9.244     c-0.841,0.879-1.256,1.961-1.259,3.313l0,0c0.003,1.342,0.418,2.416,1.258,3.292l0,0c0.847,0.873,1.863,1.298,3.132,1.301l0,0     c1.258-0.003,2.268-0.427,3.109-1.301l0,0c0.836-0.875,1.249-1.949,1.252-3.292l0,0c-0.003-1.333-0.418-2.411-1.259-3.301l0,0     c-0.847-0.886-1.856-1.316-3.103-1.32l0,0C74.473,7.94,73.455,8.367,72.609,9.244L72.609,9.244z"/>
		</g>
	</g>
	<g>
		<g>
			<path d="M91.234,18.452c-0.639,0.368-1.428,0.542-2.357,0.542c-2.218,0.019-3.367-1.322-3.367-1.322     c-0.9-0.889-1.34-2.148-1.34-3.706l0.002-7.647h1.872v7.612c0,0-0.076,1.491,0.815,2.372c0.545,0.563,1.226,0.841,2.12,0.844     c1.292,0,1.936-0.515,1.936-0.515c0.508-0.33,1.052-0.924,1.603-1.788V6.318h1.873v12.444h-1.873v-1.426     C92.518,17.337,92.06,17.954,91.234,18.452z"/>
		</g>
	</g>
</g>
<script xmlns=""/></svg>