<svg enable-background="new 0 0 116 19" height="19" viewBox="0 0 116 19" width="116" xmlns="http://www.w3.org/2000/svg"><path d="m115.975 12.768-9.479.006c-.008.399.031 2.101 1.199 3.149.877.831 1.846 1.229 3.059 1.231 0 0 2.063-.003 3.297-1.524l1.658.817c-1.029 1.62-3.316 2.514-5.059 2.513-.002 0-.002 0-.005.001-.005 0-.01 0-.014 0-1.771 0-3.277-.632-4.441-1.872-1.169-1.237-1.604-2.831-1.604-4.714l.001-.021c0-1.786.54-3.306 1.623-4.497 1.075-1.193 2.468-1.807 4.098-1.807.001.001 5.883-.447 5.667 6.718zm-5.556-4.888c-.905.002-1.729.282-2.394.837 0 0-1.072.845-1.301 2.409h7.215c-.256-3.443-3.52-3.246-3.52-3.246z"/><path d="m53.98 12.771-9.479.005c-.008.4.031 2.102 1.199 3.15.877.829 1.845 1.228 3.059 1.23 0 0 2.062-.003 3.296-1.524l1.658.817c-1.029 1.62-3.316 2.513-5.058 2.513-.002 0-.002 0-.006 0-.004 0-.008 0-.014 0-1.77 0-3.277-.63-4.441-1.871-1.168-1.237-1.604-2.83-1.604-4.713l.002-.021c-.001-1.787.54-3.305 1.622-4.497 1.076-1.193 2.468-1.806 4.098-1.806.001 0 5.885-.449 5.668 6.717zm-5.555-4.888c-.907.002-1.731.282-2.394.835 0 0-1.073.845-1.301 2.41h7.215c-.258-3.443-3.52-3.245-3.52-3.245z"/><path d="m103.657 18.694c-1.294.338-2.308.303-2.308.303-.834 0-1.565-.247-2.144-.742-.956-.75-.894-2.084-.894-2.084v-8.209h-2.539v-1.642h2.539v-3.924l1.873-.001v3.927h2.891v1.641h-2.891v6.729s.016 1.032.061 1.364c.044.33.287 1.177 1.409 1.107.364-.023 1.157-.127 1.634-.215z"/><path d="m12.01 18.095c-1.116-1.039-1.021-2.396-1.021-2.396 0-.699.163-1.322.489-1.877.442-.819 1.442-1.421 1.442-1.421 1.205-.748 3.47-1.174 5.573-1.309v-1.215c-.002-.756-.202-1.258-.56-1.59-.627-.574-1.762-.523-1.762-.523-1.019 0-1.945.295-3.414 1.095l-.734-1.403c1.375-.921 3.075-1.362 4.355-1.362 1.883 0 2.838.858 2.838.858.77.579 1.163 1.449 1.163 2.511l-.001 9.303h-1.89l.001-.931c-4.346 2.438-6.479.26-6.479.26zm.849-2.399s.056 1.648 2.036 1.648c.95 0 2.498-.385 3.597-1.291l.001-3.429c-6.196.265-5.634 3.072-5.634 3.072z"/><path d="m37.543 9.974c.243.186.558.315 1.205 1.79l3.065 7.004h-2.182l-2.895-6.602c-.267-.573-.551-1.138-1.045-1.338 0 0-.324-.181-1.229-.181h-4.721v8.117h-2.002v-18.459h6.487c1.971 0 3.522.426 4.619 1.322 1.086.886 1.574 2.313 1.573 3.801 0 0 .226 3.403-2.875 4.546zm.828-4.503c-.005-1.033-.361-1.965-1.1-2.532-.738-.561-1.724-.865-3.321-.865h-.001-4.209v6.805h4.259c1.587 0 2.565-.302 3.289-.858.726-.559 1.078-1.497 1.083-2.55z"/><path d="m65.312 6.86v-6.535h1.886v18.441h-1.886v-.665c-1.609.982-3.204.896-3.204.896-2.906-.006-4.458-1.874-4.458-1.874s-1.817-1.561-1.817-4.593c-.003-1.841.601-3.381 1.792-4.599 1.186-1.222 2.704-1.843 4.484-1.843 1.689.001 3.203.772 3.203.772zm-3.141 1.077c-1.297.004-2.32.42-3.149 1.265-.825.847-1.235 1.909-1.238 3.252.004 1.365.44 2.461 1.326 3.359.891.895 1.973 1.333 3.32 1.336 0 0 1.408.082 2.883-.934v-7.31c-.001.001-1.388-.968-3.142-.968z"/><path d="m2.001.325v16.671h7.477v1.77h-9.478v-18.441z"/><path d="m69.401 12.544c-.001-1.819.61-3.375 1.817-4.601 1.202-1.229 2.729-1.856 4.509-1.855 0 0 2.611-.16 4.521 1.856 1.197 1.226 1.803 2.78 1.803 4.599l.001.024c0 1.811-.606 3.36-1.804 4.581-1.195 1.227-2.717 1.849-4.495 1.849h-.001c-.004 0-.009 0-.012 0-.005 0-.01 0-.013 0-1.78 0-3.307-.622-4.509-1.848-1.207-1.221-1.818-2.771-1.818-4.581zm3.208-3.3c-.841.879-1.256 1.961-1.259 3.313.003 1.342.418 2.416 1.258 3.292.847.873 1.863 1.298 3.132 1.301 1.258-.003 2.268-.427 3.109-1.301.836-.875 1.249-1.949 1.252-3.292-.003-1.333-.418-2.411-1.259-3.301-.847-.886-1.856-1.316-3.103-1.32-1.266.004-2.284.431-3.13 1.308z"/><path d="m91.234 18.452c-.639.368-1.428.542-2.357.542-2.218.019-3.367-1.322-3.367-1.322-.9-.889-1.34-2.148-1.34-3.706l.002-7.647h1.872v7.612s-.076 1.491.815 2.372c.545.563 1.226.841 2.12.844 1.292 0 1.936-.515 1.936-.515.508-.33 1.052-.924 1.603-1.788v-8.526h1.873v12.444h-1.873v-1.426c0 .001-.458.618-1.284 1.116z"/></svg>