<svg id="Layer_1" data-name="Layer 1" xmlns="http://www.w3.org/2000/svg" viewBox="0 0 500 60"><path d="M68.35 58a15.64 15.64 0 01-5.53-1 12 12 0 01-4.48-3 13.79 13.79 0 01-3-5 20.89 20.89 0 01-1.08-7.07V29.87l9.62-6h.46V40a9.88 9.88 0 002 6.59q2 2.36 6 2.36h.8q4 0 6-2.36a9.88 9.88 0 002-6.59V23.88h.44l9.65 6v12.17a20.89 20.89 0 01-1.08 7.07 13.92 13.92 0 01-3 5 12 12 0 01-4.49 3 15.62 15.62 0 01-5.52 1z"/><path d="M91.25 23.23v-5a7.86 7.86 0 00-1.08-4.18 8.83 8.83 0 00-3-3 14.56 14.56 0 00-4.49-1.75 25.42 25.42 0 00-5.52-.57h-1V1h-6.77v7.78h-1a25.45 25.45 0 00-5.53.57 14.4 14.4 0 00-4.48 1.75 8.77 8.77 0 00-3 3 7.86 7.86 0 00-1.08 4.18v5h1.11l10.19-6.41 6.59 10.55h1.13l6.59-10.55 10.23 6.36zM183.96 1v56h10.06V41.48h1.92L207.28 57h11.5v-.48L204.72 37.4v-1.44L217.5 17.8v-.48h-11.02l-10.54 14.56h-1.92V1h-10.06zm-71.14 25.2a6.59 6.59 0 013.84-.92 7.7 7.7 0 014.55 1.24 6.53 6.53 0 012.47 3.39l9.11-3.67a17.85 17.85 0 00-1.79-3.48 13.87 13.87 0 00-3.11-3.27 15.61 15.61 0 00-4.68-2.4 20.63 20.63 0 00-6.5-.92 19.72 19.72 0 00-5.59.8 15 15 0 00-4.8 2.36 12.4 12.4 0 00-3.35 3.79 10.29 10.29 0 00-1.28 5.19v.48q0 5.67 4 8.59t10.67 3.47a29.36 29.36 0 014.11.64 9.11 9.11 0 012.6 1 3.57 3.57 0 011.31 1.28 3.08 3.08 0 01.36 1.47 3.26 3.26 0 01-1.4 2.52c-.93.77-2.64 1.16-5.15 1.16q-4.23 0-6.27-1.92a9.1 9.1 0 01-2.67-4.47l-9.27 3a15.69 15.69 0 001.56 4.28 13.3 13.3 0 003.32 4 17.73 17.73 0 005.43 3 23 23 0 007.9 1.2q7.83 0 12.14-3.51a11.53 11.53 0 004.32-9.43v-.47a10 10 0 00-3.84-8.34 18.87 18.87 0 00-9.9-3.63 29.62 29.62 0 01-7.27-1.4 2.86 2.86 0 01-2-2.76 2.72 2.72 0 011.28-2.27m40.38 0a6.58 6.58 0 013.83-.92 7.71 7.71 0 014.56 1.24 6.53 6.53 0 012.47 3.39l9.11-3.67a17.85 17.85 0 00-1.84-3.48 13.87 13.87 0 00-3.11-3.27 15.61 15.61 0 00-4.68-2.4 20.65 20.65 0 00-6.51-.92 19.83 19.83 0 00-5.59.8 15.1 15.1 0 00-4.79 2.36 12.4 12.4 0 00-3.35 3.79 10.29 10.29 0 00-1.28 5.19v.48q0 5.67 3.95 8.59t10.67 3.47a29.36 29.36 0 014.11.64 8.91 8.91 0 012.59 1 3.53 3.53 0 011.32 1.28 3.08 3.08 0 01.36 1.47 3.29 3.29 0 01-1.4 2.52q-1.4 1.16-5.15 1.16-4.23 0-6.27-1.92a9.1 9.1 0 01-2.67-4.47l-9.27 3a15.69 15.69 0 001.56 4.28 13.3 13.3 0 003.32 4 17.73 17.73 0 005.43 3 23 23 0 007.9 1.2q7.83 0 12.14-3.51a11.52 11.52 0 004.29-9.42v-.48a10 10 0 00-3.83-8.34 18.87 18.87 0 00-9.9-3.63 29.62 29.62 0 01-7.27-1.4 2.86 2.86 0 01-2-2.76 2.72 2.72 0 011.28-2.27m82.64 10.22a13.22 13.22 0 012.2-8c1.46-2 3.69-3 6.67-3a7.21 7.21 0 015.87 2.44 10 10 0 012 6.67V57h10.07V32a20.49 20.49 0 00-1.08-7 13.14 13.14 0 00-3-4.87 11.88 11.88 0 00-4.43-2.83 15.41 15.41 0 00-5.39-.92 13.54 13.54 0 00-7.11 1.83 10.57 10.57 0 00-4.39 5.2h-1.44v-5.99h-10.03V57h10.06zm63.84 1.16a11.38 11.38 0 01-2.64 7.94 9.91 9.91 0 01-14.05 0 11.38 11.38 0 01-2.64-7.94v-1a11.41 11.41 0 012.64-7.95 9.93 9.93 0 0114.05 0 11.41 11.41 0 012.64 7.95zm13.73 19.32v-9.58H312q-2.16 0-2.16-2.4V17.29h-10.08v4.79h-1.44a10.07 10.07 0 00-4.11-4.47 14.05 14.05 0 00-6.83-1.44 15.68 15.68 0 00-12 5.43 19.77 19.77 0 00-3.66 6.4 25 25 0 00-1.35 8.47v1.28a24.4 24.4 0 001.39 8.54 19.54 19.54 0 003.8 6.39 15.82 15.82 0 005.55 4 16.79 16.79 0 006.75 1.32 13.88 13.88 0 006.71-1.56 10.32 10.32 0 004.43-5.29h1.43a5.44 5.44 0 001.72 4.16 6.27 6.27 0 004.43 1.59zm37.97-17.01a11 11 0 01-3.15 6.23q-2.43 2.33-7.07 2.32a12.16 12.16 0 01-4.07-.68 9.31 9.31 0 01-3.36-2 9.67 9.67 0 01-2.27-3.39 12.19 12.19 0 01-.84-4.67v-.48a12.76 12.76 0 01.84-4.75 11 11 0 012.27-3.6 10 10 0 013.36-2.27 10.33 10.33 0 014.07-.8q4.63 0 7.19 2.55a10.35 10.35 0 013 6.07l9.91-2.55a19 19 0 00-6.51-11.34q-5.16-4.32-13.46-4.32a22.6 22.6 0 00-8.1 1.44 19.59 19.59 0 00-6.63 4.15 19.38 19.38 0 00-4.44 6.55 22.34 22.34 0 00-1.59 8.63v1a21.71 21.71 0 001.59 8.54 17.82 17.82 0 004.4 6.31 19 19 0 006.59 3.91A23.92 23.92 0 00341.4 58q8.46 0 13.54-4.31a19.22 19.22 0 006.43-11.34zM369.25 1v56h10.07V41.48h1.91L392.57 57h11.5v-.48L390.02 37.4v-1.44L402.8 17.8v-.48h-11.02l-10.55 14.56h-1.91V1h-10.07zm68.45 30.75H419a8.87 8.87 0 013.11-4.51 9.5 9.5 0 016.23-2 10.45 10.45 0 016.35 1.84 7 7 0 013 4.63m10.23 8.62V35a20.26 20.26 0 00-1.12-6.43 18 18 0 00-3.52-6.07 19 19 0 00-6.05-4.5 19.8 19.8 0 00-8.79-1.8 20.61 20.61 0 00-7.79 1.48 19.85 19.85 0 00-6.35 4.11 18.92 18.92 0 00-4.3 6.36 21.47 21.47 0 00-1.56 8.31v.48A25 25 0 00410 45.8a18.83 18.83 0 004.15 6.63 18 18 0 006.35 4.15 22.18 22.18 0 008.1 1.42 23.64 23.64 0 006.83-.88 18.58 18.58 0 004.95-2.23 14 14 0 003.31-3 17.22 17.22 0 002-3.15L437.07 44a8 8 0 01-2.88 3.15 10.43 10.43 0 01-5.75 1.32 10.88 10.88 0 01-3.63-.6 9.87 9.87 0 01-3-1.68 7.92 7.92 0 01-2.07-2.55 7.7 7.7 0 01-.84-3.24zm7.01-13.45h7.19v20.44H454v9.58h27.31v-9.58h-9.1V34.54q0-4.3 1.92-6.63a6.46 6.46 0 015.27-2.31 6.28 6.28 0 015 1.95 7.78 7.78 0 011.68 5.24v1.11l10.38-.9v-1.81q0-7.59-3.6-11.3a12.59 12.59 0 00-9.5-3.72 11.25 11.25 0 00-6.43 1.8 9.67 9.67 0 00-3.79 5.03h-1.44v-5.71h-16.77zM33.63 1v48.8h-1.44L21.07 1H1v56h10.4V8.2h1.44L23.95 57h20.08V1h-10.4z"/></svg>