<svg enable-background="new 0 0 663.3 146.1" viewBox="0 0 663.3 146.1" xmlns="http://www.w3.org/2000/svg"><path d="m39.4 33.3c-21.7 0-39.4 17.7-39.4 39.5s17.7 39.4 39.4 39.4 39.4-17.7 39.4-39.4-17.7-39.5-39.4-39.5zm0 65c-14.1 0-25.5-11.4-25.5-25.5s11.4-25.5 25.5-25.5 25.5 11.4 25.5 25.5c0 14-11.4 25.5-25.5 25.5zm203.3-62.2h14.6v73.8h-14.6zm7.2-36.1c2.7 0 5 .9 6.9 2.7s2.9 4.1 2.9 6.8-1 4.9-2.9 6.7-4.2 2.6-6.9 2.6-4.9-.9-6.8-2.7c-1.8-1.8-2.8-4-2.8-6.6 0-2.7.9-5 2.8-6.8 1.9-1.8 4.2-2.7 6.8-2.7m139.6 43c2.3 2.7 4 5.9 5.1 9.5s1.6 7.5 1.6 11.7v45.8h-14.6v-41.1c0-3-.3-5.9-.8-8.6s-1.4-5.1-2.6-7.2-2.9-3.7-5-5c-2.1-1.2-4.7-1.9-7.9-1.9-3.3 0-6.2.7-8.6 2.1s-4.3 3.2-5.8 5.4-2.6 4.7-3.3 7.6c-.7 2.8-1 5.7-1 8.6v39.8h-14.6v-43.7c0-2.9-.3-5.6-.8-7.9-.5-2.4-1.4-4.4-2.6-6.1s-2.9-3.1-4.8-4c-2-1-4.4-1.5-7.3-1.5-5.4 0-9.9 2.2-13.5 6.6s-5.4 10.3-5.4 17.7v39.2h-14.6v-58c0-2-.1-4.5-.2-7.6s-.3-5.9-.5-8.2h13.8c.3 1.9.6 6.7.6 8.2 0 0 8-10.2 23.9-10.2 5 0 9.5 1.1 13.5 3.4 3 1.7 5.5 4.3 7.5 7.7 6.1-6.4 14.2-11.1 26.9-11.1 4.8 0 8.9.8 12.3 2.4 3.5 1.5 6.4 3.7 8.7 6.4m174.5-6.9h15.5l-29.5 73.8h-15.9l-30-73.8h16.2l21.6 55.7h.3zm-428.5-2.6c-9.4 0-18 3.3-24.8 8.8v-6h-14.6v43.7 66.1h14.6v-42.6c6.8 5.5 15.4 8.8 24.8 8.8 21.7 0 39.4-17.7 39.4-39.4s-17.7-39.4-39.4-39.4m0 65.2c-14.2 0-25.7-11.6-25.7-25.8s11.5-25.8 25.7-25.8 25.7 11.6 25.7 25.8-11.5 25.8-25.7 25.8m71-62.6h18.6v12.6h-18.6v30.5c0 8.5 5.5 17.6 13.3 22.4l-5.5 12.6c-13.2-6.4-22.4-19.9-22.4-35.6v-.1-60.5h14.6zm454.3 20.3c-1.7-4.7-4-8.7-7.1-12.1-3.1-3.3-6.8-5.9-11.2-7.6-4.4-1.8-9.3-2.6-14.7-2.6s-10.4 1-15.1 2.9-8.7 4.6-12.2 8c-3.4 3.4-6.1 7.5-8 12.4-1.9 4.8-2.9 10.1-2.9 15.8 0 5.8 1 11.1 3 15.9s4.7 8.8 8.1 12.2 7.5 6 12.3 7.9 10 2.8 15.6 2.8c6.5 0 12.5-1.2 17.8-3.7s10-6.3 13.9-11.6l-10.3-8.2c-2.1 3.1-4.9 5.8-8.5 7.9-3.6 2.2-7.9 3.3-12.9 3.3-3.2 0-6.2-.6-9.1-1.7s-5.4-2.7-7.5-4.7c-2.2-2-3.9-4.4-5.2-7.1s-2-5.6-2.1-8.7h58.6c.1-.8.2-1.7.2-2.5v-2.5c-.2-6-1-11.4-2.7-16.1m-56.2 9c.3-2.5 1-4.9 2.1-7.1 1.3-2.5 3-4.7 5-6.6s4.4-3.4 7.2-4.4c2.7-1.1 5.7-1.6 8.8-1.6 3.4 0 6.4.5 8.9 1.6s4.7 2.6 6.4 4.4c1.7 1.9 3 4.1 3.9 6.6.8 2.2 1.2 4.6 1.4 7.1zm-120 44.5h-54.8l-16.9-52.2 44.4-32.2 44.4 32.2zm-44.5-14.2h34.1l10.5-32.4-27.6-20-27.6 20z" fill="#0d0116"/></svg>