<svg height="67" viewBox="0 0 501 68" width="500" xmlns="http://www.w3.org/2000/svg"><g fill="#0c5aa5"><path d="m1.215 139.994a4.414 4.414 0 0 0 1.864 1.612 5.571 5.571 0 0 0 2.341.519 4.776 4.776 0 0 0 1.374-.21 4.159 4.159 0 0 0 1.275-.631 3.443 3.443 0 0 0 .939-1.037 2.756 2.756 0 0 0 .365-1.43 2.145 2.145 0 0 0 -.729-1.752 6.3 6.3 0 0 0 -1.808-1.009q-1.08-.406-2.355-.785a9.555 9.555 0 0 1 -2.355-1.051 5.752 5.752 0 0 1 -1.808-1.808 5.63 5.63 0 0 1 -.729-3.07 5.294 5.294 0 0 1 1.571-3.642 6.579 6.579 0 0 1 2.089-1.36 7.777 7.777 0 0 1 3.07-.546 10.72 10.72 0 0 1 3.111.448 5.353 5.353 0 0 1 2.607 1.822l-2.187 1.99a3.639 3.639 0 0 0 -1.429-1.262 4.527 4.527 0 0 0 -2.1-.476 5.1 5.1 0 0 0 -1.864.295 3.348 3.348 0 0 0 -1.191.757 2.67 2.67 0 0 0 -.631.995 3.04 3.04 0 0 0 -.182.981 2.5 2.5 0 0 0 .729 1.934 5.659 5.659 0 0 0 1.808 1.093 21.733 21.733 0 0 0 2.355.757 10.075 10.075 0 0 1 2.355.939 5.491 5.491 0 0 1 1.808 1.626 4.783 4.783 0 0 1 .729 2.818 5.932 5.932 0 0 1 -.547 2.579 5.719 5.719 0 0 1 -1.472 1.934 6.516 6.516 0 0 1 -2.187 1.205 8.446 8.446 0 0 1 -2.691.421 9.787 9.787 0 0 1 -3.616-.672 5.926 5.926 0 0 1 -2.724-2.078z" transform="translate(1 -117.252)"/><path d="m200.8 128.584a5.554 5.554 0 0 0 -2.13-1.682 6.344 6.344 0 0 0 -2.663-.589 7.145 7.145 0 0 0 -3.042.631 7 7 0 0 0 -2.327 1.724 7.854 7.854 0 0 0 -1.5 2.565 9.2 9.2 0 0 0 -.533 3.154 8.705 8.705 0 0 0 .5 2.971 7.42 7.42 0 0 0 1.458 2.467 6.817 6.817 0 0 0 2.327 1.682 7.511 7.511 0 0 0 3.111.617 6.177 6.177 0 0 0 3-.7 6.443 6.443 0 0 0 2.187-1.963l2.27 1.71a9.1 9.1 0 0 1 -.785.883 7.892 7.892 0 0 1 -1.473 1.146 10.519 10.519 0 0 1 -2.229 1.01 9.529 9.529 0 0 1 -3.013.434 9.8 9.8 0 0 1 -4.247-.9 10.4 10.4 0 0 1 -5.957-9.363 11.626 11.626 0 0 1 .757-4.247 10.057 10.057 0 0 1 2.116-3.364 9.469 9.469 0 0 1 3.266-2.2 10.949 10.949 0 0 1 4.205-.785 10.291 10.291 0 0 1 3.854.757 7.2 7.2 0 0 1 3.1 2.327z" transform="translate(-170.472 -117.252)"/><path d="m433.47 129.97h2.692v8.241h10.288v-8.241h2.691v19.847h-2.691v-9.083h-10.288v9.083h-2.692z" transform="translate(-397.925 -122.927)"/><path d="m678.81 129.97h6.98a8.159 8.159 0 0 1 3.14.519 5.339 5.339 0 0 1 1.948 1.317 4.478 4.478 0 0 1 .995 1.794 7.087 7.087 0 0 1 .281 1.92 5.112 5.112 0 0 1 -.336 1.836 5.177 5.177 0 0 1 -.967 1.6 5.507 5.507 0 0 1 -1.541 1.205 5.363 5.363 0 0 1 -2.032.6l5.634 9.055h-3.364l-5.048-8.746h-3v8.747h-2.69zm2.691 8.746h3.532a9.612 9.612 0 0 0 1.556-.126 4.186 4.186 0 0 0 1.374-.462 2.529 2.529 0 0 0 .967-.967 3.865 3.865 0 0 0 0-3.279 2.529 2.529 0 0 0 -.967-.967 4.167 4.167 0 0 0 -1.374-.462 9.6 9.6 0 0 0 -1.556-.126h-3.533z" transform="translate(-623.193 -122.927)"/><path d="m874.874 144.656a10.7 10.7 0 0 1 -4.177-.8 9.714 9.714 0 0 1 -3.266-2.2 10.168 10.168 0 0 1 -2.13-3.308 11.4 11.4 0 0 1 0-8.242 10.167 10.167 0 0 1 2.13-3.308 9.726 9.726 0 0 1 3.266-2.2 11.322 11.322 0 0 1 8.353 0 9.734 9.734 0 0 1 3.266 2.2 10.177 10.177 0 0 1 2.13 3.308 11.4 11.4 0 0 1 0 8.242 10.173 10.173 0 0 1 -2.13 3.308 9.723 9.723 0 0 1 -3.266 2.2 10.7 10.7 0 0 1 -4.177.8m0-2.523a7.214 7.214 0 0 0 5.438-2.327 7.48 7.48 0 0 0 1.513-2.509 9.112 9.112 0 0 0 0-6.139 7.5 7.5 0 0 0 -1.513-2.509 7.433 7.433 0 0 0 -10.876 0 7.454 7.454 0 0 0 -1.513 2.509 9.112 9.112 0 0 0 0 6.139 7.467 7.467 0 0 0 1.513 2.509 7.214 7.214 0 0 0 5.438 2.327" transform="translate(-793.719 -117.262)"/><path d="m1150.62 129.97h6.924a12.847 12.847 0 0 1 3.686.476 9.837 9.837 0 0 1 2.747 1.275 8.074 8.074 0 0 1 1.934 1.836 9.846 9.846 0 0 1 1.22 2.13 10.8 10.8 0 0 1 .645 2.187 11.479 11.479 0 0 1 .2 2.018 9.977 9.977 0 0 1 -.7 3.686 9.315 9.315 0 0 1 -2.075 3.168 10.208 10.208 0 0 1 -3.406 2.229 12.208 12.208 0 0 1 -4.7.841h-6.475zm2.692 17.324h3.392a11.122 11.122 0 0 0 3.238-.462 7.843 7.843 0 0 0 2.677-1.388 6.645 6.645 0 0 0 1.822-2.313 7.347 7.347 0 0 0 .672-3.238 9.679 9.679 0 0 0 -.308-2.229 6.7 6.7 0 0 0 -1.163-2.425 6.907 6.907 0 0 0 -2.368-1.948 8.394 8.394 0 0 0 -3.925-.8h-4.037z" transform="translate(-1056.404 -122.927)"/><path d="m114.736 7.043h2.691v19.847h-2.691z"/><path d="m1488.13 129.97h3.532l10.932 16.315h.057v-16.315h2.691v19.847h-3.42l-11.045-16.317h-.056v16.315h-2.691z" transform="translate(-1366.301 -122.927)"/><path d="m1755.367 133.032v9.783a9.016 9.016 0 0 1 -1.654.785 17.455 17.455 0 0 1 -1.92.574 16.239 16.239 0 0 1 -2.018.35 17.762 17.762 0 0 1 -1.92.112 11.4 11.4 0 0 1 -4.5-.841 9.652 9.652 0 0 1 -5.41-5.592 11.213 11.213 0 0 1 -.715-3.995 10.892 10.892 0 0 1 .771-4.121 10.166 10.166 0 0 1 2.13-3.308 9.724 9.724 0 0 1 3.266-2.2 10.7 10.7 0 0 1 4.177-.8 12.355 12.355 0 0 1 4.485.687 8.261 8.261 0 0 1 2.916 1.892l-1.906 2.046a7.047 7.047 0 0 0 -2.607-1.64 8.987 8.987 0 0 0 -2.887-.462 7.213 7.213 0 0 0 -5.438 2.327 7.458 7.458 0 0 0 -1.514 2.509 8.8 8.8 0 0 0 -.532 3.07 8.194 8.194 0 0 0 .589 3.126 7.75 7.75 0 0 0 1.625 2.509 7.5 7.5 0 0 0 2.439 1.668 7.641 7.641 0 0 0 3.056.6 13.163 13.163 0 0 0 2.705-.267 7.6 7.6 0 0 0 2.173-.771v-5.522h-4.4v-2.523h7.091z" transform="translate(-1595.022 -117.243)"/><path d="m2010.32 129.97h12.811v2.523h-10.12v5.914h9.419v2.523h-9.419v6.363h10.624v2.523h-13.315z" transform="translate(-1845.77 -122.927)"/><path d="m2211.1 129.97h6.98a8.158 8.158 0 0 1 3.14.519 5.336 5.336 0 0 1 1.948 1.317 4.486 4.486 0 0 1 .995 1.794 7.087 7.087 0 0 1 .281 1.92 5.114 5.114 0 0 1 -.336 1.836 5.178 5.178 0 0 1 -.967 1.6 5.506 5.506 0 0 1 -1.541 1.205 5.364 5.364 0 0 1 -2.032.6l5.634 9.055h-3.364l-5.046-8.747h-3v8.747h-2.692zm2.692 8.746h3.532a9.611 9.611 0 0 0 1.556-.126 4.184 4.184 0 0 0 1.374-.462 2.528 2.528 0 0 0 .967-.967 3.872 3.872 0 0 0 0-3.279 2.528 2.528 0 0 0 -.967-.967 4.166 4.166 0 0 0 -1.374-.462 9.606 9.606 0 0 0 -1.556-.126h-3.532z" transform="translate(-2030.124 -122.927)"/><path d="m2408.64 325.972a2.02 2.02 0 0 1 .168-.821 2.145 2.145 0 0 1 1.124-1.124 2.091 2.091 0 0 1 1.641 0 2.146 2.146 0 0 1 1.124 1.124 2.091 2.091 0 0 1 0 1.641 2.183 2.183 0 0 1 -.454.67 2.154 2.154 0 0 1 -.67.454 2.091 2.091 0 0 1 -1.641 0 2.145 2.145 0 0 1 -1.124-1.124 2.035 2.035 0 0 1 -.168-.82zm.375 0a1.68 1.68 0 0 0 .137.676 1.732 1.732 0 0 0 .926.926 1.74 1.74 0 0 0 1.352 0 1.766 1.766 0 0 0 .554-.372 1.741 1.741 0 0 0 .371-.554 1.741 1.741 0 0 0 0-1.352 1.728 1.728 0 0 0 -.925-.926 1.74 1.74 0 0 0 -1.352 0 1.732 1.732 0 0 0 -.926.926 1.7 1.7 0 0 0 -.137.676zm.926-1.221h.931a.94.94 0 0 1 .645.187.689.689 0 0 1 .207.539.641.641 0 0 1 -.163.477.677.677 0 0 1 -.411.187l.624 1.022h-.465l-.6-.988h-.324v.988h-.443v-2.413zm.442 1.05h.324c.068 0 .137 0 .2-.008a.609.609 0 0 0 .184-.043.313.313 0 0 0 .134-.1.3.3 0 0 0 .051-.187.313.313 0 0 0 -.051-.187.32.32 0 0 0 -.134-.1.563.563 0 0 0 -.184-.04c-.068 0-.137-.006-.2-.006h-.324z" transform="translate(-2211.503 -300.954)"/></g><path d="m924.551 45.975a2.1 2.1 0 1 1 -2.1-2.1 2.1 2.1 0 0 1 2.1 2.1" fill="#e5823f" transform="translate(-844.982 -43.88)"/><path d="m1018.891 45.975a2.1 2.1 0 1 1 -2.1-2.1 2.1 2.1 0 0 1 2.1 2.1" fill="#e5823f" transform="translate(-931.604 -43.88)"/></svg>