<?xml version="1.0" encoding="UTF-8"?>
<svg width="383px" height="100px" viewBox="0 0 383 100" version="1.1" xmlns="http://www.w3.org/2000/svg" xmlns:xlink="http://www.w3.org/1999/xlink">
    <!-- Generator: Sketch 53.2 (72643) - https://sketchapp.com -->
    <title>Final Logo@2x</title>
    <desc>Created with Sketch.</desc>
    <g id="Final-Logo" stroke="none" stroke-width="1" fill="none" fill-rule="evenodd">
        <g id="Asset-1" fill-rule="nonzero">
            <path d="M169.07,75 C153.49,75 143,64.89 143,52.59 L155.82,52.59 C155.93,58.21 161.33,63.4 169.39,63.4 C176.81,63.4 181.58,59.16 181.58,53.4 C181.58,48.31 177.23,45.35 171.09,43.65 L162,41.15 C146.31,37.15 143.56,27.69 143.56,21.33 C143.53,8.4 154.87,0 168.33,0 C181.79,0 192.18,8.29 192.18,22 L179.35,22 C179.35,16 174.79,11.61 168.01,11.61 C161.76,11.61 156.56,15.43 156.56,21.15 C156.56,23.15 157.2,27.51 165.56,29.63 L174.25,31.96 C185.7,35.14 194.49,41.29 194.49,52.96 C194.51,66.26 183.38,75 169.07,75 Z M261.89,23.41 C274.28,23.41 280.89,31.76 280.89,46.14 L280.89,73.8 L268.67,73.8 L268.67,47.05 C268.67,39.12 264.54,35.21 258.82,35.21 C246.95,35.21 247.7,49 247.7,49 L247.7,73.8 L235.42,73.8 L235.42,47.05 C235.42,39.12 231.29,35.21 226,35.21 C220.28,35.21 214.57,38.38 214.57,47.79 L214.57,73.79 L202.28,73.79 L202.28,24.43 L214.56,24.43 L214.56,32.89 C216.36,26.65 223.14,23.37 229.28,23.37 C236.48,23.37 242.41,26.75 245.28,33.1 C249.18,25.27 256.91,23.37 261.89,23.37 L261.89,23.41 Z M290.89,73.84 L290.89,24.52 L303.26,24.52 L303.26,73.8 L290.89,73.84 Z M313.89,73.84 L313.89,0 L326.26,0 L326.26,73.8 L313.89,73.84 Z M369.68,24.56 L383,24.56 L352.19,98 L339.19,98 L350.34,70.51 L330.58,24.51 L344.07,24.51 L357,55.82 L369.68,24.56 Z M297.15,15.25 C292.952636,15.25 289.55,11.8473641 289.55,7.65 C289.55,3.4526359 292.952636,0.05 297.15,0.05 C301.347364,0.05 304.75,3.4526359 304.75,7.65 C304.72813,11.8161802 301.35618,15.1881298 297.19,15.21 L297.15,15.25 Z" id="Smily" fill="#272B45"></path>
            <path d="M62,75 C54.4693632,75.0248821 47.0888588,72.8943556 40.73,68.86 C34.0948253,64.5983468 29.1815467,58.1264218 26.86,50.59 C26.5946679,49.809479 26.9499819,48.9533007 27.69,48.59 C28.4078284,48.2318504 29.2796727,48.4530011 29.74,49.11 C36.9108838,59.6625328 48.8415705,65.9798083 61.6,65.9798083 C74.3584295,65.9798083 86.2891162,59.6625328 93.46,49.11 C93.92171,48.4542733 94.7918041,48.2318203 95.5115799,48.5854817 C96.2313557,48.9391432 96.5869375,49.7638314 96.35,50.53 C94.1790835,58.099324 89.3822744,64.647518 82.82,69 C76.6193345,73.0001514 69.3784769,75.0868539 62,75 Z M49,26.7 C48.7501004,26.6996251 48.5036755,26.6414415 48.28,26.53 L25.28,15.18 L2.28,26.53 C1.57791964,26.846392 0.750141136,26.6248149 0.3,26 C-0.154691415,25.3466494 -0.0745731297,24.4611315 0.49,23.9 L24.2,0.48 C24.8325318,-0.151965678 25.8574682,-0.151965678 26.49,0.48 L50.19,23.9 C50.7545731,24.4611315 50.8346914,25.3466494 50.38,26 C50.0671296,26.4507206 49.5484949,26.7137962 49,26.7 Z M74,26.7 C73.4515051,26.7137962 72.9328704,26.4507206 72.62,26 C72.1538699,25.34263 72.2344068,24.444008 72.81,23.88 L96.52,0.48 C97.1525318,-0.151965678 98.1774682,-0.151965678 98.81,0.48 L122.51,23.9 C123.074573,24.4611315 123.154691,25.3466494 122.7,26 C122.244784,26.6312355 121.405026,26.8495725 120.7,26.52 L97.7,15.17 L74.7,26.52 C74.4831996,26.6319501 74.2439114,26.6934813 74,26.7 Z" id="Smile" fill="#1DC8CA"></path>
        </g>
    </g>
</svg>