<svg height="100" viewBox="0 0 383 100" width="383" xmlns="http://www.w3.org/2000/svg"><g fill="none"><path d="m169.07 75c-15.58 0-26.07-10.11-26.07-22.41h12.82c.11 5.62 5.51 10.81 13.57 10.81 7.42 0 12.19-4.24 12.19-10 0-5.09-4.35-8.05-10.49-9.75l-9.09-2.5c-15.69-4-18.44-13.46-18.44-19.82-.03-12.93 11.31-21.33 24.77-21.33s23.85 8.29 23.85 22h-12.83c0-6-4.56-10.39-11.34-10.39-6.25 0-11.45 3.82-11.45 9.54 0 2 .64 6.36 9 8.48l8.69 2.33c11.45 3.18 20.24 9.33 20.24 21 .02 13.3-11.11 22.04-25.42 22.04zm92.82-51.59c12.39 0 19 8.35 19 22.73v27.66h-12.22v-26.75c0-7.93-4.13-11.84-9.85-11.84-11.87 0-11.12 13.79-11.12 13.79v24.8h-12.28v-26.75c0-7.93-4.13-11.84-9.42-11.84-5.72 0-11.43 3.17-11.43 12.58v26h-12.29v-49.36h12.28v8.46c1.8-6.24 8.58-9.52 14.72-9.52 7.2 0 13.13 3.38 16 9.73 3.9-7.83 11.63-9.73 16.61-9.73zm29 50.43v-49.32h12.37v49.28zm23 0v-73.84h12.37v73.8zm55.79-49.28h13.32l-30.81 73.44h-13l11.15-27.49-19.76-46h13.49l12.93 31.31zm-72.53-9.31c-4.197364 0-7.6-3.4026359-7.6-7.6s3.402636-7.6 7.6-7.6 7.6 3.4026359 7.6 7.6c-.02187 4.1661802-3.39382 7.5381298-7.56 7.56z" fill="#272b45"/><path d="m62 75c-7.5306368.0248821-14.9111412-2.1056444-21.27-6.14-6.6351747-4.2616532-11.5484533-10.7335782-13.87-18.27-.2653321-.780521.0899819-1.6366993.83-2 .7178284-.3581496 1.5896727-.1369989 2.05.52 7.1708838 10.5525328 19.1015705 16.8698083 31.86 16.8698083s24.6891162-6.3172755 31.86-16.8698083c.46171-.6557267 1.3318041-.8781797 2.0515799-.5245183.7197758.3536615 1.0753576 1.1783497.8384201 1.9445183-2.1709165 7.569324-6.9677256 14.117518-13.53 18.47-6.2006655 4.0001514-13.4415231 6.0868539-20.82 6zm-13-48.3c-.2498996-.0003749-.4963245-.0585585-.72-.17l-23-11.35-23 11.35c-.70208036.316392-1.52985886.0948149-1.98-.53-.45469142-.6533506-.37457313-1.5388685.19-2.1l23.71-23.42c.6325318-.63196568 1.6574682-.63196568 2.29 0l23.7 23.42c.5645731.5611315.6446914 1.4466494.19 2.1-.3128704.4507206-.8315051.7137962-1.38.7zm25 0c-.5484949.0137962-1.0671296-.2492794-1.38-.7-.4661301-.65737-.3855932-1.555992.19-2.12l23.71-23.4c.6325318-.63196568 1.6574682-.63196568 2.29 0l23.7 23.42c.564573.5611315.644691 1.4466494.19 2.1-.455216.6312355-1.294974.8495725-2 .52l-23-11.35-23 11.35c-.2168004.1119501-.4560886.1734813-.7.18z" fill="#1dc8ca"/></g></svg>