<svg viewBox="0 0 178.76 50.06" xmlns="http://www.w3.org/2000/svg" xmlns:xlink="http://www.w3.org/1999/xlink"><clipPath id="a"><path d="m0 0h50.12v50h-50.12z"/></clipPath><path d="m73.64 23.14c.18-.27.37-.59.53-.86s.49-.37.72-.16a6.21 6.21 0 0 0 3.37 1.45 2.12 2.12 0 0 0 2.39-1.95c0-1.27-1.09-2.07-3.19-2.91s-3.85-2-3.85-4.45c0-1.64 1.28-3.88 4.63-3.88a6.93 6.93 0 0 1 3.89 1.25.49.49 0 0 1 .12.72c-.16.25-.37.54-.53.8a.51.51 0 0 1 -.74.21 6.47 6.47 0 0 0 -2.84-1c-1.77 0-2.39 1.11-2.39 1.91 0 1.19.93 1.93 2.68 2.64 2.44.94 4.57 2.09 4.57 4.67 0 2.18-2 4-4.71 4a6.81 6.81 0 0 1 -4.52-1.66c-.2-.27-.36-.41-.13-.78z" fill="#094159"/><path d="m94.75 11a.39.39 0 0 1 .39-.39h4.86a4.7 4.7 0 1 1 0 9.39h-3.09v4.9a.4.4 0 0 1 -.39.39h-1.36a.39.39 0 0 1 -.39-.39zm5.08 6.91a2.67 2.67 0 0 0 2.67-2.69 2.58 2.58 0 0 0 -2.67-2.52h-2.9v5.21z" fill="#094159"/><path d="m122.63 10.34a7.57 7.57 0 1 1 -7.56 7.59 7.57 7.57 0 0 1 7.56-7.59zm0 13.05a5.48 5.48 0 0 0 5.49-5.39 5.47 5.47 0 1 0 -10.94 0 5.44 5.44 0 0 0 5.45 5.39z" fill="#094159"/><path d="m141.9 11a.4.4 0 0 1 .39-.39h1.42a.39.39 0 0 1 .39.39v8.67a3.52 3.52 0 1 0 7 0v-8.75a.38.38 0 0 1 .39-.39h1.42a.4.4 0 0 1 .39.39v8.84a5.74 5.74 0 0 1 -11.47 0z" fill="#094159"/><path d="m166.14 11a.38.38 0 0 1 .37-.39h4.85a7.36 7.36 0 1 1 0 14.72h-4.85a.38.38 0 0 1 -.37-.39zm4.91 12.32a5.19 5.19 0 0 0 5.35-5.39 5.16 5.16 0 0 0 -5.35-5.33h-2.77v10.68z" fill="#094159"/><g fill="#0d9aaf"><path d="m79.33 39.88-.76-2.13h-2.94l-.76 2.13h-1.34l2.88-7.71h1.38l2.88 7.71zm-1.11-3.22-.72-2.09c-.06-.15-.12-.37-.23-.66a4.29 4.29 0 0 1 -.18-.66 12.66 12.66 0 0 1 -.41 1.42l-.7 2z"/><path d="m90.66 35.71h2.84v3.86a9.66 9.66 0 0 1 -1.34.33 9.83 9.83 0 0 1 -1.38.1 3.47 3.47 0 0 1 -2.69-1 4.12 4.12 0 0 1 -1-2.91 3.88 3.88 0 0 1 1.07-2.91 4 4 0 0 1 2.94-1 5.73 5.73 0 0 1 2.29.48l-.46 1a4.36 4.36 0 0 0 -1.87-.43 2.54 2.54 0 0 0 -2 .78 3 3 0 0 0 -.72 2.11 3.11 3.11 0 0 0 .64 2.14 2.4 2.4 0 0 0 1.85.73 6.22 6.22 0 0 0 1.31-.14v-2h-1.6v-1.14z"/><path d="m108 36a4.11 4.11 0 0 1 -.94 2.91 4 4 0 0 1 -5.35 0 4.27 4.27 0 0 1 -.91-2.91 4.2 4.2 0 0 1 .94-2.93 3.5 3.5 0 0 1 2.7-1 3.35 3.35 0 0 1 2.65 1 4.19 4.19 0 0 1 .91 2.93zm-5.9 0a3.4 3.4 0 0 0 .58 2.15 2.34 2.34 0 0 0 3.39 0 3.43 3.43 0 0 0 .58-2.16 3.4 3.4 0 0 0 -.58-2.15 2 2 0 0 0 -1.68-.74 2 2 0 0 0 -1.71.74 3.42 3.42 0 0 0 -.55 2.16z"/><path d="m122.36 36a4.11 4.11 0 0 1 -.94 2.91 4 4 0 0 1 -5.35 0 4.27 4.27 0 0 1 -.94-2.93 4.15 4.15 0 0 1 .94-2.93 3.5 3.5 0 0 1 2.7-1 3.35 3.35 0 0 1 2.65 1 4.19 4.19 0 0 1 .94 2.95zm-5.9 0a3.4 3.4 0 0 0 .58 2.15 2.34 2.34 0 0 0 3.39 0 3.43 3.43 0 0 0 .57-2.15 3.4 3.4 0 0 0 -.58-2.15 2 2 0 0 0 -1.68-.74 2 2 0 0 0 -1.71.74 3.34 3.34 0 0 0 -.57 2.15z"/><path d="m131.1 36.8v3.08h-1.25v-7.69h2.15a3.58 3.58 0 0 1 2.2.55 2 2 0 0 1 .72 1.68 2.1 2.1 0 0 1 -1.5 2l2.18 3.41h-1.44l-1.85-3.08zm0-1h.9a2 2 0 0 0 1.27-.32 1.18 1.18 0 0 0 .39-1 1.05 1.05 0 0 0 -.43-.94 2.2 2.2 0 0 0 -1.29-.29h-.85z"/><path d="m147.35 39.88-.76-2.14h-2.94l-.77 2.14h-1.33l2.88-7.72h1.37l2.88 7.72zm-1.09-3.22-.72-2.1c-.06-.14-.13-.36-.23-.65a4.29 4.29 0 0 1 -.18-.66 14.25 14.25 0 0 1 -.42 1.42l-.7 2z"/></g><g clip-path="url(#a)"><g fill="#bccbd1"><path d="m3 28.67c1.73 0 3.16-1.55 3.16-3.64a3.33 3.33 0 0 0 -3.16-3.58 3.41 3.41 0 0 0 -3 3.64 3.39 3.39 0 0 0 3 3.58z"/><path d="m43.61 14a3.85 3.85 0 0 0 3.39 3.64c1.68.12 2.81-1.31 2.69-3.16a4 4 0 0 0 -3.22-3.63c-1.73-.18-2.98 1.15-2.86 3.15z"/><path d="m4.06 42.49a1.86 1.86 0 0 0 -2.21 2.44 4.78 4.78 0 0 0 3.29 3.28 1.85 1.85 0 0 0 2.39-2.21 4.41 4.41 0 0 0 -3.47-3.51z"/><path d="m5.14 1.85a4.76 4.76 0 0 0 -3.29 3.28 1.89 1.89 0 0 0 2.21 2.44 4.34 4.34 0 0 0 3.47-3.46c.3-1.55-.78-2.56-2.39-2.26z"/><path d="m6.51 36.11a3.85 3.85 0 0 0 -3.34-3.69c-1.68-.12-2.81 1.31-2.63 3.16a4 4 0 0 0 3.16 3.63c1.68.18 2.93-1.21 2.81-3.1z"/><path d="m47.13 21.45a3.33 3.33 0 0 0 -3.13 3.55 3.39 3.39 0 0 0 3.16 3.64 3.41 3.41 0 0 0 3-3.64c-.04-1.88-1.35-3.55-3.03-3.55z"/><path d="m13.38 28.84a3.79 3.79 0 0 0 3.76-3.84 3.71 3.71 0 0 0 -3.76-3.81 3.76 3.76 0 0 0 -3.64 3.81 3.72 3.72 0 0 0 3.64 3.84z"/><path d="m3.11 17.7a3.85 3.85 0 0 0 3.34-3.7c.12-1.9-1.13-3.27-2.81-3.09a4.19 4.19 0 0 0 -3.22 3.63c-.12 1.85 1.07 3.28 2.69 3.16z"/><path d="m25 6.14c2.09 0 3.7-1.43 3.64-3.16a3.41 3.41 0 0 0 -3.64-2.98 3.41 3.41 0 0 0 -3.64 3 3.42 3.42 0 0 0 3.64 3.14z"/><path d="m46.06 7.57a1.86 1.86 0 0 0 2.21-2.44 4.76 4.76 0 0 0 -3.27-3.28 1.89 1.89 0 0 0 -2.45 2.2 4.55 4.55 0 0 0 3.51 3.52z"/><path d="m13.44 17.22a4 4 0 0 0 3.82-3.81 3.25 3.25 0 0 0 -3.52-3.41 4 4 0 0 0 -3.7 3.7 3.22 3.22 0 0 0 3.4 3.52z"/><path d="m36.38 10a3.29 3.29 0 0 0 -3.52 3.4 4 4 0 0 0 3.82 3.81 3.25 3.25 0 0 0 3.4-3.51 4 4 0 0 0 -3.7-3.7z"/><path d="m36.68 32.84a4 4 0 0 0 -3.82 3.81 3.33 3.33 0 0 0 3.52 3.46 4 4 0 0 0 3.7-3.7 3.3 3.3 0 0 0 -3.4-3.57z"/><path d="m46 42.55a4.35 4.35 0 0 0 -3.47 3.45 1.85 1.85 0 0 0 2.39 2.26 4.68 4.68 0 0 0 3.29-3.28 1.81 1.81 0 0 0 -2.21-2.43z"/><path d="m47 32.36a4 4 0 0 0 -3.4 3.75c-.12 1.91 1.13 3.28 2.81 3.1a4.13 4.13 0 0 0 3.22-3.63 2.7 2.7 0 0 0 -2.63-3.22z"/><path d="m36.14 43.56a3.92 3.92 0 0 0 -3.76 3.34c-.12 1.61 1.31 2.8 3.16 2.62a4.09 4.09 0 0 0 3.65-3.16c.24-1.66-1.14-2.92-3.05-2.8z"/><path d="m13.44 32.84a3.22 3.22 0 0 0 -3.44 3.51 4 4 0 0 0 3.7 3.7 3.32 3.32 0 0 0 3.52-3.4 4 4 0 0 0 -3.78-3.81z"/><path d="m14.46.54a4.09 4.09 0 0 0 -3.65 3.15c-.18 1.67 1.19 2.93 3.11 2.81a4 4 0 0 0 3.76-3.34c.12-1.67-1.31-2.8-3.22-2.62z"/><path d="m25 21.16a3.9 3.9 0 1 0 4 3.84 3.88 3.88 0 0 0 -4-3.84z"/><path d="m25.09 43.92c-2 0-3.7 1.43-3.64 3.16a3.41 3.41 0 0 0 3.64 3 3.39 3.39 0 0 0 3.58-3 3.33 3.33 0 0 0 -3.58-3.16z"/></g><path d="m36.74 21.22a6.83 6.83 0 0 1 -5.08-2.15l-.6-.6a6.88 6.88 0 0 1 -2.15-5.06 6 6 0 0 1 2-4.77 4.87 4.87 0 0 0 .6-.54 6.21 6.21 0 0 1 4.69-1.6c2 .12 3.35-1.14 3.17-2.81a4.15 4.15 0 0 0 -3.65-3.21c-1.85-.12-3.28 1-3.16 2.68a5 5 0 0 1 -1.8 4.23 2.47 2.47 0 0 0 -.53.54 7.18 7.18 0 0 1 -5 1.84 3.75 3.75 0 0 0 -3.88 3.64 3.79 3.79 0 0 0 3.82 3.75 7.25 7.25 0 0 1 5.26 2.15l.59.59a6.76 6.76 0 0 1 2.09 5.19 7.24 7.24 0 0 1 -2.11 5.24l-.59.6a6.83 6.83 0 0 1 -5.2 2.07 3.76 3.76 0 0 0 -3.88 3.75 6.11 6.11 0 0 1 -2 4.77 6.87 6.87 0 0 0 -.59.53 6.1 6.1 0 0 1 -4.74 1.63c-2-.12-3.35 1.14-3.17 2.8a4.22 4.22 0 0 0 3.65 3.22c1.85.18 3.28-1 3.16-2.62a5 5 0 0 1 1.79-4.23 2.31 2.31 0 0 0 .54-.54 7.08 7.08 0 0 1 5-1.85 3.82 3.82 0 0 0 3.88-3.63 6.81 6.81 0 0 1 2.15-5.07l.6-.59a6.93 6.93 0 0 1 5.14-2.17 3.78 3.78 0 0 0 3.7-3.81 3.86 3.86 0 0 0 -3.7-3.97z" fill="#0d9aaf" fill-rule="evenodd"/></g></svg>