<svg width="645" height="608" viewBox="0 0 645 608" fill="none" xmlns="http://www.w3.org/2000/svg">
<path d="M199.386 103.152H196.568L196.076 104.745H193.879L197.007 96.2142H198.941L202.093 104.745H199.884L199.386 103.152ZM197.06 101.564H198.894L197.974 98.6049L197.06 101.564ZM205.497 101.851V104.745H203.44V96.2142H206.845C207.497 96.2142 208.073 96.3353 208.573 96.5775C209.077 96.8158 209.466 97.1576 209.739 97.6029C210.016 98.0443 210.155 98.5463 210.155 99.1088C210.155 99.9408 209.856 100.607 209.259 101.107C208.665 101.603 207.849 101.851 206.809 101.851H205.497ZM205.497 100.263H206.845C207.243 100.263 207.546 100.163 207.753 99.9642C207.964 99.765 208.069 99.4838 208.069 99.1205C208.069 98.722 207.962 98.4037 207.747 98.1654C207.532 97.9271 207.239 97.806 206.868 97.8021H205.497V100.263ZM214.033 101.851V104.745H211.977V96.2142H215.381C216.033 96.2142 216.61 96.3353 217.11 96.5775C217.613 96.8158 218.002 97.1576 218.276 97.6029C218.553 98.0443 218.692 98.5463 218.692 99.1088C218.692 99.9408 218.393 100.607 217.795 101.107C217.201 101.603 216.385 101.851 215.346 101.851H214.033ZM214.033 100.263H215.381C215.779 100.263 216.082 100.163 216.289 99.9642C216.5 99.765 216.606 99.4838 216.606 99.1205C216.606 98.722 216.498 98.4037 216.283 98.1654C216.069 97.9271 215.776 97.806 215.404 97.8021H214.033V100.263Z" fill="#A9CBD4"/>
<rect x="177.022" y="83.7455" width="89.7723" height="50.6562" stroke="#A9CBD4" stroke-width="2"/>
<path d="M312.221 76.0714H309.403L308.911 77.6652H306.713L309.842 69.1339H311.776L314.928 77.6652H312.719L312.221 76.0714ZM309.895 74.4835H311.729L310.809 71.5245L309.895 74.4835ZM318.332 74.7706V77.6652H316.275V69.1339H319.679C320.332 69.1339 320.908 69.255 321.408 69.4972C321.912 69.7355 322.301 70.0773 322.574 70.5226C322.851 70.964 322.99 71.4659 322.99 72.0284C322.99 72.8605 322.691 73.5265 322.094 74.0265C321.5 74.5226 320.683 74.7706 319.644 74.7706H318.332ZM318.332 73.1827H319.679C320.078 73.1827 320.381 73.0831 320.588 72.8839C320.799 72.6847 320.904 72.4034 320.904 72.0402C320.904 71.6417 320.797 71.3234 320.582 71.0851C320.367 70.8468 320.074 70.7257 319.703 70.7218H318.332V73.1827ZM326.868 74.7706V77.6652H324.812V69.1339H328.216C328.868 69.1339 329.444 69.255 329.944 69.4972C330.448 69.7355 330.837 70.0773 331.11 70.5226C331.388 70.964 331.526 71.4659 331.526 72.0284C331.526 72.8605 331.228 73.5265 330.63 74.0265C330.036 74.5226 329.22 74.7706 328.181 74.7706H326.868ZM326.868 73.1827H328.216C328.614 73.1827 328.917 73.0831 329.124 72.8839C329.335 72.6847 329.44 72.4034 329.44 72.0402C329.44 71.6417 329.333 71.3234 329.118 71.0851C328.903 70.8468 328.61 70.7257 328.239 70.7218H326.868V73.1827Z" fill="#A9CBD4"/>
<rect x="289.857" y="56.6652" width="89.7723" height="50.6562" stroke="#A9CBD4" stroke-width="2"/>
<path d="M425.056 103.152H422.238L421.745 104.745H419.548L422.677 96.2142H424.611L427.763 104.745H425.554L425.056 103.152ZM422.73 101.564H424.564L423.644 98.6049L422.73 101.564ZM431.167 101.851V104.745H429.11V96.2142H432.514C433.167 96.2142 433.743 96.3353 434.243 96.5775C434.747 96.8158 435.135 97.1576 435.409 97.6029C435.686 98.0443 435.825 98.5463 435.825 99.1088C435.825 99.9408 435.526 100.607 434.928 101.107C434.335 101.603 433.518 101.851 432.479 101.851H431.167ZM431.167 100.263H432.514C432.913 100.263 433.215 100.163 433.422 99.9642C433.633 99.765 433.739 99.4838 433.739 99.1205C433.739 98.722 433.631 98.4037 433.417 98.1654C433.202 97.9271 432.909 97.806 432.538 97.8021H431.167V100.263ZM439.703 101.851V104.745H437.646V96.2142H441.051C441.703 96.2142 442.279 96.3353 442.779 96.5775C443.283 96.8158 443.672 97.1576 443.945 97.6029C444.223 98.0443 444.361 98.5463 444.361 99.1088C444.361 99.9408 444.062 100.607 443.465 101.107C442.871 101.603 442.055 101.851 441.016 101.851H439.703ZM439.703 100.263H441.051C441.449 100.263 441.752 100.163 441.959 99.9642C442.17 99.765 442.275 99.4838 442.275 99.1205C442.275 98.722 442.168 98.4037 441.953 98.1654C441.738 97.9271 441.445 97.806 441.074 97.8021H439.703V100.263Z" fill="#A9CBD4"/>
<rect x="402.692" y="83.7455" width="89.7723" height="50.6562" stroke="#A9CBD4" stroke-width="2"/>
<path d="M269.299 212.129L268.875 200.59L259.094 206.727L269.299 212.129ZM220.309 135.933L263.669 205.037L265.363 203.974L222.003 134.87L220.309 135.933Z" fill="#A9CBD4"/>
<path d="M333.991 190.315L339.765 180.315H328.218L333.991 190.315ZM332.991 108.321V181.315H334.991V108.321L332.991 108.321Z" fill="#A9CBD4"/>
<path d="M394.17 212.129L394.594 200.59L404.375 206.727L394.17 212.129ZM443.16 135.933L399.8 205.037L398.106 203.974L441.465 134.87L443.16 135.933Z" fill="#A9CBD4"/>
<path d="M300.729 17.8301V21H299.246V12.4688H302.51C303.463 12.4688 304.219 12.7168 304.778 13.2129C305.34 13.709 305.621 14.3652 305.621 15.1816C305.621 16.0176 305.346 16.668 304.795 17.1328C304.248 17.5977 303.481 17.8301 302.492 17.8301H300.729ZM300.729 16.6406H302.51C303.037 16.6406 303.44 16.5176 303.717 16.2715C303.994 16.0215 304.133 15.6621 304.133 15.1934C304.133 14.7324 303.992 14.3652 303.711 14.0918C303.43 13.8145 303.043 13.6719 302.551 13.6641H300.729V16.6406ZM310.777 17.7129H309.125V21H307.642V12.4688H310.642C311.627 12.4688 312.386 12.6895 312.921 13.1309C313.457 13.5723 313.724 14.2109 313.724 15.0469C313.724 15.6172 313.585 16.0957 313.308 16.4824C313.035 16.8652 312.652 17.1602 312.16 17.3672L314.076 20.9238V21H312.488L310.777 17.7129ZM309.125 16.5234H310.648C311.148 16.5234 311.539 16.3984 311.82 16.1484C312.101 15.8945 312.242 15.5488 312.242 15.1113C312.242 14.6543 312.111 14.3008 311.849 14.0508C311.591 13.8008 311.205 13.6719 310.689 13.6641H309.125V16.5234ZM322.659 16.957C322.659 17.793 322.514 18.5273 322.225 19.1602C321.936 19.7891 321.522 20.2734 320.983 20.6133C320.448 20.9492 319.831 21.1172 319.132 21.1172C318.44 21.1172 317.823 20.9492 317.28 20.6133C316.741 20.2734 316.323 19.791 316.026 19.166C315.733 18.541 315.585 17.8203 315.581 17.0039V16.5234C315.581 15.6914 315.727 14.957 316.02 14.3203C316.317 13.6836 316.733 13.1973 317.268 12.8613C317.807 12.5215 318.425 12.3516 319.12 12.3516C319.815 12.3516 320.43 12.5195 320.966 12.8555C321.505 13.1875 321.921 13.668 322.214 14.2969C322.507 14.9219 322.655 15.6504 322.659 16.4824V16.957ZM321.177 16.5117C321.177 15.5664 320.997 14.8418 320.638 14.3379C320.282 13.834 319.776 13.582 319.12 13.582C318.479 13.582 317.977 13.834 317.614 14.3379C317.255 14.8379 317.071 15.5469 317.063 16.4648V16.957C317.063 17.8945 317.245 18.6191 317.608 19.1309C317.975 19.6426 318.483 19.8984 319.132 19.8984C319.788 19.8984 320.292 19.6484 320.643 19.1484C320.999 18.6484 321.177 17.918 321.177 16.957V16.5117ZM324.856 21V12.4688H327.375C328.129 12.4688 328.797 12.6367 329.379 12.9727C329.965 13.3086 330.418 13.7852 330.738 14.4023C331.059 15.0195 331.219 15.7266 331.219 16.5234V16.9512C331.219 17.7598 331.057 18.4707 330.733 19.084C330.412 19.6973 329.953 20.1699 329.356 20.502C328.762 20.834 328.08 21 327.311 21H324.856ZM326.338 13.6641V19.8164H327.305C328.082 19.8164 328.678 19.5742 329.092 19.0898C329.51 18.6016 329.723 17.9023 329.731 16.9922V16.5176C329.731 15.5918 329.529 14.8848 329.127 14.3965C328.725 13.9082 328.141 13.6641 327.375 13.6641H326.338ZM339.656 12.4688V18.1699C339.656 19.0762 339.365 19.7949 338.783 20.3262C338.204 20.8535 337.433 21.1172 336.468 21.1172C335.492 21.1172 334.716 20.8574 334.142 20.3379C333.568 19.8145 333.281 19.0898 333.281 18.1641V12.4688H334.757V18.1758C334.757 18.7461 334.902 19.1816 335.191 19.4824C335.48 19.7832 335.906 19.9336 336.468 19.9336C337.609 19.9336 338.179 19.332 338.179 18.1289V12.4688H339.656ZM348.473 18.2227C348.387 19.1328 348.051 19.8438 347.465 20.3555C346.88 20.8633 346.1 21.1172 345.128 21.1172C344.448 21.1172 343.848 20.957 343.329 20.6367C342.813 20.3125 342.415 19.8535 342.133 19.2598C341.852 18.666 341.706 17.9766 341.694 17.1914V16.3945C341.694 15.5898 341.837 14.8809 342.122 14.2676C342.407 13.6543 342.815 13.1816 343.346 12.8496C343.882 12.5176 344.499 12.3516 345.198 12.3516C346.139 12.3516 346.897 12.6074 347.471 13.1191C348.046 13.6309 348.38 14.3535 348.473 15.2871H346.997C346.926 14.6738 346.747 14.2324 346.458 13.9629C346.173 13.6895 345.753 13.5527 345.198 13.5527C344.553 13.5527 344.057 13.7891 343.71 14.2617C343.366 14.7305 343.19 15.4199 343.182 16.3301V17.0859C343.182 18.0078 343.346 18.7109 343.674 19.1953C344.007 19.6797 344.491 19.9219 345.128 19.9219C345.71 19.9219 346.147 19.791 346.44 19.5293C346.733 19.2676 346.919 18.832 346.997 18.2227H348.473ZM355.51 17.1914H352.006V19.8164H356.102V21H350.523V12.4688H356.061V13.6641H352.006V16.0195H355.51V17.1914ZM361.163 17.7129H359.511V21H358.029V12.4688H361.029C362.013 12.4688 362.773 12.6895 363.308 13.1309C363.843 13.5723 364.111 14.2109 364.111 15.0469C364.111 15.6172 363.972 16.0957 363.695 16.4824C363.421 16.8652 363.038 17.1602 362.546 17.3672L364.462 20.9238V21H362.874L361.163 17.7129ZM359.511 16.5234H361.034C361.534 16.5234 361.925 16.3984 362.206 16.1484C362.488 15.8945 362.628 15.5488 362.628 15.1113C362.628 14.6543 362.497 14.3008 362.236 14.0508C361.978 13.8008 361.591 13.6719 361.075 13.6641H359.511V16.5234ZM370.696 18.8027C370.696 18.4277 370.563 18.1387 370.297 17.9355C370.036 17.7324 369.561 17.5273 368.874 17.3203C368.186 17.1133 367.639 16.8828 367.233 16.6289C366.456 16.1406 366.067 15.5039 366.067 14.7188C366.067 14.0312 366.346 13.4648 366.905 13.0195C367.467 12.5742 368.196 12.3516 369.09 12.3516C369.684 12.3516 370.213 12.4609 370.678 12.6797C371.143 12.8984 371.508 13.2109 371.774 13.6172C372.04 14.0195 372.172 14.4668 372.172 14.959H370.696C370.696 14.5137 370.555 14.166 370.274 13.916C369.997 13.6621 369.598 13.5352 369.079 13.5352C368.594 13.5352 368.217 13.6387 367.948 13.8457C367.682 14.0527 367.549 14.3418 367.549 14.7129C367.549 15.0254 367.694 15.2871 367.983 15.498C368.272 15.7051 368.749 15.9082 369.413 16.1074C370.077 16.3027 370.61 16.5273 371.012 16.7812C371.415 17.0312 371.709 17.3203 371.897 17.6484C372.084 17.9727 372.178 18.3535 372.178 18.791C372.178 19.502 371.905 20.0684 371.358 20.4902C370.815 20.9082 370.077 21.1172 369.143 21.1172C368.526 21.1172 367.958 21.0039 367.438 20.7773C366.922 20.5469 366.52 20.2305 366.231 19.8281C365.946 19.4258 365.803 18.957 365.803 18.4219H367.286C367.286 18.9062 367.446 19.2812 367.766 19.5469C368.086 19.8125 368.545 19.9453 369.143 19.9453C369.659 19.9453 370.045 19.8418 370.303 19.6348C370.565 19.4238 370.696 19.1465 370.696 18.8027Z" fill="white"/>
<path d="M199.386 483.781H196.568L196.076 485.375H193.879L197.007 476.844H198.941L202.093 485.375H199.884L199.386 483.781ZM197.06 482.193H198.894L197.974 479.234L197.06 482.193ZM205.497 482.48V485.375H203.44V476.844H206.845C207.497 476.844 208.073 476.965 208.573 477.207C209.077 477.445 209.466 477.787 209.739 478.232C210.016 478.674 210.155 479.176 210.155 479.738C210.155 480.57 209.856 481.236 209.259 481.736C208.665 482.232 207.849 482.48 206.809 482.48H205.497ZM205.497 480.893H206.845C207.243 480.893 207.546 480.793 207.753 480.594C207.964 480.395 208.069 480.113 208.069 479.75C208.069 479.352 207.962 479.033 207.747 478.795C207.532 478.557 207.239 478.436 206.868 478.432H205.497V480.893ZM214.033 482.48V485.375H211.977V476.844H215.381C216.033 476.844 216.61 476.965 217.11 477.207C217.613 477.445 218.002 477.787 218.276 478.232C218.553 478.674 218.692 479.176 218.692 479.738C218.692 480.57 218.393 481.236 217.795 481.736C217.201 482.232 216.385 482.48 215.346 482.48H214.033ZM214.033 480.893H215.381C215.779 480.893 216.082 480.793 216.289 480.594C216.5 480.395 216.606 480.113 216.606 479.75C216.606 479.352 216.498 479.033 216.283 478.795C216.069 478.557 215.776 478.436 215.404 478.432H214.033V480.893Z" fill="#A9CBD4"/>
<rect x="177.022" y="464.375" width="89.7723" height="50.6562" stroke="#A9CBD4" stroke-width="2"/>
<path d="M312.221 510.862H309.403L308.911 512.455H306.713L309.842 503.924H311.776L314.928 512.455H312.719L312.221 510.862ZM309.895 509.274H311.729L310.809 506.315L309.895 509.274ZM318.332 509.561V512.455H316.275V503.924H319.679C320.332 503.924 320.908 504.045 321.408 504.287C321.912 504.526 322.301 504.867 322.574 505.313C322.851 505.754 322.99 506.256 322.99 506.819C322.99 507.651 322.691 508.317 322.094 508.817C321.5 509.313 320.683 509.561 319.644 509.561H318.332ZM318.332 507.973H319.679C320.078 507.973 320.381 507.873 320.588 507.674C320.799 507.475 320.904 507.194 320.904 506.83C320.904 506.432 320.797 506.114 320.582 505.875C320.367 505.637 320.074 505.516 319.703 505.512H318.332V507.973ZM326.868 509.561V512.455H324.812V503.924H328.216C328.868 503.924 329.444 504.045 329.944 504.287C330.448 504.526 330.837 504.867 331.11 505.313C331.388 505.754 331.526 506.256 331.526 506.819C331.526 507.651 331.228 508.317 330.63 508.817C330.036 509.313 329.22 509.561 328.181 509.561H326.868ZM326.868 507.973H328.216C328.614 507.973 328.917 507.873 329.124 507.674C329.335 507.475 329.44 507.194 329.44 506.83C329.44 506.432 329.333 506.114 329.118 505.875C328.903 505.637 328.61 505.516 328.239 505.512H326.868V507.973Z" fill="#A9CBD4"/>
<rect x="289.857" y="491.455" width="89.7723" height="50.6562" stroke="#A9CBD4" stroke-width="2"/>
<path d="M425.056 483.781H422.238L421.745 485.375H419.548L422.677 476.844H424.611L427.763 485.375H425.554L425.056 483.781ZM422.73 482.193H424.564L423.644 479.234L422.73 482.193ZM431.167 482.48V485.375H429.11V476.844H432.514C433.167 476.844 433.743 476.965 434.243 477.207C434.747 477.445 435.135 477.787 435.409 478.232C435.686 478.674 435.825 479.176 435.825 479.738C435.825 480.57 435.526 481.236 434.928 481.736C434.335 482.232 433.518 482.48 432.479 482.48H431.167ZM431.167 480.893H432.514C432.913 480.893 433.215 480.793 433.422 480.594C433.633 480.395 433.739 480.113 433.739 479.75C433.739 479.352 433.631 479.033 433.417 478.795C433.202 478.557 432.909 478.436 432.538 478.432H431.167V480.893ZM439.703 482.48V485.375H437.646V476.844H441.051C441.703 476.844 442.279 476.965 442.779 477.207C443.283 477.445 443.672 477.787 443.945 478.232C444.223 478.674 444.361 479.176 444.361 479.738C444.361 480.57 444.062 481.236 443.465 481.736C442.871 482.232 442.055 482.48 441.016 482.48H439.703ZM439.703 480.893H441.051C441.449 480.893 441.752 480.793 441.959 480.594C442.17 480.395 442.275 480.113 442.275 479.75C442.275 479.352 442.168 479.033 441.953 478.795C441.738 478.557 441.445 478.436 441.074 478.432H439.703V480.893Z" fill="#A9CBD4"/>
<rect x="402.692" y="464.375" width="89.7723" height="50.6562" stroke="#A9CBD4" stroke-width="2"/>
<path d="M304.121 591.424C304.035 592.334 303.699 593.045 303.114 593.556C302.528 594.064 301.748 594.318 300.776 594.318C300.096 594.318 299.496 594.158 298.977 593.838C298.461 593.513 298.063 593.054 297.782 592.461C297.5 591.867 297.354 591.177 297.342 590.392V589.595C297.342 588.791 297.485 588.082 297.77 587.469C298.055 586.855 298.463 586.383 298.994 586.051C299.53 585.719 300.147 585.552 300.846 585.552C301.787 585.552 302.545 585.808 303.119 586.32C303.694 586.832 304.028 587.554 304.121 588.488H302.645C302.574 587.875 302.395 587.433 302.106 587.164C301.821 586.89 301.401 586.754 300.846 586.754C300.201 586.754 299.705 586.99 299.358 587.463C299.014 587.931 298.838 588.621 298.83 589.531V590.287C298.83 591.209 298.994 591.912 299.323 592.396C299.655 592.881 300.139 593.123 300.776 593.123C301.358 593.123 301.795 592.992 302.088 592.73C302.381 592.469 302.567 592.033 302.645 591.424H304.121ZM312.98 590.158C312.98 590.994 312.835 591.728 312.546 592.361C312.257 592.99 311.843 593.474 311.304 593.814C310.769 594.15 310.152 594.318 309.453 594.318C308.761 594.318 308.144 594.15 307.601 593.814C307.062 593.474 306.644 592.992 306.347 592.367C306.054 591.742 305.906 591.021 305.902 590.205V589.724C305.902 588.892 306.048 588.158 306.341 587.521C306.638 586.885 307.054 586.398 307.589 586.062C308.128 585.722 308.746 585.552 309.441 585.552C310.136 585.552 310.752 585.72 311.287 586.056C311.826 586.388 312.242 586.869 312.535 587.498C312.828 588.123 312.976 588.851 312.98 589.683V590.158ZM311.498 589.713C311.498 588.767 311.318 588.043 310.959 587.539C310.603 587.035 310.097 586.783 309.441 586.783C308.8 586.783 308.298 587.035 307.935 587.539C307.576 588.039 307.392 588.748 307.384 589.666V590.158C307.384 591.095 307.566 591.82 307.929 592.332C308.296 592.844 308.804 593.099 309.453 593.099C310.109 593.099 310.613 592.849 310.964 592.349C311.32 591.849 311.498 591.119 311.498 590.158V589.713ZM321.944 594.201H320.462L316.659 588.148V594.201H315.177V585.67H316.659L320.473 591.746V585.67H321.944V594.201ZM328.875 592.004C328.875 591.629 328.742 591.34 328.477 591.136C328.215 590.933 327.74 590.728 327.053 590.521C326.365 590.314 325.818 590.084 325.412 589.83C324.635 589.342 324.246 588.705 324.246 587.92C324.246 587.232 324.525 586.666 325.084 586.22C325.647 585.775 326.375 585.552 327.27 585.552C327.863 585.552 328.393 585.662 328.858 585.881C329.322 586.099 329.688 586.412 329.953 586.818C330.219 587.22 330.352 587.668 330.352 588.16H328.875C328.875 587.715 328.734 587.367 328.453 587.117C328.176 586.863 327.777 586.736 327.258 586.736C326.774 586.736 326.397 586.84 326.127 587.047C325.861 587.254 325.729 587.543 325.729 587.914C325.729 588.226 325.873 588.488 326.162 588.699C326.451 588.906 326.928 589.109 327.592 589.308C328.256 589.504 328.789 589.728 329.192 589.982C329.594 590.232 329.889 590.521 330.076 590.849C330.264 591.174 330.358 591.554 330.358 591.992C330.358 592.703 330.084 593.269 329.537 593.691C328.994 594.109 328.256 594.318 327.322 594.318C326.705 594.318 326.137 594.205 325.617 593.978C325.102 593.748 324.699 593.431 324.41 593.029C324.125 592.627 323.983 592.158 323.983 591.623H325.465C325.465 592.107 325.625 592.482 325.945 592.748C326.266 593.013 326.725 593.146 327.322 593.146C327.838 593.146 328.225 593.043 328.483 592.836C328.744 592.625 328.875 592.347 328.875 592.004ZM338.619 585.67V591.371C338.619 592.277 338.328 592.996 337.745 593.527C337.167 594.054 336.396 594.318 335.431 594.318C334.454 594.318 333.679 594.058 333.105 593.539C332.531 593.015 332.244 592.291 332.244 591.365V585.67H333.72V591.377C333.72 591.947 333.865 592.383 334.154 592.683C334.443 592.984 334.869 593.135 335.431 593.135C336.572 593.135 337.142 592.533 337.142 591.33V585.67H338.619ZM342.848 585.67L345.309 592.209L347.764 585.67H349.68V594.201H348.204V591.388L348.35 587.627L345.831 594.201H344.77L342.257 587.633L342.403 591.388V594.201H340.926V585.67H342.848ZM357.144 590.392H353.641V593.017H357.736V594.201H352.158V585.67H357.695V586.865H353.641V589.22H357.144V590.392ZM362.798 590.914H361.146V594.201H359.663V585.67H362.663C363.648 585.67 364.407 585.89 364.943 586.332C365.478 586.773 365.745 587.412 365.745 588.248C365.745 588.818 365.607 589.297 365.329 589.683C365.056 590.066 364.673 590.361 364.181 590.568L366.097 594.125V594.201H364.509L362.798 590.914ZM361.146 589.724H362.669C363.169 589.724 363.56 589.599 363.841 589.349C364.122 589.095 364.263 588.75 364.263 588.312C364.263 587.855 364.132 587.502 363.87 587.252C363.613 587.002 363.226 586.873 362.71 586.865H361.146V589.724ZM372.331 592.004C372.331 591.629 372.198 591.34 371.932 591.136C371.67 590.933 371.196 590.728 370.508 590.521C369.821 590.314 369.274 590.084 368.868 589.83C368.09 589.342 367.702 588.705 367.702 587.92C367.702 587.232 367.981 586.666 368.54 586.22C369.102 585.775 369.831 585.552 370.725 585.552C371.319 585.552 371.848 585.662 372.313 585.881C372.778 586.099 373.143 586.412 373.409 586.818C373.674 587.22 373.807 587.668 373.807 588.16H372.331C372.331 587.715 372.19 587.367 371.909 587.117C371.631 586.863 371.233 586.736 370.713 586.736C370.229 586.736 369.852 586.84 369.583 587.047C369.317 587.254 369.184 587.543 369.184 587.914C369.184 588.226 369.329 588.488 369.618 588.699C369.907 588.906 370.383 589.109 371.047 589.308C371.711 589.504 372.245 589.728 372.647 589.982C373.049 590.232 373.344 590.521 373.532 590.849C373.719 591.174 373.813 591.554 373.813 591.992C373.813 592.703 373.54 593.269 372.993 593.691C372.45 594.109 371.711 594.318 370.778 594.318C370.161 594.318 369.592 594.205 369.073 593.978C368.557 593.748 368.155 593.431 367.866 593.029C367.581 592.627 367.438 592.158 367.438 591.623H368.92C368.92 592.107 369.081 592.482 369.401 592.748C369.721 593.013 370.18 593.146 370.778 593.146C371.293 593.146 371.68 593.043 371.938 592.836C372.2 592.625 372.331 592.347 372.331 592.004Z" fill="white"/>
<path d="M224.165 454.348L224.59 442.809L234.371 448.946L224.165 454.348ZM228.102 446.193L271.461 377.089L273.155 378.152L229.796 447.256L228.102 446.193Z" fill="#A9CBD4"/>
<path d="M337 481.429L331.226 471.429H342.774L337 481.429ZM336 472.429V399.435H338V472.429H336Z" fill="#A9CBD4"/>
<path d="M445.321 454.348L444.897 442.809L435.116 448.946L445.321 454.348ZM441.385 446.193L398.026 377.089L396.331 378.152L439.691 447.256L441.385 446.193Z" fill="#A9CBD4"/>
<path d="M549.926 217.491H547.108L546.616 219.085H544.419L547.548 210.554H549.481L552.634 219.085H550.425L549.926 217.491ZM547.6 215.903H549.434L548.514 212.944L547.6 215.903ZM556.037 216.19V219.085H553.98V210.554H557.385C558.037 210.554 558.613 210.675 559.113 210.917C559.617 211.155 560.006 211.497 560.279 211.942C560.557 212.384 560.695 212.886 560.695 213.448C560.695 214.28 560.396 214.946 559.799 215.446C559.205 215.942 558.389 216.19 557.35 216.19H556.037ZM556.037 214.602H557.385C557.783 214.602 558.086 214.503 558.293 214.304C558.504 214.104 558.609 213.823 558.609 213.46C558.609 213.061 558.502 212.743 558.287 212.505C558.072 212.266 557.779 212.145 557.408 212.141H556.037V214.602ZM564.574 216.19V219.085H562.517V210.554H565.921C566.574 210.554 567.15 210.675 567.65 210.917C568.154 211.155 568.542 211.497 568.816 211.942C569.093 212.384 569.232 212.886 569.232 213.448C569.232 214.28 568.933 214.946 568.335 215.446C567.741 215.942 566.925 216.19 565.886 216.19H564.574ZM564.574 214.602H565.921C566.32 214.602 566.622 214.503 566.829 214.304C567.04 214.104 567.146 213.823 567.146 213.46C567.146 213.061 567.038 212.743 566.824 212.505C566.609 212.266 566.316 212.145 565.945 212.141H564.574V214.602Z" fill="#A9CBD4"/>
<rect x="527.562" y="198.085" width="89.7723" height="50.6562" stroke="#A9CBD4" stroke-width="2"/>
<path d="M549.926 366.433H547.108L546.616 368.027H544.419L547.548 359.496H549.481L552.634 368.027H550.425L549.926 366.433ZM547.6 364.845H549.434L548.514 361.886L547.6 364.845ZM556.037 365.132V368.027H553.98V359.496H557.385C558.037 359.496 558.613 359.617 559.113 359.859C559.617 360.097 560.006 360.439 560.279 360.884C560.557 361.326 560.695 361.828 560.695 362.39C560.695 363.222 560.396 363.888 559.799 364.388C559.205 364.884 558.389 365.132 557.35 365.132H556.037ZM556.037 363.544H557.385C557.783 363.544 558.086 363.445 558.293 363.246C558.504 363.046 558.609 362.765 558.609 362.402C558.609 362.003 558.502 361.685 558.287 361.447C558.072 361.208 557.779 361.087 557.408 361.083H556.037V363.544ZM564.574 365.132V368.027H562.517V359.496H565.921C566.574 359.496 567.15 359.617 567.65 359.859C568.154 360.097 568.542 360.439 568.816 360.884C569.093 361.326 569.232 361.828 569.232 362.39C569.232 363.222 568.933 363.888 568.335 364.388C567.741 364.884 566.925 365.132 565.886 365.132H564.574ZM564.574 363.544H565.921C566.32 363.544 566.622 363.445 566.829 363.246C567.04 363.046 567.146 362.765 567.146 362.402C567.146 362.003 567.038 361.685 566.824 361.447C566.609 361.208 566.316 361.087 565.945 361.083H564.574V363.544Z" fill="#A9CBD4"/>
<rect x="527.562" y="347.027" width="89.7723" height="50.6562" stroke="#A9CBD4" stroke-width="2"/>
<path d="M552.086 290.129C552.086 289.754 551.953 289.465 551.688 289.262C551.426 289.058 550.951 288.853 550.264 288.646C549.576 288.439 549.03 288.209 548.623 287.955C547.846 287.467 547.457 286.83 547.457 286.045C547.457 285.357 547.737 284.791 548.295 284.346C548.858 283.9 549.586 283.678 550.481 283.678C551.074 283.678 551.604 283.787 552.069 284.006C552.533 284.224 552.899 284.537 553.164 284.943C553.43 285.346 553.563 285.793 553.563 286.285H552.086C552.086 285.84 551.946 285.492 551.664 285.242C551.387 284.988 550.989 284.861 550.469 284.861C549.985 284.861 549.608 284.965 549.338 285.172C549.072 285.379 548.94 285.668 548.94 286.039C548.94 286.351 549.084 286.613 549.373 286.824C549.662 287.031 550.139 287.234 550.803 287.433C551.467 287.629 552 287.853 552.403 288.107C552.805 288.357 553.1 288.646 553.287 288.974C553.475 289.299 553.569 289.68 553.569 290.117C553.569 290.828 553.295 291.394 552.748 291.816C552.205 292.234 551.467 292.443 550.533 292.443C549.916 292.443 549.348 292.33 548.828 292.103C548.313 291.873 547.91 291.557 547.621 291.154C547.336 290.752 547.194 290.283 547.194 289.748H548.676C548.676 290.232 548.836 290.607 549.156 290.873C549.477 291.139 549.936 291.271 550.533 291.271C551.049 291.271 551.436 291.168 551.694 290.961C551.955 290.75 552.086 290.473 552.086 290.129ZM561.753 284.99H559.093V292.326H557.623V284.99H554.986V283.795H561.753V284.99ZM566.733 289.039H565.081V292.326H563.598V283.795H566.598C567.583 283.795 568.343 284.016 568.878 284.457C569.413 284.898 569.68 285.537 569.68 286.373C569.68 286.943 569.542 287.422 569.264 287.808C568.991 288.191 568.608 288.486 568.116 288.693L570.032 292.25V292.326H568.444L566.733 289.039ZM565.081 287.849H566.604C567.104 287.849 567.495 287.724 567.776 287.474C568.057 287.221 568.198 286.875 568.198 286.437C568.198 285.98 568.067 285.627 567.805 285.377C567.548 285.127 567.161 284.998 566.645 284.99H565.081V287.849ZM576.793 288.517H573.289V291.142H577.385V292.326H571.807V283.795H577.344V284.99H573.289V287.346H576.793V288.517ZM584.087 290.34H580.783L580.091 292.326H578.55L581.773 283.795H583.103L586.331 292.326H584.785L584.087 290.34ZM581.199 289.144H583.671L582.435 285.605L581.199 289.144ZM589.946 283.795L592.407 290.334L594.862 283.795H596.778V292.326H595.301V289.514L595.448 285.752L592.928 292.326H591.868L589.354 285.758L589.501 289.514V292.326H588.024V283.795H589.946ZM533.537 303.156V306.326H532.054V297.795H535.318C536.271 297.795 537.027 298.043 537.586 298.539C538.148 299.035 538.429 299.691 538.429 300.508C538.429 301.344 538.154 301.994 537.603 302.459C537.056 302.924 536.289 303.156 535.3 303.156H533.537ZM533.537 301.967H535.318C535.845 301.967 536.248 301.844 536.525 301.598C536.802 301.348 536.941 300.988 536.941 300.519C536.941 300.058 536.8 299.691 536.519 299.418C536.238 299.141 535.851 298.998 535.359 298.99H533.537V301.967ZM543.585 303.039H541.933V306.326H540.45V297.795H543.45C544.435 297.795 545.194 298.016 545.729 298.457C546.265 298.898 546.532 299.537 546.532 300.373C546.532 300.943 546.394 301.422 546.116 301.808C545.843 302.191 545.46 302.486 544.968 302.693L546.884 306.25V306.326H545.296L543.585 303.039ZM541.933 301.849H543.456C543.956 301.849 544.347 301.724 544.628 301.474C544.909 301.221 545.05 300.875 545.05 300.437C545.05 299.98 544.919 299.627 544.657 299.377C544.399 299.127 544.013 298.998 543.497 298.99H541.933V301.849ZM555.467 302.283C555.467 303.119 555.322 303.853 555.033 304.486C554.744 305.115 554.33 305.599 553.791 305.939C553.256 306.275 552.639 306.443 551.94 306.443C551.248 306.443 550.631 306.275 550.088 305.939C549.549 305.599 549.131 305.117 548.834 304.492C548.541 303.867 548.393 303.146 548.389 302.33V301.849C548.389 301.017 548.535 300.283 548.828 299.646C549.125 299.01 549.541 298.523 550.076 298.187C550.615 297.848 551.233 297.678 551.928 297.678C552.623 297.678 553.239 297.846 553.774 298.182C554.313 298.514 554.729 298.994 555.022 299.623C555.315 300.248 555.463 300.976 555.467 301.808V302.283ZM553.985 301.838C553.985 300.892 553.805 300.168 553.446 299.664C553.09 299.16 552.584 298.908 551.928 298.908C551.287 298.908 550.785 299.16 550.422 299.664C550.063 300.164 549.879 300.873 549.871 301.791V302.283C549.871 303.221 550.053 303.945 550.416 304.457C550.783 304.969 551.291 305.224 551.94 305.224C552.596 305.224 553.1 304.974 553.451 304.474C553.807 303.974 553.985 303.244 553.985 302.283V301.838ZM564.173 303.549C564.087 304.459 563.751 305.17 563.166 305.682C562.58 306.189 561.8 306.443 560.828 306.443C560.148 306.443 559.548 306.283 559.029 305.963C558.513 305.639 558.115 305.18 557.834 304.586C557.552 303.992 557.406 303.303 557.394 302.517V301.721C557.394 300.916 557.537 300.207 557.822 299.594C558.107 298.98 558.515 298.508 559.046 298.176C559.582 297.844 560.199 297.678 560.898 297.678C561.839 297.678 562.597 297.933 563.171 298.445C563.746 298.957 564.08 299.68 564.173 300.613H562.697C562.626 300 562.447 299.558 562.158 299.289C561.873 299.016 561.453 298.879 560.898 298.879C560.253 298.879 559.757 299.115 559.41 299.588C559.066 300.057 558.89 300.746 558.882 301.656V302.412C558.882 303.334 559.046 304.037 559.375 304.521C559.707 305.006 560.191 305.248 560.828 305.248C561.41 305.248 561.847 305.117 562.14 304.855C562.433 304.594 562.619 304.158 562.697 303.549H564.173ZM571.21 302.517H567.706V305.142H571.802V306.326H566.223V297.795H571.761V298.99H567.706V301.346H571.21V302.517ZM578.188 304.129C578.188 303.754 578.055 303.465 577.789 303.262C577.527 303.058 577.053 302.853 576.365 302.646C575.678 302.439 575.131 302.209 574.725 301.955C573.947 301.467 573.559 300.83 573.559 300.045C573.559 299.357 573.838 298.791 574.397 298.346C574.959 297.9 575.688 297.678 576.582 297.678C577.176 297.678 577.705 297.787 578.17 298.006C578.635 298.224 579 298.537 579.266 298.943C579.531 299.346 579.664 299.793 579.664 300.285H578.188C578.188 299.84 578.047 299.492 577.766 299.242C577.488 298.988 577.09 298.861 576.57 298.861C576.086 298.861 575.709 298.965 575.44 299.172C575.174 299.379 575.041 299.668 575.041 300.039C575.041 300.351 575.186 300.613 575.475 300.824C575.764 301.031 576.24 301.234 576.904 301.433C577.568 301.629 578.102 301.853 578.504 302.107C578.906 302.357 579.201 302.646 579.389 302.974C579.576 303.299 579.67 303.68 579.67 304.117C579.67 304.828 579.397 305.394 578.85 305.816C578.307 306.234 577.568 306.443 576.635 306.443C576.018 306.443 575.449 306.33 574.93 306.103C574.414 305.873 574.012 305.557 573.723 305.154C573.438 304.752 573.295 304.283 573.295 303.748H574.777C574.777 304.232 574.938 304.607 575.258 304.873C575.578 305.139 576.037 305.271 576.635 305.271C577.15 305.271 577.537 305.168 577.795 304.961C578.057 304.75 578.188 304.473 578.188 304.129ZM586.15 304.129C586.15 303.754 586.017 303.465 585.751 303.262C585.49 303.058 585.015 302.853 584.327 302.646C583.64 302.439 583.093 302.209 582.687 301.955C581.91 301.467 581.521 300.83 581.521 300.045C581.521 299.357 581.8 298.791 582.359 298.346C582.921 297.9 583.65 297.678 584.544 297.678C585.138 297.678 585.667 297.787 586.132 298.006C586.597 298.224 586.962 298.537 587.228 298.943C587.493 299.346 587.626 299.793 587.626 300.285H586.15C586.15 299.84 586.009 299.492 585.728 299.242C585.451 298.988 585.052 298.861 584.533 298.861C584.048 298.861 583.671 298.965 583.402 299.172C583.136 299.379 583.003 299.668 583.003 300.039C583.003 300.351 583.148 300.613 583.437 300.824C583.726 301.031 584.202 301.234 584.867 301.433C585.531 301.629 586.064 301.853 586.466 302.107C586.868 302.357 587.163 302.646 587.351 302.974C587.538 303.299 587.632 303.68 587.632 304.117C587.632 304.828 587.359 305.394 586.812 305.816C586.269 306.234 585.531 306.443 584.597 306.443C583.98 306.443 583.411 306.33 582.892 306.103C582.376 305.873 581.974 305.557 581.685 305.154C581.4 304.752 581.257 304.283 581.257 303.748H582.74C582.74 304.232 582.9 304.607 583.22 304.873C583.54 305.139 583.999 305.271 584.597 305.271C585.113 305.271 585.499 305.168 585.757 304.961C586.019 304.75 586.15 304.473 586.15 304.129ZM596.462 302.283C596.462 303.119 596.317 303.853 596.028 304.486C595.739 305.115 595.325 305.599 594.786 305.939C594.251 306.275 593.633 306.443 592.934 306.443C592.243 306.443 591.626 306.275 591.083 305.939C590.544 305.599 590.126 305.117 589.829 304.492C589.536 303.867 589.387 303.146 589.383 302.33V301.849C589.383 301.017 589.53 300.283 589.823 299.646C590.12 299.01 590.536 298.523 591.071 298.187C591.61 297.848 592.227 297.678 592.922 297.678C593.618 297.678 594.233 297.846 594.768 298.182C595.307 298.514 595.723 298.994 596.016 299.623C596.309 300.248 596.458 300.976 596.462 301.808V302.283ZM594.979 301.838C594.979 300.892 594.799 300.168 594.44 299.664C594.085 299.16 593.579 298.908 592.922 298.908C592.282 298.908 591.78 299.16 591.417 299.664C591.057 300.164 590.874 300.873 590.866 301.791V302.283C590.866 303.221 591.047 303.945 591.411 304.457C591.778 304.969 592.286 305.224 592.934 305.224C593.59 305.224 594.094 304.974 594.446 304.474C594.801 303.974 594.979 303.244 594.979 302.283V301.838ZM601.793 303.039H600.141V306.326H598.658V297.795H601.658C602.642 297.795 603.402 298.016 603.937 298.457C604.473 298.898 604.74 299.537 604.74 300.373C604.74 300.943 604.601 301.422 604.324 301.808C604.051 302.191 603.668 302.486 603.176 302.693L605.092 306.25V306.326H603.504L601.793 303.039ZM600.141 301.849H601.664C602.164 301.849 602.555 301.724 602.836 301.474C603.117 301.221 603.258 300.875 603.258 300.437C603.258 299.98 603.127 299.627 602.865 299.377C602.607 299.127 602.221 298.998 601.705 298.99H600.141V301.849ZM611.325 304.129C611.325 303.754 611.193 303.465 610.927 303.262C610.665 303.058 610.191 302.853 609.503 302.646C608.816 302.439 608.269 302.209 607.862 301.955C607.085 301.467 606.696 300.83 606.696 300.045C606.696 299.357 606.976 298.791 607.534 298.346C608.097 297.9 608.825 297.678 609.72 297.678C610.314 297.678 610.843 297.787 611.308 298.006C611.773 298.224 612.138 298.537 612.404 298.943C612.669 299.346 612.802 299.793 612.802 300.285H611.325C611.325 299.84 611.185 299.492 610.904 299.242C610.626 298.988 610.228 298.861 609.708 298.861C609.224 298.861 608.847 298.965 608.577 299.172C608.312 299.379 608.179 299.668 608.179 300.039C608.179 300.351 608.323 300.613 608.612 300.824C608.902 301.031 609.378 301.234 610.042 301.433C610.706 301.629 611.239 301.853 611.642 302.107C612.044 302.357 612.339 302.646 612.527 302.974C612.714 303.299 612.808 303.68 612.808 304.117C612.808 304.828 612.534 305.394 611.987 305.816C611.445 306.234 610.706 306.443 609.773 306.443C609.155 306.443 608.587 306.33 608.068 306.103C607.552 305.873 607.15 305.557 606.861 305.154C606.575 304.752 606.433 304.283 606.433 303.748H607.915C607.915 304.232 608.075 304.607 608.396 304.873C608.716 305.139 609.175 305.271 609.773 305.271C610.288 305.271 610.675 305.168 610.933 304.961C611.195 304.75 611.325 304.473 611.325 304.129Z" fill="white"/>
<mask maskUnits="userSpaceOnUse" x="0" y="0" width="0" height="0" fill="black">
<rect fill="white" width="0" height="0"/>
</mask>
<path d="M520.828 222.116L509.603 219.408L512.871 230.483L520.828 222.116ZM429.055 249.196L440.281 251.903L437.013 240.828L429.055 249.196ZM511.913 223.704L437.404 245.69L437.97 247.608L512.479 225.622L511.913 223.704Z" fill="#A9CBD4" mask="url(#)"/>
<mask maskUnits="userSpaceOnUse" x="0" y="0" width="0" height="0" fill="black">
<rect fill="white" width="0" height="0"/>
</mask>
<path d="M520.828 372.148L509.603 374.855L512.871 363.781L520.828 372.148ZM429.055 345.068L440.281 342.361L437.013 353.435L429.055 345.068ZM511.913 370.56L437.404 348.574L437.97 346.656L512.479 368.642L511.913 370.56Z" fill="#A9CBD4" mask="url(#)"/>
<rect x="60.1786" y="343.018" width="84.25" height="52.6562" fill="#A9CBD4"/>
<path d="M102.304 405.701C113.976 405.701 124.569 404.857 132.266 403.482C136.107 402.796 139.275 401.97 141.507 401.028C142.619 400.559 143.556 400.037 144.23 399.448C144.899 398.864 145.429 398.106 145.429 397.179C145.429 396.251 144.899 395.493 144.23 394.909C143.556 394.32 142.619 393.799 141.507 393.329C139.275 392.387 136.107 391.561 132.266 390.875C124.569 389.501 113.976 388.656 102.304 388.656C90.6308 388.656 80.0379 389.501 72.3409 390.875C68.5006 391.561 65.332 392.387 63.1 393.329C61.9882 393.799 61.0516 394.32 60.3769 394.909C59.7078 395.493 59.1786 396.251 59.1786 397.179C59.1786 398.106 59.7078 398.864 60.3769 399.448C61.0516 400.037 61.9882 400.559 63.1 401.028C65.332 401.97 68.5006 402.796 72.3409 403.482C80.0379 404.857 90.6308 405.701 102.304 405.701Z" fill="#A9CBD4" stroke="#294444" stroke-width="2"/>
<path d="M102.304 351.54C113.976 351.54 124.569 350.696 132.266 349.321C136.107 348.636 139.275 347.81 141.507 346.867C142.619 346.398 143.556 345.876 144.23 345.287C144.899 344.703 145.429 343.945 145.429 343.018C145.429 342.091 144.899 341.332 144.23 340.748C143.556 340.16 142.619 339.638 141.507 339.169C139.275 338.226 136.107 337.4 132.266 336.714C124.569 335.34 113.976 334.496 102.304 334.496C90.6308 334.496 80.0379 335.34 72.3409 336.714C68.5006 337.4 65.332 338.226 63.1 339.169C61.9882 339.638 61.0516 340.16 60.3769 340.748C59.7078 341.332 59.1786 342.091 59.1786 343.018C59.1786 343.945 59.7078 344.703 60.3769 345.287C61.0516 345.876 61.9882 346.398 63.1 346.867C65.332 347.81 68.5006 348.636 72.3409 349.321C80.0379 350.696 90.6308 351.54 102.304 351.54Z" fill="#A9CBD4" stroke="#294444" stroke-width="2"/>
<path d="M95.5884 376.08V367.549H98.3364C99.0904 367.549 99.7681 367.721 100.37 368.065C100.971 368.405 101.44 368.887 101.776 369.512C102.116 370.133 102.288 370.83 102.292 371.604V371.996C102.292 372.778 102.126 373.479 101.793 374.1C101.465 374.717 101.001 375.202 100.399 375.553C99.8013 375.901 99.1333 376.077 98.395 376.08H95.5884ZM97.645 369.137V374.498H98.3599C98.9497 374.498 99.4029 374.289 99.7193 373.871C100.036 373.45 100.194 372.825 100.194 371.996V371.627C100.194 370.803 100.036 370.182 99.7193 369.764C99.4029 369.346 98.9419 369.137 98.3364 369.137H97.645ZM104.066 376.08V367.549H107.131C108.228 367.549 109.062 367.75 109.633 368.153C110.207 368.555 110.494 369.139 110.494 369.905C110.494 370.346 110.392 370.723 110.189 371.036C109.986 371.348 109.687 371.578 109.293 371.727C109.738 371.844 110.08 372.063 110.318 372.383C110.556 372.703 110.676 373.094 110.676 373.555C110.676 374.391 110.41 375.02 109.879 375.442C109.351 375.86 108.568 376.073 107.529 376.08H104.066ZM106.123 372.453V374.498H107.471C107.842 374.498 108.127 374.414 108.326 374.246C108.525 374.075 108.625 373.834 108.625 373.526C108.625 372.815 108.271 372.457 107.564 372.453H106.123ZM106.123 371.106H107.195C107.644 371.102 107.965 371.02 108.156 370.86C108.347 370.7 108.443 370.463 108.443 370.151C108.443 369.791 108.34 369.534 108.133 369.377C107.926 369.217 107.592 369.137 107.131 369.137H106.123V371.106Z" fill="#2A4344"/>
<rect x="60.1786" y="194.076" width="84.25" height="52.6562" fill="#A9CBD4"/>
<path d="M102.304 256.759C113.976 256.759 124.569 255.915 132.266 254.54C136.107 253.854 139.275 253.028 141.507 252.086C142.619 251.617 143.556 251.095 144.23 250.506C144.899 249.922 145.429 249.164 145.429 248.237C145.429 247.309 144.899 246.551 144.23 245.967C143.556 245.378 142.619 244.857 141.507 244.387C139.275 243.445 136.107 242.619 132.266 241.933C124.569 240.559 113.976 239.714 102.304 239.714C90.6308 239.714 80.0379 240.559 72.3409 241.933C68.5006 242.619 65.332 243.445 63.1 244.387C61.9882 244.857 61.0516 245.378 60.3769 245.967C59.7078 246.551 59.1786 247.309 59.1786 248.237C59.1786 249.164 59.7078 249.922 60.3769 250.506C61.0516 251.095 61.9882 251.617 63.1 252.086C65.332 253.028 68.5006 253.854 72.3409 254.54C80.0379 255.915 90.6308 256.759 102.304 256.759Z" fill="#A9CBD4" stroke="#294444" stroke-width="2"/>
<path d="M102.304 202.598C113.976 202.598 124.569 201.754 132.266 200.379C136.107 199.694 139.275 198.868 141.507 197.925C142.619 197.456 143.556 196.934 144.23 196.345C144.899 195.761 145.429 195.003 145.429 194.076C145.429 193.149 144.899 192.39 144.23 191.806C143.556 191.218 142.619 190.696 141.507 190.227C139.275 189.284 136.107 188.458 132.266 187.772C124.569 186.398 113.976 185.554 102.304 185.554C90.6308 185.554 80.0379 186.398 72.3409 187.772C68.5006 188.458 65.332 189.284 63.1 190.227C61.9882 190.696 61.0516 191.218 60.3769 191.806C59.7078 192.39 59.1786 193.149 59.1786 194.076C59.1786 195.003 59.7078 195.761 60.3769 196.345C61.0516 196.934 61.9882 197.456 63.1 197.925C65.332 198.868 68.5006 199.694 72.3409 200.379C80.0379 201.754 90.6308 202.598 102.304 202.598Z" fill="#A9CBD4" stroke="#294444" stroke-width="2"/>
<path d="M95.5884 227.138V218.607H98.3364C99.0904 218.607 99.7681 218.779 100.37 219.123C100.971 219.463 101.44 219.945 101.776 220.57C102.116 221.191 102.288 221.888 102.292 222.662V223.054C102.292 223.836 102.126 224.537 101.793 225.158C101.465 225.775 101.001 226.26 100.399 226.611C99.8013 226.959 99.1333 227.135 98.395 227.138H95.5884ZM97.645 220.195V225.556H98.3599C98.9497 225.556 99.4029 225.347 99.7193 224.929C100.036 224.508 100.194 223.883 100.194 223.054V222.685C100.194 221.861 100.036 221.24 99.7193 220.822C99.4029 220.404 98.9419 220.195 98.3364 220.195H97.645ZM104.066 227.138V218.607H107.131C108.228 218.607 109.062 218.808 109.633 219.211C110.207 219.613 110.494 220.197 110.494 220.963C110.494 221.404 110.392 221.781 110.189 222.094C109.986 222.406 109.687 222.636 109.293 222.785C109.738 222.902 110.08 223.121 110.318 223.441C110.556 223.761 110.676 224.152 110.676 224.613C110.676 225.449 110.41 226.078 109.879 226.5C109.351 226.918 108.568 227.131 107.529 227.138H104.066ZM106.123 223.511V225.556H107.471C107.842 225.556 108.127 225.472 108.326 225.304C108.525 225.133 108.625 224.892 108.625 224.584C108.625 223.873 108.271 223.515 107.564 223.511H106.123ZM106.123 222.164H107.195C107.644 222.16 107.965 222.078 108.156 221.918C108.347 221.758 108.443 221.521 108.443 221.209C108.443 220.849 108.34 220.592 108.133 220.435C107.926 220.275 107.592 220.195 107.131 220.195H106.123V222.164Z" fill="#2A4344"/>
<path d="M236.953 246.732L228.981 238.379L225.733 249.46L236.953 246.732ZM149.413 222.116L228.035 245.161L228.598 243.241L149.975 220.197L149.413 222.116Z" fill="#A9CBD4"/>
<path d="M147.437 368.594L155.41 360.241L158.658 371.322L147.437 368.594ZM234.978 343.978L156.355 367.022L155.793 365.103L234.415 342.058L234.978 343.978Z" fill="#A9CBD4"/>
<path d="M67.5716 296.549C67.4857 297.459 67.1497 298.17 66.5638 298.681C65.9779 299.189 65.1986 299.443 64.2259 299.443C63.5462 299.443 62.9466 299.283 62.4271 298.963C61.9115 298.638 61.513 298.179 61.2318 297.586C60.9505 296.992 60.804 296.302 60.7923 295.517V294.72C60.7923 293.916 60.9349 293.207 61.2201 292.594C61.5052 291.98 61.9134 291.508 62.4447 291.176C62.9798 290.844 63.597 290.677 64.2962 290.677C65.2376 290.677 65.9954 290.933 66.5697 291.445C67.1439 291.957 67.4779 292.679 67.5716 293.613H66.0951C66.0247 293 65.8451 292.558 65.556 292.289C65.2708 292.015 64.8509 291.879 64.2962 291.879C63.6517 291.879 63.1556 292.115 62.8079 292.588C62.4642 293.056 62.2884 293.746 62.2806 294.656V295.412C62.2806 296.334 62.4447 297.037 62.7728 297.521C63.1048 298.006 63.5892 298.248 64.2259 298.248C64.8079 298.248 65.2454 298.117 65.5384 297.855C65.8314 297.594 66.0169 297.158 66.0951 296.549H67.5716ZM76.4303 295.283C76.4303 296.119 76.2858 296.853 75.9967 297.486C75.7076 298.115 75.2936 298.599 74.7545 298.939C74.2194 299.275 73.6022 299.443 72.9029 299.443C72.2115 299.443 71.5944 299.275 71.0514 298.939C70.5123 298.599 70.0944 298.117 69.7975 297.492C69.5045 296.867 69.3561 296.146 69.3522 295.33V294.849C69.3522 294.017 69.4986 293.283 69.7916 292.646C70.0885 292.01 70.5045 291.523 71.0397 291.187C71.5787 290.847 72.1959 290.677 72.8912 290.677C73.5865 290.677 74.2018 290.845 74.7369 291.181C75.276 291.513 75.692 291.994 75.985 292.623C76.2779 293.248 76.4264 293.976 76.4303 294.808V295.283ZM74.9479 294.838C74.9479 293.892 74.7682 293.168 74.4088 292.664C74.0533 292.16 73.5475 291.908 72.8912 291.908C72.2506 291.908 71.7486 292.16 71.3854 292.664C71.026 293.164 70.8424 293.873 70.8346 294.791V295.283C70.8346 296.22 71.0162 296.945 71.3795 297.457C71.7467 297.969 72.2545 298.224 72.9029 298.224C73.5592 298.224 74.0631 297.974 74.4147 297.474C74.7701 296.974 74.9479 296.244 74.9479 295.283V294.838ZM85.3944 299.326H83.912L80.1093 293.273V299.326H78.6269V290.795H80.1093L83.9237 296.871V290.795H85.3944V299.326ZM94.634 299.326H93.1515L89.3488 293.273V299.326H87.8664V290.795H89.3488L93.1633 296.871V290.795H94.634V299.326ZM102.092 295.517H98.5883V298.142H102.684V299.326H97.1059V290.795H102.643V291.99H98.5883V294.345H102.092V295.517ZM111.121 296.549C111.035 297.459 110.699 298.17 110.113 298.681C109.527 299.189 108.748 299.443 107.775 299.443C107.095 299.443 106.496 299.283 105.976 298.963C105.461 298.638 105.062 298.179 104.781 297.586C104.5 296.992 104.353 296.302 104.342 295.517V294.72C104.342 293.916 104.484 293.207 104.769 292.594C105.054 291.98 105.463 291.508 105.994 291.176C106.529 290.844 107.146 290.677 107.845 290.677C108.787 290.677 109.545 290.933 110.119 291.445C110.693 291.957 111.027 292.679 111.121 293.613H109.644C109.574 293 109.394 292.558 109.105 292.289C108.82 292.015 108.4 291.879 107.845 291.879C107.201 291.879 106.705 292.115 106.357 292.588C106.013 293.056 105.838 293.746 105.83 294.656V295.412C105.83 296.334 105.994 297.037 106.322 297.521C106.654 298.006 107.138 298.248 107.775 298.248C108.357 298.248 108.795 298.117 109.088 297.855C109.381 297.594 109.566 297.158 109.644 296.549H111.121ZM119.159 291.99H116.499V299.326H115.028V291.99H112.392V290.795H119.159V291.99ZM127.649 295.283C127.649 296.119 127.504 296.853 127.215 297.486C126.926 298.115 126.512 298.599 125.973 298.939C125.438 299.275 124.821 299.443 124.121 299.443C123.43 299.443 122.813 299.275 122.27 298.939C121.731 298.599 121.313 298.117 121.016 297.492C120.723 296.867 120.575 296.146 120.571 295.33V294.849C120.571 294.017 120.717 293.283 121.01 292.646C121.307 292.01 121.723 291.523 122.258 291.187C122.797 290.847 123.414 290.677 124.11 290.677C124.805 290.677 125.42 290.845 125.955 291.181C126.494 291.513 126.91 291.994 127.203 292.623C127.496 293.248 127.645 293.976 127.649 294.808V295.283ZM126.166 294.838C126.166 293.892 125.987 293.168 125.627 292.664C125.272 292.16 124.766 291.908 124.11 291.908C123.469 291.908 122.967 292.16 122.604 292.664C122.244 293.164 122.061 293.873 122.053 294.791V295.283C122.053 296.22 122.235 296.945 122.598 297.457C122.965 297.969 123.473 298.224 124.121 298.224C124.778 298.224 125.282 297.974 125.633 297.474C125.989 296.974 126.166 296.244 126.166 295.283V294.838ZM132.98 296.039H131.328V299.326H129.845V290.795H132.845C133.83 290.795 134.589 291.015 135.125 291.457C135.66 291.898 135.927 292.537 135.927 293.373C135.927 293.943 135.789 294.422 135.511 294.808C135.238 295.191 134.855 295.486 134.363 295.693L136.279 299.25V299.326H134.691L132.98 296.039ZM131.328 294.849H132.851C133.351 294.849 133.742 294.724 134.023 294.474C134.304 294.22 134.445 293.875 134.445 293.437C134.445 292.98 134.314 292.627 134.052 292.377C133.795 292.127 133.408 291.998 132.892 291.99H131.328V294.849ZM142.513 297.129C142.513 296.754 142.38 296.465 142.114 296.261C141.852 296.058 141.378 295.853 140.69 295.646C140.003 295.439 139.456 295.209 139.05 294.955C138.272 294.467 137.884 293.83 137.884 293.045C137.884 292.357 138.163 291.791 138.722 291.345C139.284 290.9 140.013 290.677 140.907 290.677C141.501 290.677 142.03 290.787 142.495 291.006C142.96 291.224 143.325 291.537 143.591 291.943C143.856 292.345 143.989 292.793 143.989 293.285H142.513C142.513 292.84 142.372 292.492 142.091 292.242C141.813 291.988 141.415 291.861 140.895 291.861C140.411 291.861 140.034 291.965 139.765 292.172C139.499 292.379 139.366 292.668 139.366 293.039C139.366 293.351 139.511 293.613 139.8 293.824C140.089 294.031 140.565 294.234 141.229 294.433C141.893 294.629 142.427 294.853 142.829 295.107C143.231 295.357 143.526 295.646 143.714 295.974C143.901 296.299 143.995 296.679 143.995 297.117C143.995 297.828 143.722 298.394 143.175 298.816C142.632 299.234 141.893 299.443 140.96 299.443C140.343 299.443 139.774 299.33 139.255 299.103C138.739 298.873 138.337 298.556 138.048 298.154C137.763 297.752 137.62 297.283 137.62 296.748H139.102C139.102 297.232 139.263 297.607 139.583 297.873C139.903 298.138 140.362 298.271 140.96 298.271C141.475 298.271 141.862 298.168 142.12 297.961C142.382 297.75 142.513 297.472 142.513 297.129Z" fill="white"/>
<circle cx="332.487" cy="291.866" r="93.7812" fill="#A9CBD4" stroke="#A9CBD4" stroke-width="2"/>
<path d="M316.207 286.15L315.363 287.076V289.326H313.307V280.795H315.363V284.556L316.078 283.472L317.918 280.795H320.461L317.578 284.568L320.461 289.326H318.023L316.207 286.15ZM326.548 287.732H323.73L323.238 289.326H321.04L324.169 280.795H326.103L329.255 289.326H327.046L326.548 287.732ZM324.222 286.144H326.056L325.136 283.185L324.222 286.144ZM335.975 285.927H332.659V289.326H330.602V280.795H336.309V282.383H332.659V284.345H335.975V285.927ZM340.785 286.15L339.941 287.076V289.326H337.885V280.795H339.941V284.556L340.656 283.472L342.496 280.795H345.039L342.156 284.568L345.039 289.326H342.601L340.785 286.15ZM351.126 287.732H348.308L347.816 289.326H345.618L348.747 280.795H350.681L353.833 289.326H351.624L351.126 287.732ZM348.8 286.144H350.634L349.714 283.185L348.8 286.144ZM312.704 300.437C312.676 301.031 312.516 301.556 312.223 302.013C311.93 302.467 311.518 302.818 310.987 303.068C310.46 303.318 309.856 303.443 309.176 303.443C308.055 303.443 307.173 303.078 306.528 302.347C305.884 301.617 305.561 300.586 305.561 299.254V298.832C305.561 297.996 305.706 297.265 305.995 296.64C306.288 296.011 306.708 295.527 307.255 295.187C307.801 294.844 308.434 294.672 309.153 294.672C310.188 294.672 311.02 294.945 311.649 295.492C312.278 296.035 312.635 296.785 312.721 297.742H310.671C310.655 297.222 310.524 296.849 310.278 296.623C310.032 296.396 309.657 296.283 309.153 296.283C308.641 296.283 308.266 296.474 308.028 296.857C307.79 297.24 307.665 297.851 307.653 298.691V299.295C307.653 300.205 307.766 300.855 307.993 301.246C308.223 301.636 308.618 301.832 309.176 301.832C309.649 301.832 310.01 301.72 310.26 301.498C310.51 301.275 310.643 300.922 310.659 300.437H312.704ZM316.453 301.744H320.033V303.326H314.396V294.795H316.453V301.744ZM328.171 294.795V300.379C328.171 301.011 328.036 301.56 327.767 302.025C327.497 302.486 327.111 302.838 326.607 303.08C326.103 303.322 325.507 303.443 324.82 303.443C323.781 303.443 322.962 303.174 322.365 302.635C321.767 302.095 321.462 301.357 321.45 300.42V294.795H323.519V300.461C323.542 301.394 323.976 301.861 324.82 301.861C325.245 301.861 325.568 301.744 325.786 301.51C326.005 301.275 326.115 300.894 326.115 300.367V294.795H328.171ZM334.581 301.058C334.581 300.758 334.473 300.523 334.258 300.355C334.047 300.187 333.674 300.013 333.139 299.834C332.604 299.654 332.167 299.48 331.827 299.312C330.721 298.769 330.169 298.023 330.169 297.074C330.169 296.601 330.305 296.185 330.579 295.826C330.856 295.463 331.247 295.181 331.751 294.982C332.254 294.779 332.821 294.677 333.45 294.677C334.063 294.677 334.612 294.787 335.096 295.006C335.585 295.224 335.963 295.537 336.233 295.943C336.502 296.345 336.637 296.806 336.637 297.326H334.586C334.586 296.978 334.479 296.709 334.264 296.517C334.053 296.326 333.766 296.23 333.403 296.23C333.036 296.23 332.745 296.312 332.53 296.476C332.319 296.636 332.213 296.842 332.213 297.092C332.213 297.31 332.331 297.51 332.565 297.689C332.799 297.865 333.211 298.049 333.801 298.24C334.391 298.427 334.876 298.631 335.254 298.849C336.176 299.381 336.637 300.113 336.637 301.047C336.637 301.793 336.356 302.379 335.794 302.804C335.231 303.23 334.46 303.443 333.479 303.443C332.788 303.443 332.161 303.32 331.598 303.074C331.04 302.824 330.618 302.484 330.333 302.054C330.051 301.621 329.911 301.123 329.911 300.56H331.973C331.973 301.017 332.09 301.355 332.325 301.574C332.563 301.789 332.948 301.896 333.479 301.896C333.819 301.896 334.086 301.824 334.282 301.679C334.481 301.531 334.581 301.324 334.581 301.058ZM345.109 296.383H342.549V303.326H340.492V296.383H337.978V294.795H345.109V296.383ZM351.993 299.711H348.759V301.744H352.579V303.326H346.702V294.795H352.591V296.383H348.759V298.181H351.993V299.711ZM357.307 300.314H356.194V303.326H354.137V294.795H357.495C358.506 294.795 359.297 295.019 359.868 295.469C360.438 295.918 360.723 296.552 360.723 297.373C360.723 297.967 360.602 298.459 360.36 298.849C360.121 299.24 359.746 299.556 359.235 299.799L361.016 303.238V303.326H358.813L357.307 300.314ZM356.194 298.726H357.495C357.885 298.726 358.178 298.625 358.373 298.422C358.573 298.215 358.672 297.927 358.672 297.56C358.672 297.193 358.573 296.906 358.373 296.699C358.174 296.488 357.881 296.383 357.495 296.383H356.194V298.726Z" fill="#2A4344"/>
</svg>
