<svg width="1440" height="652" viewBox="0 0 1440 652" fill="none" xmlns="http://www.w3.org/2000/svg">
<path d="M2.98023e-06 235C110.821 235 186.5 127.5 303 127.5C379.912 127.5 435.573 191.112 505.5 244C553.766 280.505 605.544 310.5 681.5 310.5C719.102 310.5 754.986 301.318 787 287C898.873 236.965 984.31 125 1074.5 125C1121.06 125 1167 138 1202.5 155.5C1277.42 186.95 1339.5 225.5 1440 225.5C1440 960.087 1439.11 522.5 1439.11 522.5H-0.889529L2.98023e-06 235Z" fill="#363D3F"/>
<path d="M1439.39 195.702C1392.55 199.191 1358.23 188.453 1328.25 175.661C1290.29 159.535 1260.51 140.734 1228.91 122.786C1192.17 101.892 1127.66 57.9332 1045.69 72.0435C1010.06 78.1683 982.699 90.883 958.673 102.202C932.022 114.723 907.593 127.903 881.85 140.734C834.808 164.07 770.301 197.33 684.494 197.059C580.516 196.71 521.865 143.719 484.816 113.793C461.598 94.9921 440.398 75.8037 416.574 57.0804C397.091 41.8072 375.084 22.6188 337.531 12.5401C268.885 -5.95059 201.35 35.3723 171.267 53.1652C144.818 68.7873 120.692 85.1847 90.4067 99.7989C64.9675 112.048 36.1969 122.709 -6 123.91C-6 121.933 -6 121.042 -6 119.259C36.4997 117.669 65.1694 106.66 90.4067 94.2168C120.692 79.2537 144.818 62.585 171.267 46.614C200.543 28.9374 268.683 -14.0524 337.43 4.59335C374.781 14.7109 396.284 33.9768 415.464 49.2112C438.985 67.9732 459.781 87.2004 482.797 106.001C519.947 136.393 579.002 189.228 684.393 189.384C769.494 189.5 834.101 157.093 881.548 134.028C907.29 121.507 931.82 108.56 958.471 96.3101C982.699 85.1459 1010.26 72.7413 1045.59 66.694C1127.97 52.6225 1192.67 98.0932 1228.81 118.987C1260.41 137.284 1290.29 156.395 1328.15 172.909C1357.93 185.895 1392.25 197.098 1439.5 194.035C1439.6 193.919 1439.5 194.384 1439.39 195.702Z" fill="url(#paint0_linear)"/>
<path d="M1438.99 202.136C1391.54 204.888 1357.52 193.22 1328.15 180.157C1290.29 163.333 1260.41 143.951 1228.81 125.421C1193.99 104.953 1127.06 57.1182 1045.59 72.2363C1009.55 78.9425 982.497 92.3938 958.673 104.217C932.022 117.474 907.593 131.352 881.85 144.842C836.423 168.76 771.614 204.733 684.494 204.617C639.37 204.578 603.331 192.29 576.478 179.575C539.733 162.247 513.082 141.818 487.946 121.816C464.323 103.093 442.72 83.9819 418.291 65.4137C398.303 50.1793 375.69 31.1072 337.834 21.106C268.885 2.84792 201.653 43.9382 171.368 61.8474C144.919 77.4695 120.793 93.7893 90.5077 108.404C64.9675 120.653 36.1969 131.275 -6 132.593C-6 129.918 -6 128.755 -6 126.623C81.3213 124.142 129.676 80.6482 171.267 56.149C201.552 38.3174 268.885 -2.73416 337.632 15.679C375.286 25.7577 397.495 44.9073 417.18 60.1805C441.206 78.8262 462.506 98.0147 485.927 116.777C522.672 146.315 581.425 199.578 684.494 199.888C770.705 200.12 835.313 166.008 881.85 142.477C907.593 129.453 932.022 116.04 958.673 103.287C982.699 91.8123 1009.96 78.865 1045.69 72.5464C1127.46 58.126 1192.67 103.093 1228.91 123.832C1260.51 141.935 1290.29 160.852 1328.25 177.172C1358.13 190.003 1392.35 200.973 1439.29 197.678C1439.09 199.345 1438.99 200.43 1438.99 202.136Z" fill="url(#paint1_linear)"/>
<path d="M1439.6 205.819C1392.45 208.803 1358.33 197.368 1328.85 184.421C1290.9 167.791 1261.02 148.564 1229.32 130.189C1194.29 109.838 1126.65 62.4677 1045.69 77.9347C1009.35 84.8735 982.497 98.8675 958.875 111.04C932.224 124.762 907.895 139.183 882.153 153.176C837.534 177.482 772.724 215.277 684.494 215.006C640.379 214.889 605.552 202.446 579.507 190.041C543.064 172.675 516.413 152.362 490.873 132.476C466.948 113.792 444.84 94.7584 419.906 76.2678C399.413 61.0334 376.094 42.0776 337.935 32.1151C268.583 13.9733 201.552 55.4125 171.267 73.3992C144.818 89.0988 120.591 105.535 90.4067 120.227C65.0684 132.554 36.2978 143.292 -6 144.842C-6 140.966 -6 139.299 -6 136.275C36.1969 134.88 64.9675 124.181 90.4067 111.892C120.692 97.2394 144.818 80.842 171.267 65.1812C201.552 47.272 268.683 5.98784 337.834 24.1684C375.791 34.1696 398.706 53.2029 418.795 68.3986C443.326 86.928 465.131 106 488.854 124.723C514.193 144.687 540.742 165.077 577.488 182.405C604.038 194.965 639.774 207.33 684.494 207.369C772.118 207.447 836.928 170.582 882.052 146.509C907.794 132.786 932.123 118.676 958.774 105.186C982.598 93.1691 1009.55 79.4853 1045.69 72.6239C1126.85 57.1957 1194.49 106.039 1228.91 126.39C1260.51 145.113 1290.39 164.612 1328.25 181.591C1357.52 194.732 1391.44 206.594 1438.99 204.074C1439.09 205.431 1439.19 205.935 1439.6 205.819Z" fill="url(#paint2_linear)"/>
<path d="M1439.39 208.61C1393.16 212.486 1359.24 201.516 1329.76 188.917C1291.71 172.597 1261.72 153.603 1230.03 135.461C1194.89 115.381 1126.05 68.0497 1045.79 83.9819C1008.84 91.3084 982.093 106.078 958.774 118.754C932.022 133.252 907.693 148.37 881.951 163.139C838.543 187.909 774.137 228.38 684.494 228.031C640.682 227.876 606.561 215.2 580.92 202.834C544.578 185.235 517.928 164.69 492.286 144.61C468.16 125.692 445.85 106.427 420.713 87.7421C400.019 72.3526 376.497 53.2029 338.036 43.0854C268.28 24.7886 201.35 66.7705 171.267 84.8348C144.818 100.728 120.692 117.281 90.4067 132.166C65.1694 144.571 36.3988 155.502 -6 157.014C-6 154.262 -6 152.866 -6 149.533C36.2978 148.021 65.0684 137.244 90.4067 124.917C120.692 110.187 144.818 93.7118 171.267 77.9734C201.552 59.9867 268.381 18.47 337.935 36.573C376.195 46.5355 399.615 65.5688 420.209 80.8032C445.244 99.3327 467.453 118.405 491.378 137.167C516.918 157.092 543.569 177.443 580.012 194.848C606.057 207.292 640.379 219.58 684.494 219.774C773.229 220.161 837.635 181.978 882.052 157.518C907.794 143.369 932.123 128.794 958.774 114.916C982.295 102.666 1009.25 88.5174 1045.69 81.5785C1126.45 66.2666 1193.99 112.435 1229.52 132.748C1261.22 150.851 1291.2 169.768 1329.16 186.088C1358.84 198.841 1392.96 209.811 1439.6 206.284C1439.5 206.982 1439.5 207.524 1439.39 208.61Z" fill="url(#paint3_linear)"/>
<path d="M1438.99 212.641C1392.96 216.634 1359.24 205.16 1330.47 192.522C1292.31 175.776 1262.33 156.394 1230.53 137.865C1197.01 118.288 1124.73 67.1581 1045.59 84.5246C1008.04 92.7427 981.589 108.636 958.37 122.126C931.518 137.709 907.088 153.913 881.346 169.729C840.259 194.965 775.551 240.086 684.494 239.97C641.086 239.931 607.066 226.441 582.333 214.23C545.992 196.244 519.341 175.389 493.7 154.998C469.472 135.771 446.859 116.195 421.42 97.1618C400.523 81.501 376.901 62.08 338.036 51.6911C268.078 32.8904 200.946 75.9577 171.267 94.0219C144.818 110.148 120.692 126.972 90.4067 142.09C65.2703 154.65 36.6007 165.814 -6 167.442C-6 164.457 -6 163.178 -6 160.503C36.4997 158.914 65.1694 147.905 90.4067 135.461C120.692 120.498 144.818 103.829 171.267 87.8584C201.249 69.7941 268.179 27.4246 338.036 45.8764C376.699 56.0715 400.221 75.3374 421.016 90.8432C446.254 109.644 468.664 129.026 492.791 148.06C518.432 168.256 545.083 188.879 581.425 206.633C606.662 218.96 640.783 231.907 684.494 232.023C774.642 232.295 839.149 190.158 881.649 165.193C907.391 150.037 931.719 134.531 958.572 119.684C981.891 106.737 1008.54 91.5797 1045.69 83.9044C1125.54 67.4683 1195.7 116.234 1230.13 136.12C1261.82 154.417 1291.81 173.567 1329.97 190.08C1359.14 202.717 1392.96 213.92 1439.19 210.005C1439.09 211.207 1439.09 211.788 1438.99 212.641Z" fill="url(#paint4_linear)"/>
<path d="M1439.6 214.424C1394.27 219.115 1360.35 208.842 1330.67 196.515C1292.41 180.622 1262.43 161.976 1230.63 144.222C1195.9 124.762 1123.93 76.6554 1045.59 93.9056C1007.63 102.279 981.286 118.637 958.168 132.36C931.215 148.408 906.785 165.077 880.942 181.358C853.181 198.841 824.41 216.595 787.564 231.519C760.711 242.412 725.581 253.344 684.393 253.189C641.187 253.034 607.773 239.582 583.444 227.372C547.203 209.191 520.552 188.258 494.81 167.752C470.481 148.37 447.667 128.677 422.026 109.528C400.927 93.7893 377.103 74.2133 338.036 63.7856C267.674 45.0236 200.744 88.3235 171.166 106.504C144.718 122.785 120.591 139.725 90.3058 154.998C65.3713 167.636 36.8026 178.955 -6 180.505C-6 177.21 -6 174.885 -6 171.551C36.7016 169.923 65.2703 158.681 90.4067 146.121C120.692 130.926 144.818 114.024 171.267 97.8596C200.845 79.7566 267.977 36.4954 338.137 55.2962C377.103 65.7238 400.826 85.2611 421.824 100.961C447.364 120.072 469.977 139.686 494.306 159.03C520.048 179.498 546.698 200.392 582.939 218.495C607.369 230.667 641.187 244.234 684.494 244.312C725.581 244.389 761.014 233.38 787.867 222.565C824.612 207.796 853.484 190.235 881.144 172.946C906.987 156.82 931.316 140.384 958.269 124.53C981.488 110.884 1007.84 94.7197 1045.59 86.3465C1124.53 68.825 1197.22 119.994 1230.73 139.493C1262.53 157.944 1292.51 177.288 1330.77 193.957C1359.54 206.516 1393.16 217.836 1438.89 213.572C1438.99 213.998 1439.29 213.727 1439.6 214.424Z" fill="url(#paint5_linear)"/>
<path d="M1440 218.999C1392.96 222.332 1358.13 212.176 1327.24 199.461C1289.18 183.8 1259.1 165.465 1227.3 147.943C1192.88 129.026 1124.13 84.2145 1048.52 99.5265C1012.48 106.814 987.343 121.971 965.739 134.647C934.142 153.138 906.583 172.636 876.702 191.592C848.941 209.23 819.867 227.178 782.213 242.025C756.37 252.181 723.36 261.988 684.595 261.833C644.215 261.678 613.123 249.971 589.4 238.575C552.351 220.743 525.398 199.849 499.555 179.42C471.39 157.208 445.648 134.453 415.464 112.629C395.173 97.9759 370.34 78.1673 330.061 70.0267C261.718 56.2266 200.24 97.6658 172.681 114.838C145.929 131.507 121.701 148.912 91.2143 164.651C66.0779 177.559 37.4083 189.305 -6 191.011C-6 188.53 -6 187.328 -6 184.498C36.8026 182.909 65.3713 171.551 90.4067 158.914C120.793 143.563 144.818 126.507 171.267 110.148C200.744 91.9286 267.573 48.3574 338.137 67.1969C377.305 77.6246 401.129 97.2394 422.228 112.978C447.869 132.127 470.683 151.858 495.113 171.241C520.956 191.747 547.607 212.719 583.747 230.899C608.076 243.11 641.288 256.6 684.494 256.755C725.783 256.91 760.812 245.901 787.665 234.969C824.511 219.968 853.282 202.136 881.043 184.576C906.886 168.217 931.316 151.471 958.269 135.345C981.387 121.583 1007.63 105.109 1045.69 96.7354C1123.42 79.5628 1195.2 126.739 1230.13 146.083C1261.82 163.604 1291.81 182.017 1329.97 197.639C1360.15 210.005 1394.37 220.006 1440 215.665C1440 216.828 1440 217.603 1440 218.999Z" fill="url(#paint6_linear)"/>
<path d="M1439.6 223.379C1338.34 227.643 1272.73 178.335 1223.46 151.626C1190.86 133.988 1123.32 91.1534 1051.14 104.992C1011.77 112.551 984.819 129.724 962.004 143.447C930.306 162.557 902.444 182.521 872.058 201.942C847.225 217.758 821.18 233.729 788.876 247.49C762.326 258.771 726.691 270.749 684.494 270.633C640.783 270.516 607.369 256.251 583.242 243.885C551.645 227.643 527.316 209.269 504.098 191.127C475.327 168.605 449.181 145.579 418.896 123.367C398 108.093 373.267 87.9359 332.685 78.865C263.737 63.4368 200.946 105.961 173.791 123.134C146.737 140.229 122.408 158.061 91.7191 174.264C66.7846 187.406 38.1149 199.655 -6 201.477C-6 198.221 -6 196.864 -6 194.306C37.5092 192.561 66.1789 180.699 91.1134 167.752C121.701 151.897 145.828 134.376 172.58 117.591C199.937 100.379 261.516 58.5912 330.061 72.4301C370.34 80.5707 395.173 100.418 415.565 115.071C445.85 136.934 471.592 159.689 499.858 181.94C525.701 202.369 552.654 223.301 589.703 241.133C613.325 252.491 644.417 264.275 684.696 264.43C723.461 264.586 756.471 254.662 782.213 244.467C819.867 229.542 848.941 211.478 876.702 193.724C906.482 174.691 934.142 155.076 965.739 136.469C987.444 123.716 1012.48 108.481 1048.52 101.116C1123.62 85.7651 1192.47 130.538 1226.59 149.339C1258.29 166.783 1288.37 185.041 1326.23 200.624C1357.42 213.455 1392.45 223.65 1440 220.859C1439.8 222.138 1439.7 222.759 1439.6 223.379Z" fill="url(#paint7_linear)"/>
<path d="M1439.39 224.697C1340.67 228.922 1275.05 184.266 1223.56 158.526C1189.14 141.315 1121.3 102.821 1051.24 116.273C1011.67 123.871 984.92 141.508 962.509 155.347C930.912 174.846 903.151 195.275 872.866 215.083C834.303 240.241 773.128 285.363 683.889 284.898C639.875 284.666 606.057 270.749 581.425 258.267C549.828 242.218 525.6 224.038 502.482 206.051C473.914 183.8 448.172 161.007 418.19 138.989C397.495 123.832 372.964 103.907 332.786 94.8748C264.746 79.6016 201.451 121.196 173.892 138.213C146.837 154.882 122.509 172.326 91.82 188.103C66.5827 201.089 37.8121 212.99 -6 214.851C-6 211.633 -6 209.928 -6 206.051C38.1149 204.268 66.8855 191.98 91.82 178.8C122.509 162.558 146.837 144.687 173.892 127.553C201.047 110.342 263.737 67.7396 332.887 83.2067C373.469 92.2775 398.303 112.474 419.199 127.708C449.585 149.92 475.731 172.985 504.501 195.507C527.72 213.649 551.948 232.023 583.646 248.304C607.672 260.67 641.086 274.936 684.696 275.052C726.893 275.168 762.427 263.229 788.977 251.91C821.382 238.109 847.427 222.1 872.159 206.245C902.545 186.785 930.407 166.744 962.206 147.594C984.92 133.872 1011.97 116.622 1051.34 109.101C1122.92 95.4175 1189.65 136.353 1222.96 153.952C1273.43 180.66 1338.55 227.876 1439.8 223.767C1439.6 223.96 1439.5 224.154 1439.39 224.697Z" fill="url(#paint8_linear)"/>
<path d="M1438.99 227.217C1342.89 230.24 1277.27 187.987 1224.67 163.139C1189.95 146.742 1118.78 108.752 1051.24 122.746C1011.27 131.003 985.021 149.494 962.913 163.914C931.417 184.421 903.857 205.741 873.472 226.48C848.739 243.381 822.593 260.477 789.482 275.207C762.326 287.302 725.984 300.016 681.668 300.055C637.452 300.094 602.725 286.914 577.286 274.47C545.689 259.003 521.663 241.288 498.848 223.805C470.784 202.214 445.648 180.04 416.272 158.681C396.082 143.951 371.955 124.568 332.383 116.001C265.958 101.62 202.965 138.989 173.589 155.774C130.686 180.467 82.0279 223.612 -6 226.558C-6 223.495 -6 222.061 -6 218.96C37.4083 217.177 66.3808 205.702 91.82 192.91C122.408 177.521 146.837 160.464 173.892 144.144C201.956 127.204 265.251 86.928 332.786 101.93C372.762 110.807 397.192 130.577 417.685 145.617C447.465 167.403 473.005 190.003 501.473 212.06C524.489 229.891 548.616 247.956 580.214 263.81C605.148 276.292 639.269 289.976 683.384 290.131C726.792 290.286 762.73 278.076 789.684 266.33C822.492 252.065 848.537 235.512 873.27 219.154C903.656 199.035 931.316 178.335 962.812 158.526C985.122 144.493 1011.67 126.584 1051.34 118.792C1120.6 105.186 1189.34 143.369 1223.97 160.309C1275.96 185.739 1341.57 229.465 1439.29 225.589C1439.09 226.17 1438.99 226.558 1438.99 227.217Z" fill="url(#paint9_linear)"/>
<path d="M1439.6 228.961C1346.72 231.791 1280.5 192.91 1226.19 169.419C1189.95 153.758 1116.56 118.482 1051.24 132.321C1010.96 140.849 985.223 159.999 963.519 174.73C932.224 195.895 904.867 217.913 874.582 239.311C849.849 256.755 823.704 274.354 790.188 289.589C762.73 302.11 725.884 315.057 680.355 315.057C586.876 315.057 531.051 267.183 495.82 240.241C468.16 219.115 443.528 197.407 414.858 176.474C394.971 162.015 371.248 142.981 332.383 134.608C267.674 120.692 203.975 155.851 173.69 172.287C129.373 196.399 80.5137 236.481 -6 239.427C-6 235.551 -6 233.845 -6 230.628C81.4222 227.953 130.181 186.049 173.791 161.666C203.672 144.958 266.664 108.869 332.484 122.979C371.753 131.391 395.779 150.657 415.767 165.232C444.84 186.398 469.775 208.338 497.738 229.736C520.451 247.103 544.376 264.663 575.974 279.936C601.716 292.38 636.745 305.327 681.062 305.249C725.783 305.172 762.326 292.263 789.583 279.975C822.795 264.973 848.941 247.684 873.774 230.512C904.16 209.462 931.619 187.832 963.115 167.015C985.122 152.401 1011.17 133.639 1051.34 125.189C1118.07 111.117 1190.25 148.719 1225.18 164.845C1278.28 189.382 1343.9 230.705 1439.09 228.031C1439.09 228.573 1439.19 228.806 1439.6 228.961Z" fill="url(#paint10_linear)"/>
<defs>
<linearGradient id="paint0_linear" x1="-6" y1="98.534" x2="1439.6" y2="98.534" gradientUnits="userSpaceOnUse">
<stop offset="0.3173" stop-color="#0E1213"/>
<stop offset="0.7936" stop-color="#59A2A2"/>
<stop offset="1" stop-color="#A9CBD4"/>
</linearGradient>
<linearGradient id="paint1_linear" x1="-6" y1="107.821" x2="1439.24" y2="107.821" gradientUnits="userSpaceOnUse">
<stop offset="0.3173" stop-color="#0E1213"/>
<stop offset="0.7936" stop-color="#59A2A2"/>
<stop offset="1" stop-color="#A9CBD4"/>
</linearGradient>
<linearGradient id="paint2_linear" x1="-6" y1="117.345" x2="1439.59" y2="117.345" gradientUnits="userSpaceOnUse">
<stop offset="0.3173" stop-color="#0E1213"/>
<stop offset="0.7936" stop-color="#59A2A2"/>
<stop offset="1" stop-color="#A9CBD4"/>
</linearGradient>
<linearGradient id="paint3_linear" x1="-6" y1="130.075" x2="1439.56" y2="130.075" gradientUnits="userSpaceOnUse">
<stop offset="0.3173" stop-color="#0E1213"/>
<stop offset="0.7936" stop-color="#59A2A2"/>
<stop offset="1" stop-color="#A9CBD4"/>
</linearGradient>
<linearGradient id="paint4_linear" x1="-6" y1="140.634" x2="1439.21" y2="140.634" gradientUnits="userSpaceOnUse">
<stop offset="0.3173" stop-color="#0E1213"/>
<stop offset="0.7936" stop-color="#59A2A2"/>
<stop offset="1" stop-color="#A9CBD4"/>
</linearGradient>
<linearGradient id="paint5_linear" x1="-6" y1="151.933" x2="1439.58" y2="151.933" gradientUnits="userSpaceOnUse">
<stop offset="0.3173" stop-color="#0E1213"/>
<stop offset="0.7936" stop-color="#59A2A2"/>
<stop offset="1" stop-color="#A9CBD4"/>
</linearGradient>
<linearGradient id="paint6_linear" x1="-6" y1="162.201" x2="1439.99" y2="162.201" gradientUnits="userSpaceOnUse">
<stop offset="0.3173" stop-color="#0E1213"/>
<stop offset="0.7936" stop-color="#59A2A2"/>
<stop offset="1" stop-color="#A9CBD4"/>
</linearGradient>
<linearGradient id="paint7_linear" x1="-6" y1="170.137" x2="1439.87" y2="170.137" gradientUnits="userSpaceOnUse">
<stop offset="0.3173" stop-color="#0E1213"/>
<stop offset="0.7936" stop-color="#59A2A2"/>
<stop offset="1" stop-color="#A9CBD4"/>
</linearGradient>
<linearGradient id="paint8_linear" x1="-6" y1="182.418" x2="1439.6" y2="182.418" gradientUnits="userSpaceOnUse">
<stop offset="0.3173" stop-color="#0E1213"/>
<stop offset="0.7936" stop-color="#59A2A2"/>
<stop offset="1" stop-color="#A9CBD4"/>
</linearGradient>
<linearGradient id="paint9_linear" x1="-6" y1="199.344" x2="1439.23" y2="199.344" gradientUnits="userSpaceOnUse">
<stop offset="0.3173" stop-color="#0E1213"/>
<stop offset="0.7936" stop-color="#59A2A2"/>
<stop offset="1" stop-color="#A9CBD4"/>
</linearGradient>
<linearGradient id="paint10_linear" x1="-6" y1="217.403" x2="1439.6" y2="217.403" gradientUnits="userSpaceOnUse">
<stop offset="0.3173" stop-color="#0E1213"/>
<stop offset="0.7936" stop-color="#59A2A2"/>
<stop offset="1" stop-color="#A9CBD4"/>
</linearGradient>
</defs>
</svg>
