<svg width="74" height="75" viewBox="0 0 74 75" fill="none" xmlns="http://www.w3.org/2000/svg">
<path d="M64.963 0.849976H22.9815C17.9977 0.849976 13.9446 4.89967 13.9446 9.88685V36.9936H9.03687C4.05312 36.9936 0 41.0433 0 46.0304V65.8131C0 70.7969 4.04969 74.85 9.03687 74.85H28.8195C33.8033 74.85 37.8564 70.8003 37.8564 65.8131V60.9054H64.9631C69.9469 60.9054 74 56.8557 74 51.8685V9.887C74 4.90021 69.9503 0.850131 64.9631 0.850131L64.963 0.849976ZM32.7178 65.8092C32.7178 67.9116 31.0048 69.7037 28.8233 69.7037H9.04061C6.93819 69.7037 5.14608 67.9908 5.14608 65.8092V46.0265C5.14608 43.9241 6.85905 42.132 9.04061 42.132H28.8233C30.9257 42.132 32.7178 43.845 32.7178 46.0265V65.8092ZM68.8575 51.8683C68.8575 54.0499 67.0654 55.7629 64.963 55.7629H37.8594V46.0265C37.8594 44.4687 37.3908 43.0661 36.7701 41.7426L55.4639 23.0488V32.0062C55.4639 33.4089 56.6323 34.5772 58.0349 34.5772C59.4376 34.5772 60.6059 33.4089 60.6059 32.0062L60.6029 16.8176C60.6029 15.4149 59.4345 14.2465 58.0319 14.2465H42.8432C41.4405 14.2465 40.2722 15.4149 40.2722 16.8176C40.2722 18.2202 41.4405 19.3886 42.8432 19.3886H51.8006L33.1069 38.0823C31.8594 37.3825 30.3807 36.9931 28.8229 36.9931L19.0865 36.9901V9.88645C19.0865 7.70489 20.7995 5.99192 22.9811 5.99192H64.9626C67.065 5.99192 68.8571 7.70489 68.8571 9.88645L68.8575 51.8683Z" fill="#A9CBD4"/>
</svg>
