<svg width="64" height="72" viewBox="0 0 64 72" fill="none" xmlns="http://www.w3.org/2000/svg">
<path d="M61.3055 11.2855C43.47 9.50777 33.5555 1.44273 33.48 1.36799C32.5926 0.627988 31.4074 0.627988 30.52 1.36799C30.4448 1.44314 20.53 9.50799 2.69451 11.2825C1.50933 11.4299 0.621918 12.3925 0.621918 13.5777C0.621918 57.2377 29.8519 70.4104 31.1092 71.0032C31.404 71.1506 31.7018 71.2257 31.9966 71.2257C32.2914 71.2257 32.5892 71.1506 32.884 71.0032C34.1414 70.4857 63.3713 57.2377 63.3713 13.5777C63.3741 12.3954 62.4867 11.3577 61.3044 11.2854L61.3055 11.2855ZM32 66.2652C27.19 63.7504 6.02451 50.8007 5.21273 15.6507C19.4955 13.8007 28.5952 8.39814 32 6.03073C35.4052 8.39814 44.5045 13.8007 58.7872 15.6507C57.9749 50.8007 36.81 63.7507 32 66.2652V66.2652Z" fill="#A9CBD4"/>
<path d="M22.4142 31.5858C21.6332 30.8047 20.3668 30.8047 19.5858 31.5858C18.8047 32.3668 18.8047 33.6332 19.5858 34.4142L22.4142 31.5858ZM45.4142 26.4142C46.1953 25.6332 46.1953 24.3668 45.4142 23.5858C44.6332 22.8047 43.3668 22.8047 42.5858 23.5858L45.4142 26.4142ZM19.5858 34.4142L25.6716 40.5L28.5 37.6716L22.4142 31.5858L19.5858 34.4142ZM31.3284 40.5L45.4142 26.4142L42.5858 23.5858L28.5 37.6716L31.3284 40.5ZM25.6716 40.5C27.2337 42.0621 29.7663 42.0621 31.3284 40.5L28.5 37.6716L28.5 37.6716L25.6716 40.5Z" fill="#A9CBD4"/>
</svg>
