<svg width="90" height="66" viewBox="0 0 90 66" fill="none" xmlns="http://www.w3.org/2000/svg">
<path d="M89.996 35.805C89.996 35.7855 89.9999 35.7699 89.9999 35.7503C89.9999 33.8167 88.4335 32.2503 86.4999 32.2503C85.2108 32.2503 84.0937 32.9574 83.4882 33.9964H68.8122L62.9489 1.72644C62.7302 0.99207 62.0388 0.47644 61.2341 0.47644H61.2302C60.445 0.492066 59.7614 1.03503 59.5544 1.84754L54.6247 37.7815L54.0622 31.3284C53.906 30.5042 53.1794 29.9065 52.3395 29.9065L42.3005 29.9026L38.2693 15.5936C38.0115 14.8007 37.242 14.3045 36.4099 14.3944C35.5896 14.4882 34.9333 15.1522 34.8552 15.9882L32.3591 55.5152L27.7341 35.2182L27.699 35.1245C27.4138 34.5034 26.7888 34.1011 26.1052 34.1011H6.51115C5.90568 33.062 4.78845 32.355 3.49945 32.355C1.56585 32.355 -0.000549316 33.9214 -0.000549316 35.855C-0.000549316 35.9409 0.0189817 36.019 0.0228887 36.1011C0.151799 37.9175 1.65179 39.355 3.49949 39.355C4.78859 39.355 5.90569 38.6479 6.51119 37.6089H24.9132L31.8585 64.4999C32.1436 65.121 32.7686 65.5233 33.4523 65.5233C33.5499 65.5233 33.6476 65.5155 33.7492 65.4998C34.5304 65.367 35.1281 64.7225 35.2023 63.9178L37.5929 25.4488L39.3429 32.1988C39.5772 32.9254 40.2491 33.4097 41.0109 33.4097H50.8664L52.6203 48.3047C52.7765 49.1172 53.4601 49.7031 54.2922 49.7305C55.1047 49.7266 55.843 49.1915 56.05 48.3594L61.4055 10.1754L65.7805 36.2534C66.007 36.9995 66.6789 37.5034 67.4602 37.5034H83.4832C84.0886 38.5425 85.2059 39.2495 86.4949 39.2495C87.741 39.2495 88.8269 38.5933 89.448 37.6128C89.7956 37.1128 89.9987 36.5073 89.9987 35.855C89.9987 35.8394 89.9948 35.8199 89.9948 35.8043L89.996 35.805Z" fill="#A9CBD4"/>
</svg>
