<svg width="74" height="74" viewBox="0 0 74 74" fill="none" xmlns="http://www.w3.org/2000/svg">
<path d="M73.9838 37.4945C73.987 37.3307 73.9967 37.1669 73.9967 37.0031C73.9967 26.8956 69.9209 17.7262 63.3301 11.0425C63.2337 10.9108 63.1181 10.8016 62.9961 10.7052C56.3092 4.09216 47.1232 0 37.0001 0C26.8671 0 17.6748 4.09824 10.9877 10.7176C10.8817 10.8011 10.7854 10.8974 10.6987 11.0066C4.08879 17.6935 0 26.8762 0 36.9993C0 37.1759 0.00963553 37.3494 0.0128471 37.5228C0.00963553 37.5613 0 37.5967 0 37.6352C0 37.6994 0.0128471 37.7605 0.019271 37.8247C0.234461 47.5951 4.24915 56.4405 10.6505 62.9409C10.7533 63.0854 10.8785 63.2075 11.0166 63.307C17.7035 69.9104 26.8796 73.9958 36.997 73.9958H37.0002C47.1233 73.9958 56.3058 69.9072 62.9928 63.2972C63.1213 63.2008 63.2401 63.0884 63.3365 62.9503C69.7311 56.4625 73.7457 47.63 73.9743 37.8793C73.9872 37.799 74 37.7187 74 37.6384C74 37.5871 73.9904 37.5421 73.9839 37.4939L73.9838 37.4945ZM31.5469 3.80588C30.0984 5.13557 28.4443 6.85062 26.787 8.98328C25.4252 10.7369 23.9799 12.8984 22.6438 15.4646C19.8848 14.5236 17.2544 13.2967 14.7685 11.7807C19.4095 7.68566 25.1778 4.84648 31.5466 3.80588H31.5469ZM12.2791 14.2085C15.0862 15.9975 18.0603 17.4428 21.1919 18.5412C19.1942 23.2368 17.7071 29.0376 17.5691 35.9623L3.38258 35.9591C3.63952 27.5823 6.96373 19.9678 12.2789 14.209L12.2791 14.2085ZM3.44359 39.3116H17.598C17.8806 45.6773 19.3163 51.0503 21.1888 55.4574C18.0605 56.5558 15.0832 57.9979 12.276 59.79C7.23671 54.3236 3.98312 47.1871 3.44375 39.312L3.44359 39.3116ZM14.7679 62.2209C17.2538 60.7049 19.8843 59.4781 22.6432 58.537C23.9761 61.1 25.4246 63.2615 26.7864 65.0183C28.4437 67.1542 30.0977 68.8661 31.5495 70.1989C25.1773 69.1519 19.4054 66.3159 14.7681 62.2209H14.7679ZM35.3233 69.0234C33.7078 67.7002 31.5206 65.6574 29.3462 62.8376C28.0519 61.1578 26.9117 59.3978 25.9128 57.5703C28.9126 56.8188 32.0538 56.3852 35.3231 56.276L35.3233 69.0234ZM35.3233 52.894C31.5141 53.0129 27.8688 53.5428 24.3936 54.4743C22.3637 49.8301 21.2171 44.7623 20.9634 39.3143H35.3234L35.3202 52.894L35.3233 52.894ZM35.3233 35.9581H20.9214C21.0434 30.026 22.2061 24.5309 24.3934 19.5269C27.8685 20.4551 31.5139 20.9851 35.3231 21.1072L35.3198 35.958L35.3233 35.9581ZM35.3233 17.7214C32.0537 17.6122 28.9126 17.1786 25.9131 16.427C26.9119 14.5995 28.0521 12.8395 29.3465 11.1598C31.5208 8.33982 33.7081 6.29711 35.3235 4.97392L35.3203 17.7215L35.3233 17.7214ZM59.2316 11.7763C56.7458 13.2923 54.1153 14.5192 51.3564 15.4603C50.0235 12.8973 48.575 10.7358 47.2132 8.97893C45.5559 6.84627 43.9051 5.13121 42.4565 3.80152C48.8223 4.84853 54.5907 7.6846 59.2313 11.7763H59.2316ZM38.6763 4.96742C40.2629 6.26496 42.4052 8.2659 44.5602 11.0409C45.71 12.5215 46.9241 14.3233 48.0675 16.4302C45.0741 17.1786 41.9394 17.609 38.6761 17.7182L38.6763 4.96742ZM38.6763 21.1034C42.4758 20.9845 46.1148 20.4578 49.5838 19.5328C51.4948 23.9232 52.9337 29.3928 53.075 35.9582H38.6764L38.6763 21.1034ZM38.6763 39.3113H53.0396C52.789 44.7585 51.6392 49.8266 49.6094 54.4713C46.1342 53.5399 42.4856 53.01 38.6764 52.8911L38.6763 39.3113ZM38.6763 69.0237V56.2761C41.9459 56.3853 45.087 56.8189 48.0865 57.5704C47.0877 59.3979 45.9475 61.158 44.6531 62.8377C42.4788 65.6576 40.2915 67.7003 38.676 69.0235L38.6763 69.0237ZM42.4501 70.1928C43.8986 68.8631 45.5526 67.148 47.21 65.0122C48.5717 63.2586 50.0171 61.097 51.3532 58.5308C54.1121 59.4718 56.7426 60.6988 59.2284 62.2148C54.5907 66.3162 48.8192 69.1522 42.4503 70.1928H42.4501ZM61.7179 59.7901C58.9107 58.0011 55.9367 56.5559 52.8051 55.4607C54.6807 51.0541 56.1132 45.6804 56.399 39.3149H70.5535C70.0171 47.1869 66.7635 54.3236 61.7179 59.7896L61.7179 59.7901ZM56.4281 35.9591C56.29 29.0345 54.8029 23.2337 52.8052 18.538C55.9335 17.4396 58.9108 15.9975 61.718 14.2053C67.0335 19.9672 70.3611 27.5795 70.6144 35.9554L56.4281 35.9591Z" fill="#A9CBD4"/>
</svg>
