<svg width="74" height="71" viewBox="0 0 74 71" fill="none" xmlns="http://www.w3.org/2000/svg">
<path d="M50.3589 34.6387C50.3589 27.6625 44.6833 21.99 37.7101 21.99C30.734 21.99 25.0614 27.6656 25.0614 34.6387C25.0614 41.6149 30.737 47.2874 37.7101 47.2874C44.6863 47.2874 50.3589 41.6118 50.3589 34.6387ZM28.8023 34.6387C28.8023 29.7259 32.8004 25.7309 37.7101 25.7309C42.623 25.7309 46.618 29.726 46.618 34.6387C46.618 39.5515 42.6198 43.5465 37.7101 43.5465C32.7973 43.5465 28.8023 39.5514 28.8023 34.6387Z" fill="#A9CBD4"/>
<path d="M43.9874 55.1642C43.9231 55.1642 43.8617 55.173 43.7974 55.173L42.5904 50.266C42.3449 49.2636 41.3307 48.6469 40.3283 48.8983C39.3259 49.1438 38.7121 50.1579 38.9606 51.1603L40.1997 56.1901C37.9377 57.5023 36.4091 59.9485 36.4091 62.7454C36.4091 66.9276 39.811 70.3297 43.9934 70.3297C48.1758 70.3297 51.5777 66.9278 51.5777 62.7454C51.5719 58.5662 48.17 55.1641 43.9875 55.1641L43.9874 55.1642ZM43.9874 66.5889C41.8685 66.5889 40.1442 64.8646 40.1442 62.7458C40.1442 61.0857 41.2051 59.6712 42.681 59.1364C42.7336 59.1276 42.7862 59.1218 42.8388 59.1072C42.944 59.0809 43.0434 59.0429 43.1398 59.002C43.4116 58.9406 43.6951 58.9055 43.9874 58.9055C46.1062 58.9055 47.8305 60.6298 47.8305 62.7487C47.8305 64.8646 46.1062 66.5889 43.9874 66.5889L43.9874 66.5889Z" fill="#A9CBD4"/>
<path d="M66.4156 30.1324C63.1394 30.1324 60.3483 32.225 59.2903 35.1417L54.1846 34.6302C53.1559 34.5279 52.2411 35.2761 52.1359 36.3049C52.0336 37.3336 52.7818 38.2484 53.8105 38.3536L58.9279 38.8651C59.4832 42.5037 62.625 45.3006 66.4157 45.3006C70.5979 45.3006 74 41.8987 74 37.7163C73.9971 33.5341 70.5952 30.132 66.4157 30.132L66.4156 30.1324ZM66.4156 41.5593C64.2967 41.5593 62.5724 39.835 62.5724 37.7162C62.5724 35.5973 64.2967 33.873 66.4156 33.873C68.5344 33.873 70.2587 35.5973 70.2587 37.7162C70.2558 39.835 68.5344 41.5593 66.4156 41.5593Z" fill="#A9CBD4"/>
<path d="M45.7561 22.6095C46.0571 22.7907 46.3874 22.8754 46.7147 22.8754C47.3489 22.8754 47.9714 22.551 48.322 21.9665L52.513 14.9728C53.0566 15.0984 53.6207 15.1686 54.2023 15.1686C58.3845 15.1686 61.7866 11.7667 61.7866 7.58429C61.7866 3.4019 58.3847 0 54.2023 0C50.0201 0 46.618 3.4019 46.618 7.58429C46.618 9.8405 47.6117 11.863 49.1811 13.2511L45.1129 20.0403C44.5839 20.9287 44.8703 22.0773 45.7559 22.6092L45.7561 22.6095ZM54.2023 3.74412C56.3211 3.74412 58.0455 5.46845 58.0455 7.58729C58.0455 9.70613 56.3211 11.4305 54.2023 11.4305C52.0834 11.4305 50.3591 9.70613 50.3591 7.58729C50.3591 5.46845 52.0834 3.74412 54.2023 3.74412V3.74412Z" fill="#A9CBD4"/>
<path d="M27.5102 24.3752C28.1971 23.6036 28.1269 22.42 27.3554 21.7332L25.3417 19.9417C26.1016 18.761 26.5487 17.3581 26.5487 15.85C26.5487 11.6679 23.1468 8.26575 18.9644 8.26575C14.7823 8.26575 11.3802 11.6676 11.3802 15.85C11.3802 20.0322 14.7821 23.4343 18.9644 23.4343C20.2796 23.4343 21.5159 23.0982 22.5943 22.5079L24.8681 24.5303C25.2247 24.8488 25.6689 25.0037 26.1102 25.0037C26.6275 25.0008 27.139 24.7904 27.5102 24.3754L27.5102 24.3752ZM15.1241 15.8497C15.1241 13.7308 16.8485 12.0065 18.9673 12.0065C21.0832 12.0065 22.8076 13.7308 22.8076 15.8497C22.8076 17.9685 21.0832 19.6928 18.9644 19.6928C16.8485 19.6928 15.1241 17.9685 15.1241 15.8497Z" fill="#A9CBD4"/>
<path d="M22.3052 38.8442L14.3617 40.7497C13.1167 38.2626 10.5507 36.5471 7.58429 36.5471C3.40212 36.5471 0 39.949 0 44.1314C0 48.3135 3.4019 51.7156 7.58429 51.7156C11.6729 51.7156 15.0047 48.4628 15.1536 44.4092L23.1793 42.4833C24.1847 42.2407 24.8043 41.2324 24.5617 40.2271C24.3192 39.2246 23.3109 38.605 22.3055 38.8446L22.3052 38.8442ZM7.581 47.9712C5.46216 47.9712 3.73783 46.2469 3.73783 44.1281C3.73783 42.0092 5.46216 40.2849 7.581 40.2849C9.69984 40.2849 11.4242 42.0092 11.4242 44.1281C11.4242 46.2498 9.69984 47.9712 7.581 47.9712Z" fill="#A9CBD4"/>
</svg>
