<svg width="74" height="61" viewBox="0 0 74 61" fill="none" xmlns="http://www.w3.org/2000/svg">
<path d="M73.9994 37.008V36.8596C73.9608 27.0976 70.0621 17.7458 63.155 10.8444C56.2269 3.88965 46.8091 -0.0120925 36.9917 6.06107e-05C27.1796 -0.0177421 17.7678 3.88692 10.8489 10.8444C4.64179 17.0486 0.837794 25.2557 0.123041 34.0021C-0.592024 42.7493 1.82614 51.4631 6.9473 58.5931C7.83744 59.7651 9.20527 60.4831 10.6769 60.5484C12.1486 60.6137 13.5728 60.0203 14.5638 58.9314L14.9436 58.5308V58.5278C20.7353 52.6204 28.6629 49.2915 36.9384 49.2915C45.2139 49.2915 53.1415 52.6205 58.9362 58.5278L59.4436 59.056H59.4406C60.4346 60.1211 61.8529 60.6878 63.3067 60.5958C64.7606 60.5068 66.0987 59.771 66.9532 58.5931C71.4691 52.3564 73.908 44.8555 73.914 37.1558C73.9525 37.1113 73.9822 37.0609 74 37.0075L73.9994 37.008ZM62.8785 53.739C57.2915 48.2558 50.0996 44.6925 42.3497 43.5706L51.7615 29.7708C52.5656 28.3614 52.1472 26.5723 50.8002 25.6644C49.4561 24.7565 47.6402 25.0384 46.6344 26.3112L35.2204 43.1911C26.1831 43.6302 17.6288 47.3865 11.1869 53.7392C8.51064 49.6447 6.86686 44.9594 6.39806 40.0875H9.24644C10.9466 40.0875 12.3263 38.7108 12.3263 37.0077C12.3263 35.3076 10.9466 33.9279 9.24644 33.9279H6.312C6.89651 27.8988 9.27014 22.1812 13.1274 17.5113L15.2369 19.6209V19.6239C15.8125 20.2024 16.5959 20.5288 17.4118 20.5288C18.2277 20.5288 19.0111 20.2024 19.5837 19.6239C20.1652 19.0482 20.4916 18.2649 20.4916 17.449C20.4916 16.6331 20.1652 15.8497 19.5837 15.2771L17.4742 13.1675C22.1532 9.32222 27.865 6.94857 33.8907 6.35215V9.24208C33.8907 10.9422 35.2674 12.3219 36.9705 12.3219C38.6706 12.3219 40.0503 10.9422 40.0503 9.24208V6.33142C46.0794 6.94264 51.794 9.31037 56.4881 13.1438L54.3786 15.2534V15.2563C53.177 16.4609 53.1829 18.4103 54.3875 19.612C55.595 20.8136 57.5444 20.8077 58.7461 19.6001L60.8557 17.4906C64.7039 22.1666 67.0776 27.8815 67.671 33.9071H64.7574C63.0573 33.9071 61.6776 35.2868 61.6776 36.987C61.6776 38.6871 63.0573 40.0668 64.7574 40.0668H67.671C67.1844 44.9417 65.5436 49.6297 62.8792 53.739L62.8785 53.739Z" fill="#A9CBD4"/>
</svg>
