<svg width="70" height="70" viewBox="0 0 70 70" fill="none" xmlns="http://www.w3.org/2000/svg">
<path d="M35 70C29.4766 70 25 65.5234 25 60V9.99997C25 7.23827 22.7617 4.99997 20 4.99997C17.2383 4.99997 15 7.23827 15 9.99997V37.5C15 39.4883 14.2109 41.3984 12.8047 42.8047C11.3985 44.211 9.4883 45 7.5 45H2.5C1.1211 45 0 43.8789 0 42.5C0 41.1211 1.1211 40 2.5 40H7.5C8.16406 40 8.8008 39.7383 9.2695 39.2695C9.7382 38.8008 9.99997 38.164 9.99997 37.5V10C9.99997 4.4766 14.4766 0 20 0C25.5234 0 30 4.4766 30 10V60C30 62.7617 32.2383 65 35 65C37.7617 65 40 62.7617 40 60V10C40 4.4766 44.4766 0 50 0C55.5234 0 60 4.4766 60 10V37.5C60 38.1641 60.2617 38.8008 60.7304 39.2695C61.1992 39.7382 61.8359 40 62.4999 40H67.4999C68.8788 40 69.9999 41.1211 69.9999 42.5C69.9999 43.8789 68.8788 45 67.4999 45H62.4999C58.3593 45 54.9999 41.6406 54.9999 37.5V9.99997C54.9999 7.23827 52.7616 4.99997 49.9999 4.99997C47.2382 4.99997 44.9999 7.23827 44.9999 9.99997V60C44.9999 62.6523 43.9452 65.1953 42.0702 67.0703C40.1952 68.9453 37.6522 70 34.9999 70H35Z" fill="#A9CBD4"/>
</svg>
