<svg width="80" height="74" viewBox="0 0 80 74" fill="none" xmlns="http://www.w3.org/2000/svg">
<path d="M16.3458 33.9903C15.946 34.9613 14.8359 35.4289 13.8612 35.0291C12.8903 34.6328 12.4227 33.5191 12.8225 32.5482C13.6935 30.4171 14.8108 28.4037 16.153 26.5404C18.384 23.4419 21.2005 20.8039 24.4347 18.7906C25.3271 18.2337 26.5015 18.5086 27.0548 19.401C27.6117 20.2934 27.3368 21.4678 26.4444 22.0247C23.6351 23.7739 21.1827 26.0656 19.2408 28.7679C18.0771 30.3849 17.1026 32.1376 16.3457 33.9903L16.3458 33.9903ZM43.6149 68.8844C44.6536 68.7167 45.6281 69.427 45.7924 70.4623C45.9601 71.5011 45.2533 72.4791 44.2145 72.6434C42.726 72.8825 41.2088 73.0003 39.6738 73.0003C38.5565 73.0003 37.4499 72.9361 36.3504 72.8111C32.5487 72.3756 28.9077 71.1905 25.5982 69.3378C24.6808 68.8238 24.3523 67.6636 24.8664 66.7462C25.3804 65.8288 26.5406 65.5004 27.458 66.0144C30.328 67.6208 33.4872 68.6489 36.7855 69.0273C37.7387 69.138 38.7025 69.1915 39.6735 69.1915C41.0085 69.1915 42.3257 69.088 43.6144 68.8845L43.6149 68.8844ZM59.5532 28.022C58.9071 27.1938 59.057 25.998 59.8887 25.3519C60.7205 24.7057 61.9164 24.8592 62.5589 25.6874C63.9332 27.458 65.1041 29.3856 66.0393 31.4239C67.6279 34.8686 68.531 38.6097 68.6951 42.4795C68.738 43.529 67.9205 44.4179 66.871 44.4607C65.818 44.5036 64.9327 43.6861 64.8898 42.6366C64.7506 39.2668 63.9617 36.0148 62.5803 33.0166C61.7664 31.2389 60.749 29.5647 59.5532 28.0226L59.5532 28.022Z" fill="#A9CBD4"/>
<path d="M51.589 16.3422C51.589 9.41705 46.0275 3.80889 39.1772 3.80889C32.327 3.80889 26.7691 9.41687 26.7691 16.3422C26.7691 23.271 32.3271 28.8792 39.1772 28.8792C46.0274 28.8792 51.589 23.2713 51.589 16.3422V16.3422ZM55.3979 16.3422C55.3979 25.3664 48.1407 32.6845 39.1772 32.6845C30.2173 32.6845 22.9602 25.3666 22.9602 16.3422C22.9602 7.32161 30.2174 0 39.1772 0C48.1407 0 55.3979 7.32143 55.3979 16.3422ZM76.1093 56.6582C76.1093 49.7295 70.5477 44.1212 63.6974 44.1212C56.8472 44.1212 51.2856 49.7292 51.2856 56.6582C51.2856 63.5834 56.8472 69.1915 63.6974 69.1915C70.5477 69.1915 76.1093 63.5836 76.1093 56.6582V56.6582ZM79.9146 56.6582C79.9146 65.6788 72.6574 73.0004 63.6975 73.0004C54.7377 73.0004 47.4805 65.679 47.4805 56.6582C47.4805 47.634 54.7377 40.316 63.6975 40.316C72.6574 40.316 79.9146 47.6338 79.9146 56.6582ZM28.6288 57.6578C28.6288 50.7326 23.0673 45.1244 16.217 45.1244C9.36679 45.1244 3.80889 50.7324 3.80889 57.6578C3.80889 64.5865 9.36688 70.1948 16.217 70.1948C23.0672 70.1948 28.6288 64.5868 28.6288 57.6578ZM32.4377 57.6578C32.4377 66.682 25.1806 74 16.217 74C7.25709 74 0 66.6821 0 57.6578C0 48.6371 7.25718 41.3155 16.217 41.3155C25.1806 41.3155 32.4377 48.637 32.4377 57.6578Z" fill="#A9CBD4"/>
</svg>
